<?xml version="1.0" encoding="UTF-8" standalone="no"?>
<svg
   xmlns:dc="http://purl.org/dc/elements/1.1/"
   xmlns:cc="http://creativecommons.org/ns#"
   xmlns:rdf="http://www.w3.org/1999/02/22-rdf-syntax-ns#"
   xmlns:svg="http://www.w3.org/2000/svg"
   xmlns="http://www.w3.org/2000/svg"
   xmlns:sodipodi="http://sodipodi.sourceforge.net/DTD/sodipodi-0.dtd"
   xmlns:inkscape="http://www.inkscape.org/namespaces/inkscape"
   id="Camada_1"
   data-name="Camada 1"
   viewBox="0 0 169.15 146.47999"
   version="1.1"
   sodipodi:docname="aprendamais.svg"
   inkscape:version="0.92.3 (2405546, 2018-03-11)"
   width="169.14999"
   height="146.48">
  <metadata
     id="metadata38">
    <rdf:RDF>
      <cc:Work
         rdf:about="">
        <dc:format>image/svg+xml</dc:format>
        <dc:type
           rdf:resource="http://purl.org/dc/dcmitype/StillImage" />
      </cc:Work>
    </rdf:RDF>
  </metadata>
  <sodipodi:namedview
     pagecolor="#ffffff"
     bordercolor="#666666"
     borderopacity="1"
     objecttolerance="10"
     gridtolerance="10"
     guidetolerance="10"
     inkscape:pageopacity="0"
     inkscape:pageshadow="2"
     inkscape:window-width="815"
     inkscape:window-height="480"
     id="namedview36"
     showgrid="false"
     inkscape:zoom="1.4497983"
     inkscape:cx="-181.84497"
     inkscape:cy="27.899994"
     inkscape:window-x="0"
     inkscape:window-y="0"
     inkscape:window-maximized="0"
     inkscape:current-layer="Camada_1" />
  <defs
     id="defs19">
    <style
       id="style2">.cls-1{fill:#29235c;}.cls-2{fill:url(#radial-gradient);}.cls-3{fill:#44ade3;}.cls-4{fill:#e52421;}</style>
    <radialGradient
       id="radial-gradient"
       cx="130.78999"
       cy="118.58"
       r="93.580002"
       gradientUnits="userSpaceOnUse">
      <stop
         offset="0"
         stop-color="#fff"
         id="stop4" />
      <stop
         offset="0.15"
         stop-color="#f8f8f8"
         id="stop6" />
      <stop
         offset="0.39"
         stop-color="#f2f2f2"
         id="stop8" />
      <stop
         offset="0.5"
         stop-color="#ededed"
         id="stop10" />
      <stop
         offset="0.63"
         stop-color="#e0dfde"
         id="stop12" />
      <stop
         offset="0.77"
         stop-color="#cac7c6"
         id="stop14" />
      <stop
         offset="0.81"
         stop-color="#c2bfbd"
         id="stop16" />
    </radialGradient>
  </defs>
  <title
     id="title21">APRENDA MAIS</title>
  <polygon
     class="cls-1"
     points="46.22,118.58 88.5,191.82 173.08,191.82 215.37,118.58 173.08,45.34 88.5,45.34 "
     id="polygon23"
     style="fill:#29235c"
     transform="translate(-46.22,-45.34)" />
  <polygon
     class="cls-2"
     points="53.03,118.58 91.91,185.93 169.67,185.93 208.55,118.58 169.67,51.23 91.91,51.23 "
     id="polygon25"
     style="fill:url(#radial-gradient)"
     transform="translate(-46.22,-45.34)" />
  <path
     class="cls-3"
     d="m 47.03,35.35 v 30.18 l 6,-7 5.5,7 V 35.37 a 36,36 0 0 1 5.87,1.46 v -1.88 a 37.23,37.23 0 0 0 -11.62,-1.83 44.44,44.44 0 0 0 -10.55,1.3 v 1.89 a 44.18,44.18 0 0 1 4.8,-0.96 z"
     id="path27"
     inkscape:connector-curvature="0"
     style="fill:#44ade3" />
  <path
     class="cls-4"
     d="m 129.14,42.85 v -6 l -0.52,-0.25 a 42.79,42.79 0 0 0 -17.08,-3.51 c -11.43,0 -21.56,4.86 -29.38,14 -7.82,-9.18 -18,-14 -29.38,-14 a 42.93,42.93 0 0 0 -17.09,3.57 l -0.51,0.25 v 6 h -2.4 v 64.46 c 0,0 25.12,-13.83 48.56,0.17 0,0 0.26,0.31 0.39,0.23 0.13,0.08 0.39,-0.23 0.39,-0.23 a 44,44 0 0 1 8.85,-4 25.16,25.16 0 0 0 9.28,11.3 h 18 a 40.47,40.47 0 0 0 4.38,-10.72 49.82,49.82 0 0 1 8.07,3.29 V 42.85 Z m -46.07,6 c 7.63,-9.26 17.21,-14 28.47,-14 a 42.52,42.52 0 0 1 15.78,3.11 v 58.05 c -1.27,-0.59 -2.56,-1.11 -3.85,-1.59 -0.55,-7.69 -3.62,-8.34 -4.77,-8.3 0,1.06 -0.09,2.06 -0.15,2.93 -0.07,1.1 -0.18,2 -0.24,2.66 -0.06,0.66 -0.12,1 -0.12,1 0,0 0,-0.37 -0.12,-1 -0.12,-0.63 -0.17,-1.56 -0.24,-2.66 -0.14,-2.06 -0.24,-4.76 -0.26,-7.5 -1.39,-3.59 -4.51,-2.85 -5.69,-2.41 0,3.29 -0.12,6.5 -0.26,9 -0.07,1.38 -0.18,2.53 -0.23,3.34 0,0.1 0,0.17 0,0.26 h -0.2 a 2.12,2.12 0 0 0 0,-0.24 c -0.05,-0.81 -0.16,-2 -0.23,-3.34 -0.16,-2.77 -0.26,-6.45 -0.27,-10.14 0,-0.92 0,-1.85 0,-2.76 -1.41,-3 -4.44,-2.62 -5.72,-2.29 0,1 0,2 0,3 0,2.1 0,4.2 -0.07,6.17 -0.07,1.97 -0.15,3.81 -0.2,5.38 -0.05,1.57 -0.18,2.89 -0.23,3.81 0,0.16 0,0.28 0,0.41 h -0.18 c 0,-0.13 0,-0.26 0,-0.42 -0.05,-0.92 -0.18,-2.23 -0.23,-3.81 -0.05,-1.58 -0.16,-3.41 -0.2,-5.38 -0.04,-1.97 -0.06,-4.07 -0.07,-6.17 -0.01,-2.1 0,-4.21 0.07,-6.17 0.07,-1.96 0.15,-3.81 0.2,-5.39 0,-0.56 0,-1.07 0.08,-1.56 0,-0.12 0,-0.23 -0.08,-0.35 a 37.26,37.26 0 0 1 16.33,-0.35 l 0.36,-1.83 a 38.93,38.93 0 0 0 -17.25,0.4 3.25,3.25 0 0 0 -3.14,-2.11 c -1.49,0 -2.44,1.75 -3,4.24 a 36.24,36.24 0 0 0 -10.65,7 l 1.35,1.29 a 33.59,33.59 0 0 1 8.88,-6 90.32,90.32 0 0 0 -0.37,14.46 c 0.13,3.31 0.2,11 0.22,13.46 h -0.13 l -2,-10.85 c -1,-0.07 -4.8,3.3 -4.85,13.23 A 42.66,42.66 0 0 0 83.2,99.02 V 48.88 Z M 36.99,38.04 a 41.35,41.35 0 0 1 10,-2.69 51.1,51.1 0 0 1 11.53,0 c 8.87,1.45 16.4,5.88 22.69,13.51 V 99.01 A 45.19,45.19 0 0 0 56.56,91.66 46.23,46.23 0 0 0 36.99,96.13 Z m 45.17,66.54 c 0,0 -16.3,-14.2 -46.07,-3.27 v -2.76 l 0.4,-0.21 a 44.91,44.91 0 0 1 20.07,-4.9 43.43,43.43 0 0 1 25,8.07 l 0.57,0.64 0.57,-0.64 a 36.59,36.59 0 0 1 7,-4.07 18.8,18.8 0 0 0 0.43,3.16 36.79,36.79 0 0 0 -7.97,3.98 z M 123.4,99.72 A 24.38,24.38 0 0 0 123.56,97 c 0,-0.19 0,-0.35 0,-0.53 1.43,0.56 2.86,1.17 4.28,1.87 l 0.4,0.21 v 2.76 q -2.46,-0.92 -4.84,-1.59 z"
     id="path29"
     inkscape:connector-curvature="0"
     style="fill:#e52421" />
  <path
     class="cls-4"
     d="m 120.32,45.01 0.36,-1.83 a 38.87,38.87 0 0 0 -34.06,9.48 l 1.35,1.29 a 37,37 0 0 1 32.35,-8.94 z"
     id="path31"
     inkscape:connector-curvature="0"
     style="fill:#e52421" />
  <path
     class="cls-4"
     d="m 120.32,53.59 0.36,-1.83 a 38.87,38.87 0 0 0 -34.06,9.5 l 1.35,1.29 a 37,37 0 0 1 32.35,-8.96 z"
     id="path33"
     inkscape:connector-curvature="0"
     style="fill:#e52421" />
</svg>
