<?xml version="1.0" encoding="UTF-8" standalone="no"?>
<svg
   xmlns:dc="http://purl.org/dc/elements/1.1/"
   xmlns:cc="http://creativecommons.org/ns#"
   xmlns:rdf="http://www.w3.org/1999/02/22-rdf-syntax-ns#"
   xmlns:svg="http://www.w3.org/2000/svg"
   xmlns="http://www.w3.org/2000/svg"
   xmlns:sodipodi="http://sodipodi.sourceforge.net/DTD/sodipodi-0.dtd"
   xmlns:inkscape="http://www.inkscape.org/namespaces/inkscape"
   id="Camada_1"
   data-name="Camada 1"
   viewBox="0 0 169.15 146.47999"
   version="1.1"
   sodipodi:docname="conteudo.svg"
   width="169.14999"
   height="146.48"
   inkscape:version="0.92.3 (2405546, 2018-03-11)">
  <metadata
     id="metadata74">
    <rdf:RDF>
      <cc:Work
         rdf:about="">
        <dc:format>image/svg+xml</dc:format>
        <dc:type
           rdf:resource="http://purl.org/dc/dcmitype/StillImage" />
      </cc:Work>
    </rdf:RDF>
  </metadata>
  <sodipodi:namedview
     pagecolor="#ffffff"
     bordercolor="#666666"
     borderopacity="1"
     objecttolerance="10"
     gridtolerance="10"
     guidetolerance="10"
     inkscape:pageopacity="0"
     inkscape:pageshadow="2"
     inkscape:window-width="815"
     inkscape:window-height="480"
     id="namedview72"
     showgrid="false"
     inkscape:zoom="1.2011274"
     inkscape:cx="-2.8478787"
     inkscape:cy="73.239998"
     inkscape:window-x="0"
     inkscape:window-y="0"
     inkscape:window-maximized="0"
     inkscape:current-layer="Camada_1" />
  <defs
     id="defs19">
    <style
       id="style2">.cls-1{fill:#29235c;}.cls-2{fill:url(#Gradiente_sem_nome_92);}.cls-3{fill:#fff;}.cls-4{fill:#be1622;}.cls-5{fill:#e30613;}.cls-6{fill:#f2c6a5;}</style>
    <radialGradient
       id="Gradiente_sem_nome_92"
       cx="130.78999"
       cy="118.58"
       r="93.580002"
       gradientUnits="userSpaceOnUse">
      <stop
         offset="0.29"
         stop-color="#fff"
         id="stop4" />
      <stop
         offset="0.4"
         stop-color="#f8f8f8"
         id="stop6" />
      <stop
         offset="0.57"
         stop-color="#f2f2f2"
         id="stop8" />
      <stop
         offset="0.63"
         stop-color="#ededed"
         id="stop10" />
      <stop
         offset="0.71"
         stop-color="#e0dfde"
         id="stop12" />
      <stop
         offset="0.79"
         stop-color="#cac7c6"
         id="stop14" />
      <stop
         offset="0.81"
         stop-color="#c2bfbd"
         id="stop16" />
    </radialGradient>
  </defs>
  <title
     id="title21">CONTEUDO</title>
  <polygon
     class="cls-1"
     points="46.22,118.58 88.5,191.82 173.08,191.82 215.37,118.58 173.08,45.34 88.5,45.34 "
     id="polygon23"
     style="fill:#29235c"
     transform="translate(-46.22,-45.34)" />
  <polygon
     class="cls-2"
     points="53.03,118.58 91.91,185.93 169.67,185.93 208.55,118.58 169.67,51.23 91.91,51.23 "
     id="polygon25"
     style="fill:url(#Gradiente_sem_nome_92)"
     transform="translate(-46.22,-45.34)" />
  <path
     class="cls-3"
     d="m 60.99,29.66 v 69.12 l -3.44,-0.33 -2.89,10.35 h 65.48 a 3.53,3.53 0 0 0 3.37,-2.5 h 0.15 V 29.66 Z"
     id="path27"
     inkscape:connector-curvature="0"
     style="fill:#ffffff" />
  <path
     class="cls-4"
     d="m 122.78,30.58 v 75.13 l -0.12,0.37 a 2.65,2.65 0 0 1 -2.52,1.88 H 55.78 l 2.38,-8.52 2.7,0.25 1,0.1 V 30.58 h 60.92 m 0.88,-0.88 H 60.99 v 69.12 l -3.44,-0.33 -2.89,10.35 h 65.48 a 3.53,3.53 0 0 0 3.37,-2.5 h 0.15 V 29.66 Z"
     id="path29"
     inkscape:connector-curvature="0"
     style="fill:#be1622" />
  <path
     class="cls-3"
     d="m 50.1,29.66 v 75.62 a 3.52,3.52 0 0 0 3.52,3.52 h 5.61 a 3.52,3.52 0 0 0 3.52,-3.52 V 29.66 Z"
     id="path31"
     inkscape:connector-curvature="0"
     style="fill:#ffffff" />
  <path
     class="cls-4"
     d="m 61.87,30.58 v 74.74 a 2.64,2.64 0 0 1 -2.64,2.64 h -5.61 a 2.64,2.64 0 0 1 -2.64,-2.64 V 30.58 h 10.89 m 0.91,-0.92 H 50.1 v 75.62 a 3.52,3.52 0 0 0 3.52,3.52 h 5.61 a 3.52,3.52 0 0 0 3.52,-3.52 V 29.66 Z"
     id="path33"
     inkscape:connector-curvature="0"
     style="fill:#be1622" />
  <path
     class="cls-4"
     d="m 59.23,33.12 v 69.66 a 1.21,1.21 0 0 1 -1.21,1.21 h -3.19 a 1.22,1.22 0 0 1 -1.22,-1.21 V 33.12 h -1.08 v 69.66 a 2.3,2.3 0 0 0 2.3,2.3 h 3.19 a 2.3,2.3 0 0 0 2.3,-2.3 V 33.12 Z"
     id="path35"
     inkscape:connector-curvature="0"
     style="fill:#be1622" />
  <rect
     class="cls-4"
     x="55.879997"
     y="33.119999"
     width="1.09"
     height="67.75"
     id="rect37"
     style="fill:#be1622" />
  <path
     class="cls-5"
     d="M 68.3,48.66 V 35.59 h 3.48 l 2.73,4.81 a 40.17,40.17 0 0 1 2.14,4.49 h 0.06 a 47.33,47.33 0 0 1 -0.26,-5.47 v -3.83 h 2.73 v 13.07 h -3.12 l -2.82,-5 a 47.34,47.34 0 0 1 -2.27,-4.63 h -0.06 c 0.08,1.73 0.11,3.58 0.11,5.72 v 4 z"
     id="path39"
     inkscape:connector-curvature="0"
     style="fill:#e30613" />
  <path
     class="cls-5"
     d="M 89.53,43.16 H 84.7 v 3.11 h 5.39 v 2.39 H 81.78 V 35.59 h 8 v 2.43 h -5.12 v 2.73 h 4.83 z"
     id="path41"
     inkscape:connector-curvature="0"
     style="fill:#e30613" />
  <path
     class="cls-5"
     d="M 94.37,48.66 91.26,35.55 h 3.17 l 1,5.41 c 0.3,1.55 0.57,3.25 0.78,4.57 v 0 c 0.21,-1.42 0.53,-3 0.86,-4.61 l 1.11,-5.37 h 3.15 l 1,5.53 c 0.29,1.53 0.5,2.93 0.7,4.39 v 0 c 0.19,-1.46 0.48,-3 0.76,-4.55 l 1.07,-5.37 h 3 l -3.25,13.11 h -3.21 l -1.11,-5.64 c -0.26,-1.32 -0.47,-2.55 -0.63,-4.05 v 0 c -0.24,1.48 -0.45,2.73 -0.76,4.05 l -1.28,5.64 z"
     id="path43"
     inkscape:connector-curvature="0"
     style="fill:#e30613" />
  <path
     class="cls-5"
     d="m 109.47,45.66 a 7.58,7.58 0 0 0 3.29,0.82 c 1.36,0 2.08,-0.57 2.08,-1.42 0,-0.85 -0.62,-1.29 -2.2,-1.85 -2.18,-0.76 -3.6,-2 -3.6,-3.88 0,-2.23 1.87,-3.94 5,-3.94 a 8,8 0 0 1 3.34,0.66 l -0.66,2.39 a 6.3,6.3 0 0 0 -2.74,-0.62 c -1.29,0 -1.91,0.58 -1.91,1.26 0,0.84 0.74,1.21 2.43,1.85 2.32,0.86 3.41,2.06 3.41,3.91 0,2.2 -1.7,4.07 -5.29,4.07 a 8.57,8.57 0 0 1 -3.72,-0.8 z"
     id="path45"
     inkscape:connector-curvature="0"
     style="fill:#e30613" />
  <rect
     class="cls-5"
     x="66.5"
     y="54.16"
     width="51.380001"
     height="9.4499998"
     id="rect47"
     style="fill:#e30613" />
  <rect
     class="cls-5"
     x="66.5"
     y="67.730003"
     width="24.76"
     height="2.75"
     id="rect49"
     style="fill:#e30613" />
  <rect
     class="cls-5"
     x="93.119995"
     y="67.730003"
     width="24.76"
     height="2.75"
     id="rect51"
     style="fill:#e30613" />
  <rect
     class="cls-5"
     x="66.5"
     y="75.670006"
     width="24.76"
     height="2.75"
     id="rect53"
     style="fill:#e30613" />
  <rect
     class="cls-5"
     x="93.119995"
     y="75.670006"
     width="24.76"
     height="2.75"
     id="rect55"
     style="fill:#e30613" />
  <rect
     class="cls-5"
     x="66.5"
     y="83.610001"
     width="24.76"
     height="2.75"
     id="rect57"
     style="fill:#e30613" />
  <rect
     class="cls-5"
     x="93.119995"
     y="83.610001"
     width="24.76"
     height="2.75"
     id="rect59"
     style="fill:#e30613" />
  <rect
     class="cls-5"
     x="66.5"
     y="91.559998"
     width="24.76"
     height="2.75"
     id="rect61"
     style="fill:#e30613" />
  <rect
     class="cls-5"
     x="93.119995"
     y="91.559998"
     width="24.76"
     height="2.75"
     id="rect63"
     style="fill:#e30613" />
  <rect
     class="cls-5"
     x="66.5"
     y="99.5"
     width="24.76"
     height="2.75"
     id="rect65"
     style="fill:#e30613" />
  <rect
     class="cls-5"
     x="93.119995"
     y="99.5"
     width="24.76"
     height="2.75"
     id="rect67"
     style="fill:#e30613" />
  <path
     class="cls-6"
     d="m 64.57,59.97 c -4.38,-1.07 -5.53,3.8 -5.53,3.8 l -4.65,17.52 c 0,0 -2.58,1.48 -4.61,0.83 -0.39,-0.12 -0.28,-0.87 0.13,-2 v -12.4 c -3.86,3.31 -9.33,8 -10.14,10.25 -0.66,1.81 -0.89,5.51 -1,10.35 -0.1,3.66 -0.15,8 -0.27,12.61 a 17.35,17.35 0 0 1 -2.34,7.13 l 12.74,11.92 a 4.92,4.92 0 0 0 4.94,1.06 c 6.64,-4.83 5,-6.94 6.94,-10.51 2,-3.74 5.6,-13.22 4.89,-22.42 -0.71,-9 0.08,-6.73 1.58,-16.73 0,-0.26 0.08,-0.52 0.12,-0.8 1.55,-10.92 -2.8,-10.61 -2.8,-10.61 z"
     id="path69"
     inkscape:connector-curvature="0"
     style="fill:#f2c6a5" />
</svg>
