<?xml version="1.0" encoding="UTF-8" standalone="no"?>
<svg
   xmlns:dc="http://purl.org/dc/elements/1.1/"
   xmlns:cc="http://creativecommons.org/ns#"
   xmlns:rdf="http://www.w3.org/1999/02/22-rdf-syntax-ns#"
   xmlns:svg="http://www.w3.org/2000/svg"
   xmlns="http://www.w3.org/2000/svg"
   xmlns:sodipodi="http://sodipodi.sourceforge.net/DTD/sodipodi-0.dtd"
   xmlns:inkscape="http://www.inkscape.org/namespaces/inkscape"
   id="Camada_1"
   data-name="Camada 1"
   viewBox="0 0 169.15 146.47999"
   version="1.1"
   sodipodi:docname="desafio.svg"
   width="169.14999"
   height="146.48"
   inkscape:version="0.92.3 (2405546, 2018-03-11)">
  <metadata
     id="metadata54">
    <rdf:RDF>
      <cc:Work
         rdf:about="">
        <dc:format>image/svg+xml</dc:format>
        <dc:type
           rdf:resource="http://purl.org/dc/dcmitype/StillImage" />
      </cc:Work>
    </rdf:RDF>
  </metadata>
  <sodipodi:namedview
     pagecolor="#ffffff"
     bordercolor="#666666"
     borderopacity="1"
     objecttolerance="10"
     gridtolerance="10"
     guidetolerance="10"
     inkscape:pageopacity="0"
     inkscape:pageshadow="2"
     inkscape:window-width="815"
     inkscape:window-height="480"
     id="namedview52"
     showgrid="false"
     inkscape:zoom="1.2011274"
     inkscape:cx="-2.8478787"
     inkscape:cy="73.239998"
     inkscape:window-x="0"
     inkscape:window-y="0"
     inkscape:window-maximized="0"
     inkscape:current-layer="Camada_1" />
  <defs
     id="defs19">
    <style
       id="style2">.cls-1{fill:#29235c;}.cls-2{fill:url(#radial-gradient);}.cls-3{fill:#e7e787;}.cls-4{fill:#c0c54b;}.cls-5{fill:#96a024;}.cls-6{fill:#a8b51a;}.cls-7{fill:#ddcd9e;}.cls-8{fill:#e94e2d;}.cls-9{fill:#f2b715;}</style>
    <radialGradient
       id="radial-gradient"
       cx="-6481.9502"
       cy="118.58"
       r="93.580002"
       gradientTransform="matrix(-1,0,0,1,-6351.16,0)"
       gradientUnits="userSpaceOnUse">
      <stop
         offset="0"
         stop-color="#fff"
         id="stop4" />
      <stop
         offset="0.15"
         stop-color="#f8f8f8"
         id="stop6" />
      <stop
         offset="0.39"
         stop-color="#f2f2f2"
         id="stop8" />
      <stop
         offset="0.5"
         stop-color="#ededed"
         id="stop10" />
      <stop
         offset="0.63"
         stop-color="#e0dfde"
         id="stop12" />
      <stop
         offset="0.77"
         stop-color="#cac7c6"
         id="stop14" />
      <stop
         offset="0.81"
         stop-color="#c2bfbd"
         id="stop16" />
    </radialGradient>
  </defs>
  <title
     id="title21">DESAFIO</title>
  <polygon
     class="cls-1"
     points="215.37,118.58 173.08,191.82 88.5,191.82 46.22,118.58 88.5,45.34 173.08,45.34 "
     id="polygon23"
     style="fill:#29235c"
     transform="translate(-46.22,-45.34)" />
  <polygon
     class="cls-2"
     points="208.55,118.58 169.67,185.93 91.91,185.93 53.03,118.58 91.91,51.23 169.67,51.23 "
     id="polygon25"
     style="fill:url(#radial-gradient)"
     transform="translate(-46.22,-45.34)" />
  <path
     class="cls-3"
     d="M 76.78,53.44 V 65.08 A 2.21,2.21 0 0 1 74.56,67.3 H 65.68 A 2.21,2.21 0 0 1 63.46,65.08 V 53.44 Z"
     id="path27"
     inkscape:connector-curvature="0"
     style="fill:#e7e787" />
  <path
     class="cls-4"
     d="M 76.78,41.8 V 53.44 H 63.46 V 41.8 a 2.21,2.21 0 0 1 2.22,-2.22 h 8.85 a 2.21,2.21 0 0 1 2.25,2.22 z"
     id="path29"
     inkscape:connector-curvature="0"
     style="fill:#c0c54b" />
  <path
     class="cls-5"
     d="M 71.92,40.12 V 53.59 H 29.57 V 40.12 c 0,-1.19 0.66,-2.15 1.49,-2.15 h 39.37 c 0.82,0 1.49,0.96 1.49,2.15 z"
     id="path31"
     inkscape:connector-curvature="0"
     style="fill:#96a024" />
  <path
     class="cls-6"
     d="m 71.92,67.05 c 0,1.19 -0.67,2.16 -1.49,2.16 H 31.06 c -0.83,0 -1.49,-1 -1.49,-2.16 V 53.59 h 42.35 z"
     id="path33"
     inkscape:connector-curvature="0"
     style="fill:#a8b51a" />
  <path
     class="cls-3"
     d="m 66.71,62.56 a 2.16,2.16 0 1 0 2.16,2.15 2.15,2.15 0 0 0 -2.16,-2.15 z"
     id="path35"
     inkscape:connector-curvature="0"
     style="fill:#e7e787" />
  <path
     class="cls-3"
     d="m 55.02,62.56 a 2.16,2.16 0 1 0 2.15,2.15 2.16,2.16 0 0 0 -2.15,-2.15 z"
     id="path37"
     inkscape:connector-curvature="0"
     style="fill:#e7e787" />
  <path
     class="cls-3"
     d="m 60.87,62.56 a 2.16,2.16 0 1 0 2.15,2.15 2.16,2.16 0 0 0 -2.15,-2.15 z"
     id="path39"
     inkscape:connector-curvature="0"
     style="fill:#e7e787" />
  <path
     class="cls-7"
     d="m 122.6,35.66 c 3.89,0.47 2.53,7.54 -1.18,6.89 -3.83,-0.35 -8.14,-1.65 -11.32,1.24 4.6,0 10,-2.42 14,1 2.54,2.19 5.43,4 7.67,6.43 0.8,1.81 -0.35,4 -2,5 a 3.28,3.28 0 0 1 -4.1,-0.09 c -1.63,-1.24 -3.19,-2.53 -4.75,-3.8 l -0.64,-0.52 -1.16,-0.93 -1.66,0.23 -0.91,0.11 c -0.89,0.12 -1.77,0.22 -2.68,0.31 3.19,1.54 7.55,1.42 9.85,4.31 0.09,0.91 0.14,1.83 0.17,2.74 v 0.36 c 0,2.52 -0.1,5.05 -0.15,7.57 0,0.51 0,1 0,1.53 0.29,4.54 -7.78,4.19 -7.9,0 0,-1.14 0,-2.28 0,-3.43 0,-1.15 0.07,-2.57 0,-3.88 l -3.89,-1.24 c 1.31,1.52 4,2.91 3.8,5.1 a 3.26,3.26 0 0 1 -0.21,0.86 c -2.06,3.53 -1.56,8.36 -4,11.73 -1,1.59 -2.85,1.5 -4.28,0.62 -1.43,-0.88 -2.64,-2.78 -2,-4.46 a 11.87,11.87 0 0 0 0.86,-7.83 29.61,29.61 0 0 0 -9.61,-6.14 4.09,4.09 0 0 0 -1.87,0.26 c -2.78,1.06 -6.7,4.85 -4.78,7.4 1.56,2.43 3.75,3.26 6,4.19 a 3.92,3.92 0 0 1 1.67,1.2 4.06,4.06 0 0 1 -1.3,5.47 3.42,3.42 0 0 1 -3.42,0.25 c -0.7,0 -4.21,-2 -5.31,-2.59 -4.15,-2.26 -4.72,-5.91 -7.53,-9.69 -0.13,-0.23 -0.26,-0.45 -0.38,-0.69 l -0.31,-0.32 -0.8,-0.37 a 1.51,1.51 0 0 1 -0.76,-1.17 0.76,0.76 0 0 1 0,-0.15 V 45.78 a 4.5,4.5 0 0 1 2.12,-3.83 18.1,18.1 0 0 1 2.84,-0.69 42.52,42.52 0 0 1 4.43,-0.43 h 1.19 c 6.39,-1.6 13.47,-1 19.5,-4.21 4.48,-2.96 9.85,-1.32 14.8,-0.96 z"
     id="path41"
     inkscape:connector-curvature="0"
     style="fill:#ddcd9e" />
  <rect
     class="cls-8"
     x="90.580002"
     y="109.18001"
     width="24.01"
     height="2.1099999"
     id="rect43"
     style="fill:#e94e2d" />
  <rect
     class="cls-9"
     x="91.139999"
     y="111.85001"
     width="22.889999"
     height="6.5900002"
     id="rect45"
     style="fill:#f2b715" />
  <rect
     class="cls-8"
     x="90.580002"
     y="118.90001"
     width="24.01"
     height="2.1099999"
     id="rect47"
     style="fill:#e94e2d" />
  <path
     class="cls-9"
     d="m 90.96,84.13 a 10.47,10.47 0 0 1 8.64,-7.14 v 0 c 0,0 4.42,-1.77 7.21,0.64 2.79,2.41 1.1,2.9 1.1,2.9 0,0 6.3,4 7.39,6.8 0,0 1,2.24 -0.93,2.68 l -2.13,-0.82 1.53,1.21 c 0,0 -0.73,1.91 -2,1.15 -1.27,-0.76 -3.82,-1.43 -5.41,-0.77 a 8.88,8.88 0 0 1 -1.54,0.16 h -0.31 a 5,5 0 0 1 -0.79,-0.11 3.94,3.94 0 0 1 -0.51,-0.14 l -0.26,-0.11 -0.27,-0.13 a 4.3,4.3 0 0 1 -0.52,-0.35 3.22,3.22 0 0 1 -0.48,-0.43 6.08,6.08 0 0 1 -0.78,-1 8.9,8.9 0 0 1 -0.52,-1 c -0.13,-0.3 -0.24,-0.56 -0.3,-0.75 l -0.1,-0.29 c 0,0 0,0.11 0.05,0.31 a 6.06,6.06 0 0 0 0.2,0.79 7.51,7.51 0 0 0 0.45,1.07 4.83,4.83 0 0 0 0.36,0.56 c 0.13,0.18 0.28,0.36 0.43,0.53 a 5.4,5.4 0 0 0 0.52,0.45 3.8,3.8 0 0 0 0.57,0.35 l 0.3,0.12 0.29,0.1 c 0.19,0 0.37,0.08 0.54,0.1 v 0 a 12.23,12.23 0 0 0 4.64,6.85 10.39,10.39 0 0 1 4.13,10.63 H 92.72 c 0,0 -4.48,-16.21 -1.76,-24.36 z m 16.82,-1.89 -2.71,-1.65 c 0,0 1.07,2.97 2.71,1.65 z m -15.32,6.51 0.21,-0.66 c 0,-0.12 0.08,-0.26 0.12,-0.4 0.04,-0.14 0.11,-0.28 0.17,-0.44 0.06,-0.16 0.24,-0.63 0.36,-1 0.12,-0.37 0.32,-0.69 0.48,-1.06 l 0.12,-0.27 0.15,-0.27 c 0.1,-0.18 0.21,-0.36 0.3,-0.54 l 0.15,-0.28 0.18,-0.26 0.35,-0.52 a 4.82,4.82 0 0 1 0.38,-0.51 l 0.39,-0.48 0.43,-0.44 0.2,-0.22 0.23,-0.2 0.44,-0.38 0.44,-0.33 a 9.48,9.48 0 0 1 0.87,-0.56 8.31,8.31 0 0 1 0.78,-0.4 c 0.23,-0.12 0.45,-0.19 0.62,-0.27 l 0.43,-0.14 h 0.15 a 3.52,3.52 0 0 0 -0.61,0 6.06,6.06 0 0 0 -0.7,0.12 c -0.13,0 -0.28,0.06 -0.42,0.11 l -0.46,0.16 a 4,4 0 0 0 -0.49,0.21 3.33,3.33 0 0 0 -0.5,0.25 l -0.52,0.31 c -0.17,0.11 -0.34,0.24 -0.51,0.37 l -0.25,0.2 -0.25,0.22 -0.48,0.45 -0.44,0.52 a 5.43,5.43 0 0 0 -0.42,0.53 l -0.37,0.57 -0.19,0.29 -0.15,0.3 -0.29,0.59 a 2.59,2.59 0 0 1 -0.14,0.29 c 0,0.1 -0.07,0.2 -0.11,0.3 -0.14,0.4 -0.28,0.78 -0.39,1.15 -0.11,0.37 -0.16,0.73 -0.23,1.06 0,0.16 -0.07,0.31 -0.1,0.46 -0.03,0.15 0,0.3 0,0.43 0,0.13 0,0.51 -0.06,0.7 0,0.39 0,0.61 0,0.61 0,0 0.05,-0.2 0.17,-0.57 z"
     id="path49"
     inkscape:connector-curvature="0"
     style="fill:#f2b715" />
</svg>
