<?xml version="1.0" encoding="UTF-8" standalone="no"?>
<svg
   xmlns:dc="http://purl.org/dc/elements/1.1/"
   xmlns:cc="http://creativecommons.org/ns#"
   xmlns:rdf="http://www.w3.org/1999/02/22-rdf-syntax-ns#"
   xmlns:svg="http://www.w3.org/2000/svg"
   xmlns="http://www.w3.org/2000/svg"
   xmlns:sodipodi="http://sodipodi.sourceforge.net/DTD/sodipodi-0.dtd"
   xmlns:inkscape="http://www.inkscape.org/namespaces/inkscape"
   id="Camada_1"
   data-name="Camada 1"
   viewBox="0 0 169.15 146.47999"
   version="1.1"
   sodipodi:docname="dica.svg"
   width="169.14999"
   height="146.48"
   inkscape:version="0.92.3 (2405546, 2018-03-11)">
  <metadata
     id="metadata40">
    <rdf:RDF>
      <cc:Work
         rdf:about="">
        <dc:format>image/svg+xml</dc:format>
        <dc:type
           rdf:resource="http://purl.org/dc/dcmitype/StillImage" />
      </cc:Work>
    </rdf:RDF>
  </metadata>
  <sodipodi:namedview
     pagecolor="#ffffff"
     bordercolor="#666666"
     borderopacity="1"
     objecttolerance="10"
     gridtolerance="10"
     guidetolerance="10"
     inkscape:pageopacity="0"
     inkscape:pageshadow="2"
     inkscape:window-width="1920"
     inkscape:window-height="1006"
     id="namedview38"
     showgrid="false"
     inkscape:zoom="3.9177397"
     inkscape:cx="-2.8478787"
     inkscape:cy="73.239998"
     inkscape:window-x="0"
     inkscape:window-y="0"
     inkscape:window-maximized="1"
     inkscape:current-layer="Camada_1" />
  <defs
     id="defs19">
    <style
       id="style2">.cls-1{fill:#29235c;}.cls-2{fill:url(#radial-gradient);}.cls-3{fill:#385d63;}.cls-3,.cls-4,.cls-5{fill-rule:evenodd;}.cls-4{fill:#c1e4ef;}.cls-5{fill:#f3b303;}.cls-6{fill:#fff;}</style>
    <radialGradient
       id="radial-gradient"
       cx="130.78999"
       cy="118.58"
       r="93.580002"
       gradientUnits="userSpaceOnUse">
      <stop
         offset="0"
         stop-color="#fff"
         id="stop4" />
      <stop
         offset="0.15"
         stop-color="#f8f8f8"
         id="stop6" />
      <stop
         offset="0.39"
         stop-color="#f2f2f2"
         id="stop8" />
      <stop
         offset="0.5"
         stop-color="#ededed"
         id="stop10" />
      <stop
         offset="0.63"
         stop-color="#e0dfde"
         id="stop12" />
      <stop
         offset="0.77"
         stop-color="#cac7c6"
         id="stop14" />
      <stop
         offset="0.81"
         stop-color="#c2bfbd"
         id="stop16" />
    </radialGradient>
  </defs>
  <title
     id="title21">DICA</title>
  <polygon
     class="cls-1"
     points="46.22,118.58 88.5,191.82 173.08,191.82 215.37,118.58 173.08,45.34 88.5,45.34 "
     id="polygon23"
     style="fill:#29235c"
     transform="translate(-46.22,-45.34)" />
  <polygon
     class="cls-2"
     points="53.03,118.58 91.91,185.93 169.67,185.93 208.55,118.58 169.67,51.23 91.91,51.23 "
     id="polygon25"
     style="fill:url(#radial-gradient)"
     transform="translate(-46.22,-45.34)" />
  <path
     class="cls-3"
     d="m 90.67,122.12 a 9.58,9.58 0 0 1 -18.35,0 z"
     id="path27"
     inkscape:connector-curvature="0"
     style="fill:#385d63;fill-rule:evenodd" />
  <path
     class="cls-4"
     d="m 96.78,114.11 a 4.26,4.26 0 0 1 -0.54,6 H 66.78 a 4.27,4.27 0 0 1 -1.53,-3.27 4.22,4.22 0 0 1 1,-2.71 z"
     id="path29"
     inkscape:connector-curvature="0"
     style="fill:#c1e4ef;fill-rule:evenodd" />
  <path
     class="cls-4"
     d="m 96.08,105.76 a 4.25,4.25 0 0 1 0.53,6.31 H 66.37 a 4.24,4.24 0 0 1 0.54,-6.31 z"
     id="path31"
     inkscape:connector-curvature="0"
     style="fill:#c1e4ef;fill-rule:evenodd" />
  <path
     class="cls-5"
     d="m 106.37,81.29 c -3.93,5.77 -8,11.72 -8.23,19.78 a 4.25,4.25 0 0 1 -1,2.66 H 65.92 a 4.21,4.21 0 0 1 -1,-2.67 C 64.68,93 60.61,87.06 56.68,81.29 51.96,74.37 47.09,67.23 47.09,54.64 c 0,-18 15.45,-32.74 34.45,-32.74 19,0 34.41,14.69 34.41,32.76 0,12.59 -4.87,19.74 -9.58,26.65 z"
     id="path33"
     inkscape:connector-curvature="0"
     style="fill:#f3b303;fill-rule:evenodd" />
  <path
     class="cls-6"
     d="m 85.16,70.8 h -9 c 0,-1.3 0,-2.08 0,-2.36 a 15.56,15.56 0 0 1 1.45,-7.17 21.86,21.86 0 0 1 5.76,-6.33 41.22,41.22 0 0 0 5.18,-4.61 6.11,6.11 0 0 0 1.31,-3.8 6.33,6.33 0 0 0 -2.31,-4.9 9.07,9.07 0 0 0 -6.23,-2 9.47,9.47 0 0 0 -6.31,2.15 11.46,11.46 0 0 0 -3.49,6.55 l -9.06,-1.15 a 15.06,15.06 0 0 1 5.32,-10.75 q 5,-4.41 13.07,-4.4 8.53,0 13.56,4.45 5.03,4.45 5,10.34 a 11.33,11.33 0 0 1 -1.85,6.19 q -1.84,2.91 -7.9,7.94 a 14.77,14.77 0 0 0 -3.88,4.19 c -0.51,1 -0.73,2.94 -0.69,5.66 z m -9,13.23 v -9.85 h 9 v 9.85 z"
     id="path35"
     inkscape:connector-curvature="0"
     style="fill:#ffffff" />
</svg>
