<?xml version="1.0" encoding="UTF-8" standalone="no"?>
<svg
   xmlns:dc="http://purl.org/dc/elements/1.1/"
   xmlns:cc="http://creativecommons.org/ns#"
   xmlns:rdf="http://www.w3.org/1999/02/22-rdf-syntax-ns#"
   xmlns:svg="http://www.w3.org/2000/svg"
   xmlns="http://www.w3.org/2000/svg"
   xmlns:sodipodi="http://sodipodi.sourceforge.net/DTD/sodipodi-0.dtd"
   xmlns:inkscape="http://www.inkscape.org/namespaces/inkscape"
   id="Camada_1"
   data-name="Camada 1"
   viewBox="0 0 169.15 146.47999"
   version="1.1"
   sodipodi:docname="infografico.svg"
   width="169.14999"
   height="146.48"
   inkscape:version="0.92.3 (2405546, 2018-03-11)">
  <metadata
     id="metadata58">
    <rdf:RDF>
      <cc:Work
         rdf:about="">
        <dc:format>image/svg+xml</dc:format>
        <dc:type
           rdf:resource="http://purl.org/dc/dcmitype/StillImage" />
      </cc:Work>
    </rdf:RDF>
  </metadata>
  <sodipodi:namedview
     pagecolor="#ffffff"
     bordercolor="#666666"
     borderopacity="1"
     objecttolerance="10"
     gridtolerance="10"
     guidetolerance="10"
     inkscape:pageopacity="0"
     inkscape:pageshadow="2"
     inkscape:window-width="815"
     inkscape:window-height="480"
     id="namedview56"
     showgrid="false"
     inkscape:zoom="1.2011274"
     inkscape:cx="-2.8478787"
     inkscape:cy="73.239998"
     inkscape:window-x="0"
     inkscape:window-y="0"
     inkscape:window-maximized="0"
     inkscape:current-layer="Camada_1" />
  <defs
     id="defs21">
    <style
       id="style2">.cls-1{fill:#29235c;}.cls-2{fill:url(#Gradiente_sem_nome_191);}.cls-3{fill:#0e6c92;}.cls-4{fill:#105a79;}.cls-5{fill:#26aade;}.cls-6{fill:#1e8eb9;}.cls-7{fill:#3081a1;}.cls-8{fill:#e94a2c;}.cls-9{fill:#d43a19;}.cls-10{fill:#fcbd24;}.cls-11{fill:#d39e19;}.cls-12{font-size:6.65px;fill:#343844;font-family:OpenSans, Open Sans;}</style>
    <radialGradient
       id="Gradiente_sem_nome_191"
       cx="130.78999"
       cy="118.58"
       r="93.580002"
       gradientUnits="userSpaceOnUse">
      <stop
         offset="0"
         stop-color="#fff"
         id="stop4" />
      <stop
         offset="0.22"
         stop-color="#fbfbfb"
         id="stop6" />
      <stop
         offset="0.39"
         stop-color="#f2f2f2"
         id="stop8" />
      <stop
         offset="0.61"
         stop-color="#f0f0f0"
         id="stop10" />
      <stop
         offset="0.68"
         stop-color="#eaeae9"
         id="stop12" />
      <stop
         offset="0.74"
         stop-color="#dfdede"
         id="stop14" />
      <stop
         offset="0.78"
         stop-color="#d0cecd"
         id="stop16" />
      <stop
         offset="0.81"
         stop-color="#c2bfbd"
         id="stop18" />
    </radialGradient>
  </defs>
  <title
     id="title23">INFOGRAFICO</title>
  <polygon
     class="cls-1"
     points="46.22,118.58 88.5,191.82 173.08,191.82 215.37,118.58 173.08,45.34 88.5,45.34 "
     id="polygon25"
     style="fill:#29235c"
     transform="translate(-46.22,-45.34)" />
  <polygon
     class="cls-2"
     points="53.03,118.58 91.91,185.93 169.67,185.93 208.55,118.58 169.67,51.23 91.91,51.23 "
     id="polygon27"
     style="fill:url(#Gradiente_sem_nome_191)"
     transform="translate(-46.22,-45.34)" />
  <polygon
     class="cls-3"
     points="95.58,103.31 125.43,120.54 125.43,99.82 95.58,82.59 "
     id="polygon29"
     style="fill:#0e6c92"
     transform="translate(-46.22,-45.34)" />
  <polygon
     class="cls-4"
     points="125.43,120.54 155.27,103.31 155.27,82.59 125.43,99.82 "
     id="polygon31"
     style="fill:#105a79"
     transform="translate(-46.22,-45.34)" />
  <polygon
     class="cls-5"
     points="95.58,112.97 125.43,130.2 125.43,120.54 95.58,103.31 "
     id="polygon33"
     style="fill:#26aade"
     transform="translate(-46.22,-45.34)" />
  <polygon
     class="cls-6"
     points="125.43,130.2 155.27,112.97 155.27,103.31 125.43,120.54 "
     id="polygon35"
     style="fill:#1e8eb9"
     transform="translate(-46.22,-45.34)" />
  <polygon
     class="cls-7"
     points="95.58,82.59 125.43,99.82 155.27,82.59 125.43,65.35 "
     id="polygon37"
     style="fill:#3081a1"
     transform="translate(-46.22,-45.34)" />
  <polygon
     class="cls-8"
     points="95.58,154.57 125.43,171.81 125.43,153.31 95.58,136.08 "
     id="polygon39"
     style="fill:#e94a2c"
     transform="translate(-46.22,-45.34)" />
  <polygon
     class="cls-9"
     points="125.43,171.81 155.27,154.57 155.27,136.08 125.43,153.31 "
     id="polygon41"
     style="fill:#d43a19"
     transform="translate(-46.22,-45.34)" />
  <polygon
     class="cls-10"
     points="95.58,136.16 125.43,153.39 125.43,130.2 95.58,112.97 "
     id="polygon43"
     style="fill:#fcbd24"
     transform="translate(-46.22,-45.34)" />
  <polygon
     class="cls-11"
     points="125.43,153.39 155.27,136.16 155.27,112.97 125.43,130.2 "
     id="polygon45"
     style="fill:#d39e19"
     transform="translate(-46.22,-45.34)" />
  <text
     class="cls-12"
     transform="matrix(0.93273791,-0.53605627,0,1.0721125,0,0)"
     id="text47"
     style="font-size:6.20270729px;font-family:OpenSans, 'Open Sans';fill:#343844;stroke-width:0.93273789"
     x="124.21496"
     y="155.25069">70%</text>
  <text
     class="cls-12"
     transform="matrix(0.93273791,-0.53605627,0,1.0721125,0,0)"
     id="text49"
     style="font-size:6.20270729px;font-family:OpenSans, 'Open Sans';fill:#343844;stroke-width:0.93273789"
     x="124.21496"
     y="136.61458">90%</text>
  <text
     class="cls-12"
     transform="matrix(0.93273791,-0.53605627,0,1.0721125,0,0)"
     id="text51"
     style="font-size:6.20270729px;font-family:OpenSans, 'Open Sans';fill:#343844;stroke-width:0.93273789"
     x="124.21496"
     y="120.17974">30%</text>
  <text
     class="cls-12"
     transform="matrix(0.93273791,-0.53605627,0,1.0721125,0,0)"
     id="text53"
     style="font-size:6.20270729px;font-family:OpenSans, 'Open Sans';fill:#343844;stroke-width:0.93273789"
     x="124.21496"
     y="105.73163">80%</text>
</svg>
