<svg id="Layer_1" data-name="Layer 1" xmlns="http://www.w3.org/2000/svg" xmlns:xlink="http://www.w3.org/1999/xlink" viewBox="0 0 410.49 192.21"><defs><style>.cls-1{fill:url(#linear-gradient);}.cls-2{fill:#fff;}.cls-3{fill:#fa452f;}.cls-10,.cls-4,.cls-8,.cls-9{fill:#273b81;}.cls-5{fill:#ee2325;}.cls-6{fill:#262261;}.cls-10,.cls-7,.cls-8,.cls-9{isolation:isolate;}.cls-10,.cls-8,.cls-9{font-size:30.87618px;font-family:DIN-MediumAlternate, DIN Alternate;}.cls-9{letter-spacing:-0.00999em;}.cls-10{letter-spacing:-0.05902em;}</style><linearGradient id="linear-gradient" x1="7.3967" y1="-36.24007" x2="402.66306" y2="-36.06682" gradientTransform="matrix(1, 0.09, 0.09, -1, 3.25835, 38.10311)" gradientUnits="userSpaceOnUse"><stop offset="0" stop-color="#273b81"/><stop offset="0.14" stop-color="#1e4b9f"/><stop offset="0.51" stop-color="#00adee"/><stop offset="0.51" stop-color="#fc4830"/><stop offset="1" stop-color="#ec1c24"/></linearGradient></defs><title>logo ead2</title><g id="Layer_2" data-name="Layer 2"><g id="Camada_1" data-name="Camada 1"><path class="cls-1" d="M405.11537,58.15186c-2.33509-16.53408-15.4268-30.43175-36.15654-40.85689-.40677.49715-.821.98677-1.24288,1.50652l-.16572.19585c17.86736,9.19732,29.03068,21.18924,31.04192,35.40328,6.13156,43.40292-75.748,90.85839-182.87679,105.99141-1.18262.17325-2.36525.3239-3.54034.48209a13.26493,13.26493,0,0,0-22.59784,2.49329c-95.54366,8.24068-173.3179-14.312-178.94476-54.1595C8.13911,91.672,19.96532,73.53346,41.953,57.11237c-.40676-.52729-.806-1.06963-1.17509-1.627C15.98057,73.88,2.54238,94.57959,5.37465,114.62388c6.13154,43.38031,86.29361,68.62964,184.549,60.57727a13.28,13.28,0,0,0,24.481-2.65148l3.013-.40676C327.74037,156.55039,411.80434,105.50941,405.11537,58.15186Z"/><circle class="cls-2" cx="201.69715" cy="168.67037" r="11.75841" transform="translate(2.89645 340.7451) rotate(-80.78253)"/><path class="cls-3" d="M210.50465,162.7648a19.38164,19.38164,0,0,0-3.691-.29377,1.69478,1.69478,0,0,0-.82859-1.047c.21845-.96418.39169-1.74758.49716-2.25979a10.73417,10.73417,0,0,1,4.02241,3.58552Z"/><path class="cls-3" d="M206.02087,173.88294a24.75194,24.75194,0,0,1-3.352-.29377,1.77019,1.77019,0,0,0-.31636-1.09976,25.42257,25.42257,0,0,0,2.35771-5.37829c.20337-.79093.39923-1.58938.58754-2.35771a15.06431,15.06431,0,0,1,.70807,1.39354,13.61914,13.61914,0,0,1,1.09224,6.576,1.71745,1.71745,0,0,0-1.05456,1.18262Z"/><path class="cls-3" d="M201.087,172.21317a1.73251,1.73251,0,0,0-1.725.99432,12.88842,12.88842,0,0,1-4.21827-2.83226,1.71738,1.71738,0,0,0,.31637-.84365,1.77019,1.77019,0,0,0-.21091-.99431,20.037,20.037,0,0,1,3.88682-2.72681,15.40434,15.40434,0,0,1,4.51957-1.59691,1.72491,1.72491,0,0,0,.693.70053c-.18078.75326-.38417,1.58186-.58755,2.38784a24.21674,24.21674,0,0,1-2.21459,5.03178,1.582,1.582,0,0,0-.467-.12053Z"/><path class="cls-3" d="M202.63119,158.04939a10.8019,10.8019,0,0,1,3.013.75326c-.09793.467-.28625,1.33327-.53481,2.44057a1.65712,1.65712,0,0,0-.92652.3239,14.71112,14.71112,0,0,0-4.18813-3.40475,10.82479,10.82479,0,0,1,2.62887-.08286Z"/><path class="cls-3" d="M198.48825,158.47874a13.55882,13.55882,0,0,1,5.09958,3.8341,1.68719,1.68719,0,0,0-.12807.48208h0a16.57209,16.57209,0,0,0-4.78321,1.70991,21.46111,21.46111,0,0,0-4.10528,2.885,1.8153,1.8153,0,0,0-.70052-.21844,1.7627,1.7627,0,0,0-.86625.15819,17.90412,17.90412,0,0,1-1.32573-2.25978,10.80928,10.80928,0,0,1,6.77935-6.61363Z"/><path class="cls-3" d="M191.46575,167.73633a11.16181,11.16181,0,0,1,.21091-1.31821c.24105.43689.57247.97924.97924,1.56679a1.68725,1.68725,0,0,0-.2787.75326,1.7174,1.7174,0,0,0,.29377,1.12989,13.55867,13.55867,0,0,0-.919,1.37847,10.68867,10.68867,0,0,1-.28624-3.54787Z"/><path class="cls-3" d="M191.80683,172.56474a11.44882,11.44882,0,0,1,1.24288-2.04135,1.695,1.695,0,0,0,.54987.14313,1.612,1.612,0,0,0,.806-.12806,13.67167,13.67167,0,0,0,4.8284,3.20136,1.74,1.74,0,0,0,.62519,1.11483c-1.02442,1.65717-1.93588,3.013-2.33511,3.60058A10.71889,10.71889,0,0,1,191.80683,172.56474Z"/><path class="cls-3" d="M200.98522,179.83552a10.83909,10.83909,0,0,1-2.35017-.48209c.467-.68547,1.34834-2.00368,2.305-3.57046h.06025a1.71743,1.71743,0,0,0,1.56677-.75326c.68547.113,1.34081.19584,1.95849.24858s1.19014.08285,1.73249.09038a1.77756,1.77756,0,0,0,.58.83612,18.20012,18.20012,0,0,1-.91144,2.85486,10.65118,10.65118,0,0,1-4.94139.75326Z"/><path class="cls-3" d="M206.97,178.16284a18.246,18.246,0,0,0,.55741-1.86808h0a1.73249,1.73249,0,0,0,1.86056-1.41614c.48961-.06779.919-.15819,1.26547-.24105a10.779,10.779,0,0,1-3.70606,3.52526Z"/><path class="cls-3" d="M209.31469,173.67956a1.7174,1.7174,0,0,0-1.258-1.0621,14.64336,14.64336,0,0,0-1.1826-6.90741c-.21846-.47455-.44443-.919-.68548-1.3408a1.725,1.725,0,0,0,.68548-.919,18.01081,18.01081,0,0,1,4.33879.43689,10.65118,10.65118,0,0,1,.12052,9.34044,12.44538,12.44538,0,0,1-2.01873.45949Z"/><path class="cls-4" d="M84.37191,49.00221a21.4302,21.4302,0,0,1-1.75653,8.69264,20.1198,20.1198,0,0,1-4.90772,6.85467,21.57171,21.57171,0,0,1-7.26735,4.34632,25.54463,25.54463,0,0,1-8.74494,1.50652,24.48705,24.48705,0,0,1-11.30812-2.65148A20.23532,20.23532,0,0,1,42.17,60.21827a20.96535,20.96535,0,0,1-3.0155-11.201V10.3825H54.62276V48.67078a9.29146,9.29146,0,0,0,2.04513,6.38765,7.109,7.109,0,0,0,5.646,2.28992,8.09544,8.09544,0,0,0,4.083-1.0169,6.69946,6.69946,0,0,0,2.739-3.013,10.62512,10.62512,0,0,0,.95683-4.69282V10.3825H84.37192Z"/><path class="cls-4" d="M136.70683,69.87907H124.39042L105.79068,39.96888V69.87907H91.51151V10.3825H103.8279l18.62182,29.91019V10.3825H136.7289Z"/><path class="cls-4" d="M158.14767,69.87907H143.86849V10.3825h14.27918Z"/><path class="cls-5" d="M200.98518,18.712H172.42684V36.561h23.79863v8.32952H172.42684V69.87907h-9.51945V10.3825H200.9852Z"/><path class="cls-5" d="M247.88993,69.87907h-9.70461L234.124,57.97976H210.76l-4.06136,11.89931H196.994L218.83452,10.3825h7.2601Zm-16.228-20.22883-9.03914-26.40935-9.235,26.40935Z"/><path class="cls-5" d="M289.19336,52.0301a24.69953,24.69953,0,0,1-2.61927,7.84281,19.91862,19.91862,0,0,1-4.63814,5.7414,19.13057,19.13057,0,0,1-6.30427,3.48236,23.91116,23.91116,0,0,1-7.58763,1.17829,23.26561,23.26561,0,0,1-5.839-.7505,20.90936,20.90936,0,0,1-5.25357-2.17648,21.68214,21.68214,0,0,1-4.50305-3.41482,17.73484,17.73484,0,0,1-3.9852-6.0566,24.60938,24.60938,0,0,1-1.501-6.97973q-.27769-3.75255-.2852-10.79232,0-5.41116.1426-8.58581a41.04889,41.04889,0,0,1,.65294-5.81645,18.68778,18.68778,0,0,1,1.65108-4.90081,18.08705,18.08705,0,0,1,3.31726-4.503,21.23174,21.23174,0,0,1,7.03226-4.69819,22.38019,22.38019,0,0,1,8.5708-1.59858,21.00744,21.00744,0,0,1,13.97446,4.7207q5.62883,4.7207,7.17486,13.50915h-9.1937a13.62171,13.62171,0,0,0-4.1278-7.40752,11.29519,11.29519,0,0,0-7.8278-2.74686,12.88636,12.88636,0,0,0-4.90084.93063,10.64217,10.64217,0,0,0-3.88014,2.64179,11.20494,11.20494,0,0,0-1.83122,2.61177,13.779,13.779,0,0,0-1.05822,3.49737,36.566,36.566,0,0,0-.54788,4.88581q-.14262,2.72434-.1426,7.50509t.1426,7.40752a37.27109,37.27109,0,0,0,.54788,4.89331,13.05818,13.05818,0,0,0,1.05822,3.46735,14.32752,14.32752,0,0,0,1.83124,2.70184,11.17513,11.17513,0,0,0,3.88014,2.61927,12.75861,12.75861,0,0,0,4.90082.95314,12.12819,12.12819,0,0,0,5.65133-1.26085,11.12245,11.12245,0,0,0,4.06776-3.57242,14.89747,14.89747,0,0,0,2.31905-5.32861Z"/><path class="cls-5" d="M331.87765,69.87907h-38.0778V10.3825h38.0778V18.712H302.12937v16.659h24.98856v8.32952H302.12937v17.849h29.74828Z"/><path class="cls-5" d="M376.34857,69.87907h-10.452L353.00477,47.06992l-12.937,22.80915H329.70615l18.404-30.52013L330.8884,10.3825H341.25l11.75473,21.3031,11.75472-21.3031h10.36164l-17.2217,28.97644Z"/><polygon class="cls-6" points="122.45 40.194 137.063 69.79 122.45 32.436 122.45 40.194"/><g class="cls-7"><text class="cls-8" transform="translate(38.14875 105.29098)">EDU</text><text class="cls-9" transform="translate(98.16828 105.29098)">C</text><text class="cls-9" transform="translate(115.52375 105.29098)">A</text><text class="cls-8" transform="translate(134.51301 105.29098)">Ç</text><text class="cls-9" transform="translate(153.03645 105.29098)">Ã</text><text class="cls-8" transform="translate(172.02571 105.29098)">O A DIS</text><text class="cls-10" transform="translate(273.95002 105.29098)">T</text><text class="cls-8" transform="translate(289.38459 105.29098)">ÂNCIA</text></g></g></g></svg>