<svg id="Camada_1" data-name="Camada 1" xmlns="http://www.w3.org/2000/svg" xmlns:xlink="http://www.w3.org/1999/xlink" viewBox="0 0 708.66 314.34"><defs><style>.cls-1{fill:url(#Gradiente_sem_nome_29);}.cls-2{fill:#fff;}.cls-3{fill:#fa452f;}.cls-4{fill:#273b81;}.cls-5{fill:#ee2325;}.cls-6{fill:#262261;}</style><linearGradient id="Gradiente_sem_nome_29" x1="66.82" y1="308.04" x2="591.56" y2="307.81" gradientTransform="matrix(1, 0.09, -0.09, 1, 52.64, -171.77)" gradientUnits="userSpaceOnUse"><stop offset="0" stop-color="#273b81"/><stop offset="0.14" stop-color="#1e4b9f"/><stop offset="0.51" stop-color="#00adee"/><stop offset="0.51" stop-color="#fc4830"/><stop offset="1" stop-color="#ec1c24"/></linearGradient></defs><title>EAD UNIFACEX</title><path class="cls-1" d="M619.67,117.86c-3.1-22-20.48-40.4-48-54.25-.55.66-1.1,1.32-1.66,2l-.21.27c23.71,12.21,38.54,28.13,41.2,47,8.14,57.62-100.56,120.62-242.78,140.71l-4.7.64a17.59,17.59,0,0,0-30,3.31c-126.84,10.94-230.09-19-237.56-71.9-3.28-23.21,12.42-47.29,41.62-69.09-.55-.7-1.08-1.42-1.57-2.16-32.92,24.42-50.76,51.9-47,78.51,8.13,57.59,114.55,91.1,245,80.42a17.63,17.63,0,0,0,32.45-3.53c1.33-.17,2.65-.35,4-.54C517,248.48,628.55,180.73,619.67,117.86Z"/><circle class="cls-2" cx="349.62" cy="264.57" r="15.61"/><path class="cls-3" d="M361.39,256.74a25.69,25.69,0,0,0-4.89-.39,2.32,2.32,0,0,0-1.11-1.4c.29-1.28.52-2.32.66-3a14.28,14.28,0,0,1,5.34,4.77Z"/><path class="cls-3" d="M355.36,271.5a34.71,34.71,0,0,1-4.45-.39,2.26,2.26,0,0,0-.45-1.49,33.24,33.24,0,0,0,3.13-7.14c.27-1.05.54-2.11.78-3.13.33.58.65,1.19.95,1.84a18.1,18.1,0,0,1,1.44,8.73,2.34,2.34,0,0,0-1.4,1.58Z"/><path class="cls-3" d="M348.81,268.69a2.31,2.31,0,0,0-2.29,1.32,17,17,0,0,1-5.59-3.77,2.23,2.23,0,0,0,.41-1.11,2.32,2.32,0,0,0-.28-1.33,26.9,26.9,0,0,1,5.16-3.61,20.49,20.49,0,0,1,6-2.13,2.31,2.31,0,0,0,.92.94c-.24,1-.51,2.1-.78,3.17a32.31,32.31,0,0,1-2.93,6.67,2.23,2.23,0,0,0-.63-.15Z"/><path class="cls-3" d="M350.86,250.48a13.68,13.68,0,0,1,4,1c-.13.62-.38,1.77-.71,3.23a2.31,2.31,0,0,0-1.23.43,19.64,19.64,0,0,0-5.56-4.51,14.39,14.39,0,0,1,3.49-.11Z"/><path class="cls-3" d="M345.37,251.05a17.92,17.92,0,0,1,6.76,5.09,2.24,2.24,0,0,0-.16.63v0a22.18,22.18,0,0,0-6.36,2.27,27.93,27.93,0,0,0-5.45,3.83,2.23,2.23,0,0,0-2.08-.08,23.77,23.77,0,0,1-1.76-3,14.32,14.32,0,0,1,9.05-8.78Z"/><path class="cls-3" d="M335.53,263.33a13.23,13.23,0,0,1,.27-1.75c.33.59.76,1.31,1.3,2.09a2.24,2.24,0,0,0-.37,1.05,2.31,2.31,0,0,0,.39,1.49,18.9,18.9,0,0,0-1.21,1.83,13.91,13.91,0,0,1-.38-4.71Z"/><path class="cls-3" d="M336.46,269.74A15.66,15.66,0,0,1,338.1,267a2.26,2.26,0,0,0,.73.2,2.43,2.43,0,0,0,1.08-.17,18.19,18.19,0,0,0,6.41,4.25,2.34,2.34,0,0,0,.82,1.48c-1.36,2.19-2.57,4-3.1,4.78a14.19,14.19,0,0,1-7.58-7.83Z"/><path class="cls-3" d="M348.38,278.67a14.52,14.52,0,0,1-3.12-.64c.62-.92,1.79-2.67,3.06-4.74h.08a2.34,2.34,0,0,0,2.09-1c.91.14,1.77.25,2.59.33s1.59.1,2.31.12a2.29,2.29,0,0,0,.77,1.11,24.59,24.59,0,0,1-1.22,3.79,14.14,14.14,0,0,1-6.56,1Z"/><path class="cls-3" d="M356.62,276.86c.24-.66.5-1.51.75-2.48h0a2.3,2.3,0,0,0,2.47-1.88c.66-.1,1.22-.21,1.68-.32a14.22,14.22,0,0,1-4.92,4.68Z"/><path class="cls-3" d="M359.74,271.22a2.31,2.31,0,0,0-1.68-1.4,19.2,19.2,0,0,0-1.59-9.15c-.29-.63-.59-1.22-.91-1.78a2.36,2.36,0,0,0,.94-1.25,23.44,23.44,0,0,1,5.76.58,14.17,14.17,0,0,1,.15,12.4,15.6,15.6,0,0,1-2.67.6Z"/><path class="cls-4" d="M194.16,105.56a28.43,28.43,0,0,1-2.33,11.54,26.63,26.63,0,0,1-6.5,9.11,28.75,28.75,0,0,1-9.65,5.77,33.82,33.82,0,0,1-11.6,2,32.62,32.62,0,0,1-15-3.52,26.83,26.83,0,0,1-10.89-10,27.8,27.8,0,0,1-4-14.88V54.3h19.4v50.83c0,3.61.94,6.44,2.8,8.48a9.91,9.91,0,0,0,7.69,3.06,11.4,11.4,0,0,0,5.6-1.35,9,9,0,0,0,3.74-4,13.74,13.74,0,0,0,1.31-6.23V54.3h19.4Z"/><path class="cls-4" d="M264.09,133.31h-17L221.82,93.59v39.72h-19.4v-79h17L244.69,94V54.3h19.4Z"/><path class="cls-4" d="M291.55,133.31H272.14v-79h19.41Z"/><path class="cls-5" d="M348.33,65.08H309.85V89.14h32.84V99.93H309.85v33.38H297.77v-79h50.56Z"/><path class="cls-5" d="M411,133.31H398.17l-5.41-15.88H361.57l-5.42,15.88H343.38l29-79H382ZM389.4,107.24l-12-35.06-12.29,35.06Z"/><path class="cls-5" d="M465.88,109.65a32.67,32.67,0,0,1-3.49,10.45,26.65,26.65,0,0,1-6.18,7.65,25.29,25.29,0,0,1-8.4,4.63A31.86,31.86,0,0,1,437.7,134a31,31,0,0,1-7.77-1,27.77,27.77,0,0,1-7-2.9,28.89,28.89,0,0,1-6-4.55,23.57,23.57,0,0,1-5.31-8.08,33.42,33.42,0,0,1-2-9.29q-.37-5-.38-14.39c0-4.8.07-8.61.19-11.43a54.7,54.7,0,0,1,.87-7.75A24.9,24.9,0,0,1,412.53,68a23.92,23.92,0,0,1,4.42-6,28.14,28.14,0,0,1,9.37-6.26,29.86,29.86,0,0,1,11.38-2.14q11.12,0,18.62,6.29t9.56,18H453.64a18.28,18.28,0,0,0-5.5-9.87,15.12,15.12,0,0,0-10.44-3.65,17.17,17.17,0,0,0-6.53,1.25A14.37,14.37,0,0,0,426,69.19a15.5,15.5,0,0,0-2.44,3.49,18.15,18.15,0,0,0-1.41,4.65,50.59,50.59,0,0,0-.73,6.52c-.13,2.42-.19,5.73-.19,10s.06,7.48.19,9.87a51.42,51.42,0,0,0,.73,6.52,17.36,17.36,0,0,0,1.41,4.63,19.88,19.88,0,0,0,2.44,3.59,14.85,14.85,0,0,0,5.17,3.49,16.81,16.81,0,0,0,6.53,1.27,16.2,16.2,0,0,0,7.54-1.67,15.08,15.08,0,0,0,5.42-4.76,20,20,0,0,0,3.08-7.09Z"/><path class="cls-5" d="M522.33,133.31H471.77v-79h50.56V65.08H483.86v23H516.7V98.79H483.86v23.73h38.47Z"/><path class="cls-5" d="M581.49,133.31H567.62L550.44,103l-17.12,30.29H519.55L544,92.77,521.12,54.3h13.77l15.55,28.28L566.1,54.3h13.77L557,92.77Z"/><polygon class="cls-4" points="135.09 182.95 135.09 148.83 157.28 148.83 157.28 154.35 141.16 154.35 141.16 163.01 154.92 163.01 154.92 168.48 141.16 168.48 141.16 177.43 157.28 177.43 157.28 182.95 135.09 182.95"/><path class="cls-2" d="M156.78,149.33v4.52H140.66v9.66h13.76V168H140.66v10h16.12v4.52H135.59V149.33h21.19m1-1H134.59v35.12h23.19v-6.52H141.66v-8h13.76v-6.47H141.66v-7.66h16.12v-6.52Z"/><polygon class="cls-4" points="183.72 182.95 169.21 160.82 169.21 182.95 163.14 182.95 163.14 148.83 168.54 148.83 183.08 170.92 183.08 148.83 189.1 148.83 189.1 182.95 183.72 182.95"/><path class="cls-2" d="M188.6,149.33v33.12H184l-15.28-23.3v23.3h-5.07V149.33h4.63l15.31,23.26V149.33h5m1-1h-7v20.92l-13.47-20.47-.3-.45h-6.17v35.12h7.07v-21L183.15,183l.3.45h6.15V148.33Z"/><path class="cls-4" d="M206.07,183.22a19.77,19.77,0,0,1-6.77-1.05,14.5,14.5,0,0,1-5.33-3.48l-.35-.36,4.07-4,.35.36a9.77,9.77,0,0,0,2.33,1.77,9.06,9.06,0,0,0,2.68,1,16.11,16.11,0,0,0,3.11.29,7.91,7.91,0,0,0,4.72-1.24,4.42,4.42,0,0,0,.46-6.39,3.59,3.59,0,0,0-1.22-.8,9.91,9.91,0,0,0-2.13-.48l-3.9-.55a11.79,11.79,0,0,1-6.56-2.78,8.71,8.71,0,0,1-2.57-6.68,10.2,10.2,0,0,1,1.41-5.35,9.48,9.48,0,0,1,4-3.6,13.87,13.87,0,0,1,6.1-1.27,17.11,17.11,0,0,1,5.94.93,14.13,14.13,0,0,1,4.69,3l.38.36-3.95,3.89-.35-.34a7.66,7.66,0,0,0-2-1.44,9.12,9.12,0,0,0-2.24-.76,13.93,13.93,0,0,0-2.61-.23,7,7,0,0,0-3,.61,4.36,4.36,0,0,0-1.87,1.64,4.55,4.55,0,0,0-.64,2.4,3.43,3.43,0,0,0,1.08,2.71,5.5,5.5,0,0,0,1.48.85,7.71,7.71,0,0,0,2,.55l3.77.56a18.56,18.56,0,0,1,3.83,1,8.5,8.5,0,0,1,2.61,1.63,9,9,0,0,1,2.87,7.16,9.92,9.92,0,0,1-.91,4.24,9.14,9.14,0,0,1-2.63,3.29,11.54,11.54,0,0,1-4,2A17.25,17.25,0,0,1,206.07,183.22Z"/><path class="cls-2" d="M206.52,149.06a16.61,16.61,0,0,1,5.77.9,13.35,13.35,0,0,1,4.52,2.87L213.58,156a8.07,8.07,0,0,0-2.13-1.53,9.67,9.67,0,0,0-2.36-.8,14.16,14.16,0,0,0-2.71-.24,7.34,7.34,0,0,0-3.24.66,4.84,4.84,0,0,0-2.08,1.83,5,5,0,0,0-.72,2.66,3.91,3.91,0,0,0,1.25,3.08,5.94,5.94,0,0,0,1.61.94,8.3,8.3,0,0,0,2.12.58l3.77.57a16.82,16.82,0,0,1,3.71.92,7.65,7.65,0,0,1,2.46,1.53A8.51,8.51,0,0,1,218,173a9.25,9.25,0,0,1-.87,4,8.5,8.5,0,0,1-2.48,3.11,11.22,11.22,0,0,1-3.79,1.93,16.5,16.5,0,0,1-4.76.65,19.31,19.31,0,0,1-6.6-1,13.94,13.94,0,0,1-5.15-3.36l3.37-3.32a10.06,10.06,0,0,0,2.44,1.86,9.34,9.34,0,0,0,2.82,1,16.36,16.36,0,0,0,3.21.3,8.36,8.36,0,0,0,5-1.34,4.92,4.92,0,0,0,.5-7.16,4.22,4.22,0,0,0-1.38-.9,10.92,10.92,0,0,0-2.24-.51l-3.9-.54a11.32,11.32,0,0,1-6.29-2.66,8.19,8.19,0,0,1-2.41-6.31,9.64,9.64,0,0,1,1.34-5.09,8.88,8.88,0,0,1,3.84-3.41,13.27,13.27,0,0,1,5.88-1.22m0-1a14.24,14.24,0,0,0-6.32,1.32,9.94,9.94,0,0,0-4.25,3.79,10.59,10.59,0,0,0-1.49,5.61,9.22,9.22,0,0,0,2.72,7,12.38,12.38,0,0,0,6.84,2.92l3.91.54a10.24,10.24,0,0,1,2,.45,3.08,3.08,0,0,1,1,.68l0,0h0a3.94,3.94,0,0,1-.43,5.62,7.39,7.39,0,0,1-4.42,1.14,15.09,15.09,0,0,1-3-.28,8.66,8.66,0,0,1-2.54-.91,9.62,9.62,0,0,1-2.21-1.69l-.7-.72-.72.71-3.36,3.32-.71.7.71.71a14.81,14.81,0,0,0,5.51,3.6,20.27,20.27,0,0,0,6.94,1.08,17.47,17.47,0,0,0,5.05-.69,12.25,12.25,0,0,0,4.12-2.1,9.69,9.69,0,0,0,2.77-3.47,10.47,10.47,0,0,0,1-4.46,9.55,9.55,0,0,0-3.05-7.55,8.89,8.89,0,0,0-2.75-1.7,18.21,18.21,0,0,0-3.94-1l-3.77-.57a7.28,7.28,0,0,1-1.87-.51,5,5,0,0,1-1.35-.78,2.91,2.91,0,0,1-.9-2.32,4,4,0,0,1,.57-2.14,3.82,3.82,0,0,1,1.66-1.45,6.49,6.49,0,0,1,2.81-.56,13.91,13.91,0,0,1,2.52.22,9.07,9.07,0,0,1,2.11.72,6.93,6.93,0,0,1,1.87,1.35l.71.68.7-.69,3.22-3.18.74-.73-.76-.71a14.35,14.35,0,0,0-4.85-3.07,17.66,17.66,0,0,0-6.12-1Z"/><rect class="cls-4" x="224.17" y="148.83" width="6.07" height="34.11"/><path class="cls-2" d="M229.73,149.33v33.12h-5.06V149.33h5.06m1-1h-7.06v35.12h7.06V148.33Z"/><polygon class="cls-4" points="258.42 182.95 243.91 160.82 243.91 182.95 237.84 182.95 237.84 148.83 243.24 148.83 257.78 170.92 257.78 148.83 263.8 148.83 263.8 182.95 258.42 182.95"/><path class="cls-2" d="M263.3,149.33v33.12h-4.61l-15.28-23.3v23.3h-5.07V149.33H243l15.31,23.26V149.33h5m1-1h-7v20.92l-13.47-20.47-.3-.45h-6.17v35.12h7.07v-21L257.85,183l.3.45h6.15V148.33Z"/><path class="cls-4" d="M282.67,183.22a12.32,12.32,0,0,1-9.05-3.67,10.37,10.37,0,0,1-2.34-3.56,14.44,14.44,0,0,1-.87-4c-.11-1.41-.16-3.45-.16-6.07,0-2,0-3.63.08-4.81a23.05,23.05,0,0,1,.37-3.32,11.07,11.07,0,0,1,1-2.89,10.45,10.45,0,0,1,1.94-2.64,12.32,12.32,0,0,1,9.05-3.67,12.53,12.53,0,0,1,9.1,3.66,10.68,10.68,0,0,1,2.31,3.58,14.51,14.51,0,0,1,.84,4c.1,1.4.15,3.44.15,6s-.05,4.65-.15,6a14.66,14.66,0,0,1-.85,4,10.55,10.55,0,0,1-2.29,3.57A12.49,12.49,0,0,1,282.67,183.22Zm0-29.14a6.48,6.48,0,0,0-2.56.52,5.7,5.7,0,0,0-2,1.36,6.32,6.32,0,0,0-1.46,3.09,43.55,43.55,0,0,0-.36,6.84c0,1.75,0,3.15.08,4.18a19,19,0,0,0,.3,2.69,7.43,7.43,0,0,0,.5,1.71,6.18,6.18,0,0,0,1,1.36,5.84,5.84,0,0,0,2,1.36,6.47,6.47,0,0,0,2.54.51,6,6,0,0,0,4.57-1.88,5.76,5.76,0,0,0,1.13-1.85,11.64,11.64,0,0,0,.54-2.95c.1-1.29.14-3,.14-5.13a44.27,44.27,0,0,0-.36-6.87,6,6,0,0,0-1.46-3.06,5.75,5.75,0,0,0-2-1.36A6.46,6.46,0,0,0,282.67,154.08Z"/><path class="cls-2" d="M282.67,149.06a12,12,0,0,1,8.75,3.52,10,10,0,0,1,2.19,3.39,14.3,14.3,0,0,1,.82,3.9q.13,2.08.14,6t-.14,6a14.17,14.17,0,0,1-.83,3.91,9.91,9.91,0,0,1-2.18,3.39,12,12,0,0,1-8.75,3.54,11.82,11.82,0,0,1-8.7-3.52,9.89,9.89,0,0,1-2.22-3.38,13.53,13.53,0,0,1-.84-3.9q-.17-2.1-.16-6c0-2,0-3.61.08-4.79a22.26,22.26,0,0,1,.36-3.25,10.69,10.69,0,0,1,.93-2.76,10.57,10.57,0,0,1,1.85-2.51,11.82,11.82,0,0,1,8.7-3.52m0,29.14a6.49,6.49,0,0,0,4.93-2,5.93,5.93,0,0,0,1.24-2,11.68,11.68,0,0,0,.57-3.08c.09-1.3.14-3,.14-5.17a44,44,0,0,0-.37-7,6.5,6.5,0,0,0-1.58-3.31,6.18,6.18,0,0,0-2.19-1.48,7,7,0,0,0-5.5,0,6.27,6.27,0,0,0-2.19,1.48,6.73,6.73,0,0,0-1.58,3.33,43.55,43.55,0,0,0-.37,6.94c0,1.75,0,3.16.08,4.21a19.92,19.92,0,0,0,.3,2.75,8.2,8.2,0,0,0,.55,1.84,6.78,6.78,0,0,0,1,1.47,6.69,6.69,0,0,0,2.22,1.5,7.07,7.07,0,0,0,2.73.54m0-30.14a12.82,12.82,0,0,0-9.4,3.81,11.26,11.26,0,0,0-2,2.77,11.44,11.44,0,0,0-1,3,22.78,22.78,0,0,0-.38,3.39c-.05,1.19-.08,2.82-.08,4.84,0,2.63.05,4.69.16,6.11a15.09,15.09,0,0,0,.9,4.17,11.11,11.11,0,0,0,2.45,3.73,12.83,12.83,0,0,0,9.41,3.82,13,13,0,0,0,9.45-3.83,10.86,10.86,0,0,0,2.41-3.75,14.68,14.68,0,0,0,.89-4.18c.1-1.41.15-3.45.15-6.08s-.05-4.68-.15-6.08a15.15,15.15,0,0,0-.87-4.18,11.13,11.13,0,0,0-2.41-3.73,13,13,0,0,0-9.47-3.83Zm0,29.14a6.09,6.09,0,0,1-2.35-.47,5.28,5.28,0,0,1-1.87-1.26,5.8,5.8,0,0,1-.85-1.22,6.76,6.76,0,0,1-.46-1.59,18,18,0,0,1-.29-2.62c-.06-1-.08-2.41-.08-4.15a42.28,42.28,0,0,1,.36-6.75,5.64,5.64,0,0,1,1.33-2.85,5.26,5.26,0,0,1,1.84-1.23,6.08,6.08,0,0,1,2.37-.48,6,6,0,0,1,2.35.48,5.28,5.28,0,0,1,1.85,1.24,5.59,5.59,0,0,1,1.33,2.81,44.56,44.56,0,0,1,.35,6.78c0,2.1,0,3.81-.14,5.09a10.49,10.49,0,0,1-.51,2.81,5.06,5.06,0,0,1-1,1.69,5.46,5.46,0,0,1-4.2,1.72Z"/><path class="cls-4" d="M331.85,183l-2.27-6.66H317.23L315,183h-6.43L321,148.83h4.74L338.28,183Zm-4-11.93-4.33-12.66L319.07,171Z"/><path class="cls-2" d="M325.43,149.33l12.14,33.12h-5.36l-2.27-6.66H316.87l-2.27,6.66h-5.35l12.14-33.12h4m-7.06,22.19h10.16l-5-14.69-5.15,14.69m7.75-23.19h-5.43l-.24.66L308.31,182.1l-.5,1.35h7.51l.23-.68,2-6h11.64l2,6,.23.68H339l-.49-1.35L326.37,149l-.25-.66Zm-6.34,22.19,3.73-10.63,3.63,10.63Z"/><path class="cls-4" d="M352.9,183V148.83H365c3.75,0,6.76,1.1,8.92,3.26a10.49,10.49,0,0,1,2.33,3.48,14.63,14.63,0,0,1,1,3.88,43,43,0,0,1,.21,4.53v3.34a46.69,46.69,0,0,1-.21,4.73,15.4,15.4,0,0,1-1,4.06,10.22,10.22,0,0,1-2.33,3.58C371.8,181.85,368.8,183,365,183Zm11.65-5.52a6.79,6.79,0,0,0,5.26-2.06,5.8,5.8,0,0,0,1.35-3.25,54,54,0,0,0,.29-6.44c0-1.89,0-3.36-.09-4.39a12.32,12.32,0,0,0-.47-2.8,5.18,5.18,0,0,0-1.08-2.06,6.7,6.7,0,0,0-5.26-2.08H359v23.08Z"/><path class="cls-2" d="M365,149.33q5.44,0,8.57,3.12a9.77,9.77,0,0,1,2.21,3.31,14,14,0,0,1,.95,3.75A44.42,44.42,0,0,1,377,164v3.34c0,1.79-.07,3.35-.2,4.68a15.23,15.23,0,0,1-.95,3.93,9.69,9.69,0,0,1-2.21,3.41q-3.12,3.1-8.57,3.11H353.4V149.33H365m-6.58,28.6h6.09a7.2,7.2,0,0,0,5.63-2.23,6.29,6.29,0,0,0,1.48-3.51,55.3,55.3,0,0,0,.29-6.52q0-2.85-.09-4.41a12.64,12.64,0,0,0-.49-2.91,5.62,5.62,0,0,0-1.19-2.25,7.22,7.22,0,0,0-5.63-2.25h-6.09v24.08m6.58-29.6H352.4v35.12H365c3.89,0,7-1.15,9.27-3.41a10.6,10.6,0,0,0,2.45-3.75,16.39,16.39,0,0,0,1-4.19,47.61,47.61,0,0,0,.21-4.78V164a43.87,43.87,0,0,0-.21-4.58,14.76,14.76,0,0,0-1-4,10.74,10.74,0,0,0-2.44-3.65c-2.26-2.26-5.38-3.41-9.27-3.41Zm-5.58,6.52h5.09a6.21,6.21,0,0,1,4.89,1.92,4.75,4.75,0,0,1,1,1.86,11.46,11.46,0,0,1,.45,2.69c.06,1,.09,2.48.09,4.35a53.37,53.37,0,0,1-.28,6.39,5.33,5.33,0,0,1-1.23,3,6.21,6.21,0,0,1-4.89,1.9h-5.09V154.85Z"/><rect class="cls-4" x="383.88" y="148.83" width="6.06" height="34.11"/><path class="cls-2" d="M389.44,149.33v33.12h-5.06V149.33h5.06m1-1h-7.06v35.12h7.06V148.33Z"/><path class="cls-4" d="M406.88,183.22a19.75,19.75,0,0,1-6.76-1.05,14.42,14.42,0,0,1-5.33-3.48l-.36-.36,4.08-4,.35.36a9.72,9.72,0,0,0,2.32,1.77,9.12,9.12,0,0,0,2.69,1,16.08,16.08,0,0,0,3.1.29,7.92,7.92,0,0,0,4.73-1.24,4.42,4.42,0,0,0,.46-6.39,3.59,3.59,0,0,0-1.22-.8,9.91,9.91,0,0,0-2.13-.48l-3.9-.55a11.83,11.83,0,0,1-6.57-2.78,8.74,8.74,0,0,1-2.56-6.68,10.1,10.1,0,0,1,1.41-5.35,9.48,9.48,0,0,1,4.05-3.6,13.84,13.84,0,0,1,6.1-1.27,17.15,17.15,0,0,1,5.94.93,14.23,14.23,0,0,1,4.69,3l.38.36-4,3.89-.35-.34a7.66,7.66,0,0,0-2-1.44,9.12,9.12,0,0,0-2.24-.76,13.93,13.93,0,0,0-2.61-.23,7,7,0,0,0-3,.61,4.3,4.3,0,0,0-1.87,1.64,4.55,4.55,0,0,0-.64,2.4,3.4,3.4,0,0,0,1.08,2.71,5.34,5.34,0,0,0,1.48.85,7.75,7.75,0,0,0,2,.55l3.78.56a18.45,18.45,0,0,1,3.82,1,8.43,8.43,0,0,1,2.62,1.63,9,9,0,0,1,2.86,7.16,9.78,9.78,0,0,1-.91,4.24,8.93,8.93,0,0,1-2.63,3.29,11.41,11.41,0,0,1-3.94,2A17.27,17.27,0,0,1,406.88,183.22Z"/><path class="cls-2" d="M407.34,149.06a16.65,16.65,0,0,1,5.77.9,13.45,13.45,0,0,1,4.52,2.87L414.4,156a8.41,8.41,0,0,0-2.13-1.53,9.6,9.6,0,0,0-2.37-.8,14,14,0,0,0-2.7-.24,7.39,7.39,0,0,0-3.25.66,4.76,4.76,0,0,0-2.07,1.83,5,5,0,0,0-.72,2.66,3.91,3.91,0,0,0,1.25,3.08,5.79,5.79,0,0,0,1.61.94,8.34,8.34,0,0,0,2.11.58l3.77.57a16.78,16.78,0,0,1,3.72.92,7.65,7.65,0,0,1,2.46,1.53,8.53,8.53,0,0,1,2.7,6.79,9.25,9.25,0,0,1-.86,4,8.42,8.42,0,0,1-2.49,3.11,11.08,11.08,0,0,1-3.78,1.93,16.62,16.62,0,0,1-4.77.65,19.25,19.25,0,0,1-6.59-1,13.94,13.94,0,0,1-5.15-3.36L398.5,175a10.26,10.26,0,0,0,2.44,1.86,9.5,9.5,0,0,0,2.83,1,16.33,16.33,0,0,0,3.2.3,8.32,8.32,0,0,0,5-1.34,4.9,4.9,0,0,0,.5-7.16,4.08,4.08,0,0,0-1.37-.9,10.92,10.92,0,0,0-2.24-.51l-3.9-.54a11.35,11.35,0,0,1-6.3-2.66,8.22,8.22,0,0,1-2.4-6.31,9.55,9.55,0,0,1,1.34-5.09,8.88,8.88,0,0,1,3.84-3.41,13.27,13.27,0,0,1,5.88-1.22m0-1a14.24,14.24,0,0,0-6.32,1.32,10,10,0,0,0-4.26,3.79,10.68,10.68,0,0,0-1.48,5.61,9.18,9.18,0,0,0,2.72,7,12.38,12.38,0,0,0,6.84,2.92l3.9.54a10.07,10.07,0,0,1,2,.45,3,3,0,0,1,1,.68l0,0h0a3.94,3.94,0,0,1-.43,5.62A7.4,7.4,0,0,1,407,177.2a15.06,15.06,0,0,1-3-.28,8.83,8.83,0,0,1-2.55-.91,9.79,9.79,0,0,1-2.2-1.69l-.7-.72-.72.71-3.36,3.32-.71.7.7.71a14.84,14.84,0,0,0,5.52,3.6,20.25,20.25,0,0,0,6.93,1.08,17.49,17.49,0,0,0,5.06-.69,12.11,12.11,0,0,0,4.11-2.1,9.72,9.72,0,0,0,2.78-3.47,10.46,10.46,0,0,0,.95-4.46,9.54,9.54,0,0,0-3-7.55,9,9,0,0,0-2.75-1.7,18.21,18.21,0,0,0-3.94-1l-3.77-.57a7.17,7.17,0,0,1-1.87-.51,5,5,0,0,1-1.35-.78,2.91,2.91,0,0,1-.9-2.32,4,4,0,0,1,.57-2.14,3.82,3.82,0,0,1,1.66-1.45,6.46,6.46,0,0,1,2.81-.56,13.71,13.71,0,0,1,2.51.22,9,9,0,0,1,2.12.72,7.08,7.08,0,0,1,1.87,1.35l.7.68.7-.69,3.23-3.18.74-.73-.76-.71a14.39,14.39,0,0,0-4.86-3.07,17.6,17.6,0,0,0-6.11-1Z"/><polygon class="cls-4" points="431.21 182.95 431.21 154.35 422.08 154.35 422.08 148.83 446.33 148.83 446.33 154.35 437.23 154.35 437.23 182.95 431.21 182.95"/><path class="cls-2" d="M445.83,149.33v4.52h-9.1v28.6h-5v-28.6h-9.13v-4.52h23.25m1-1H421.58v6.52h9.13v28.6h7v-28.6h9.1v-6.52Z"/><path class="cls-4" d="M470.24,183,468,176.29H455.61L453.34,183h-6.43l12.51-34.12h4.74L476.67,183Zm-4-11.93-4.32-12.66L457.46,171Zm-.74-24.41-3.83-4.25-3.82,4.25H452.6l6.81-8.47h4.48l6.81,8.47Z"/><path class="cls-2" d="M463.65,138.64l6,7.47h-4l-4.05-4.5-4,4.5h-4l6-7.47h4m.16,10.69L476,182.45H470.6l-2.27-6.66H455.25L453,182.45h-5.35l12.14-33.12h4m-7.06,22.19h10.17l-5-14.69-5.15,14.69m7.38-33.88h-5l-.3.37-6,7.47-1.31,1.63h6.49l.3-.33,3.3-3.67,3.31,3.67.3.33h6.49l-1.31-1.63-6-7.47-.3-.37Zm.38,10.69h-5.44l-.24.66L446.69,182.1l-.49,1.35h7.5l.23-.68,2-6h11.64l2,6,.23.68h7.5l-.49-1.35L464.75,149l-.24-.66Zm-6.35,22.19,3.73-10.63,3.63,10.63Z"/><polygon class="cls-4" points="500.69 182.95 486.17 160.82 486.17 182.95 480.11 182.95 480.11 148.83 485.51 148.83 500.05 170.92 500.05 148.83 506.07 148.83 506.07 182.95 500.69 182.95"/><path class="cls-2" d="M505.57,149.33v33.12H501l-15.29-23.3v23.3h-5.06V149.33h4.63l15.31,23.26V149.33h5m1-1h-7v20.92l-13.48-20.47-.29-.45h-6.17v35.12h7.06v-21L500.12,183l.3.45h6.15V148.33Z"/><path class="cls-4" d="M524.94,183.22a13.75,13.75,0,0,1-3.39-.41,12.16,12.16,0,0,1-3.06-1.27,12.35,12.35,0,0,1-2.6-2,10.22,10.22,0,0,1-2.34-3.56,14.1,14.1,0,0,1-.87-4c-.11-1.41-.16-3.45-.16-6.07,0-2,0-3.63.08-4.81a21.72,21.72,0,0,1,.37-3.32,10.7,10.7,0,0,1,1-2.89,11,11,0,0,1,1.94-2.64,12.4,12.4,0,0,1,4.1-2.74,13.26,13.26,0,0,1,5-.93,12.25,12.25,0,0,1,8.12,2.76,12.68,12.68,0,0,1,4.18,7.84l.11.59h-6.13l-.09-.39a7.19,7.19,0,0,0-2.15-3.88,5.81,5.81,0,0,0-4-1.4,6.58,6.58,0,0,0-2.55.49,5.45,5.45,0,0,0-2,1.35,5.85,5.85,0,0,0-.94,1.34,7.2,7.2,0,0,0-.55,1.82,23.32,23.32,0,0,0-.3,2.67c-.05,1-.07,2.35-.07,4.14s0,3.12.07,4.11a23.85,23.85,0,0,0,.3,2.67,6.77,6.77,0,0,0,.55,1.8,7.9,7.9,0,0,0,1,1.42,5.83,5.83,0,0,0,2,1.32,6.77,6.77,0,0,0,2.55.49,6.36,6.36,0,0,0,2.93-.65,5.75,5.75,0,0,0,2.09-1.84,7.91,7.91,0,0,0,1.21-2.79l.09-.39h6.08l-.1.58a14.13,14.13,0,0,1-1.52,4.54,11.67,11.67,0,0,1-2.7,3.35,11.15,11.15,0,0,1-3.69,2A13.78,13.78,0,0,1,524.94,183.22Z"/><path class="cls-2" d="M524.94,149.06a11.73,11.73,0,0,1,7.8,2.64,12.2,12.2,0,0,1,4,7.55h-5.13a7.69,7.69,0,0,0-2.31-4.14,6.31,6.31,0,0,0-4.37-1.53,7.18,7.18,0,0,0-2.74.52,6,6,0,0,0-2.17,1.48,6.25,6.25,0,0,0-1,1.46,7.69,7.69,0,0,0-.59,2,22.43,22.43,0,0,0-.31,2.73c-.05,1-.07,2.4-.07,4.17s0,3.13.07,4.14a22.9,22.9,0,0,0,.31,2.73,7.35,7.35,0,0,0,.59,1.94,8,8,0,0,0,1,1.5,6.27,6.27,0,0,0,2.17,1.47,7.19,7.19,0,0,0,2.74.53,6.81,6.81,0,0,0,3.16-.7,6.39,6.39,0,0,0,2.27-2,8.49,8.49,0,0,0,1.29-3h5.09a13.47,13.47,0,0,1-1.47,4.38,11.12,11.12,0,0,1-2.58,3.21,10.83,10.83,0,0,1-3.53,1.94,13.29,13.29,0,0,1-4.23.66,12.72,12.72,0,0,1-3.26-.4,11.7,11.7,0,0,1-2.94-1.21,12.24,12.24,0,0,1-2.5-1.91,10.07,10.07,0,0,1-2.23-3.38,14.23,14.23,0,0,1-.84-3.9q-.15-2.1-.15-6c0-2,0-3.61.07-4.79a23.66,23.66,0,0,1,.37-3.25,10.69,10.69,0,0,1,.93-2.76,10.3,10.3,0,0,1,1.85-2.51,11.83,11.83,0,0,1,3.93-2.62,12.5,12.5,0,0,1,4.77-.9m0-1a13.68,13.68,0,0,0-5.15,1,13.09,13.09,0,0,0-4.26,2.84,11.21,11.21,0,0,0-2,2.77,11.09,11.09,0,0,0-1,3,22.78,22.78,0,0,0-.38,3.39c-.06,1.19-.08,2.82-.08,4.84,0,2.63.05,4.69.16,6.11a14.74,14.74,0,0,0,.9,4.17,10.93,10.93,0,0,0,2.44,3.73,13.29,13.29,0,0,0,2.72,2.07,12.65,12.65,0,0,0,3.19,1.32,13.78,13.78,0,0,0,3.51.43,14.45,14.45,0,0,0,4.55-.71,11.68,11.68,0,0,0,3.85-2.13,12.05,12.05,0,0,0,2.82-3.49,14.58,14.58,0,0,0,1.58-4.69l.19-1.17h-7.06l-.18.78a7.4,7.4,0,0,1-1.14,2.62,5.3,5.3,0,0,1-1.91,1.68,5.87,5.87,0,0,1-2.7.59,5.93,5.93,0,0,1-2.35-.46,5.26,5.26,0,0,1-1.81-1.2,7.28,7.28,0,0,1-.88-1.3,6.62,6.62,0,0,1-.5-1.66,20.78,20.78,0,0,1-.29-2.61c-.05-1-.07-2.34-.07-4.08s0-3.14.07-4.12a20.4,20.4,0,0,1,.29-2.6,7.14,7.14,0,0,1,.51-1.69,5.4,5.4,0,0,1,.86-1.23,5,5,0,0,1,1.81-1.22,6.16,6.16,0,0,1,2.36-.45,5.33,5.33,0,0,1,3.71,1.28,6.59,6.59,0,0,1,2,3.61l.18.78h7.12l-.21-1.17a13.19,13.19,0,0,0-4.35-8.15,12.77,12.77,0,0,0-8.44-2.87Z"/><rect class="cls-4" x="542.9" y="148.83" width="6.06" height="34.11"/><path class="cls-2" d="M548.47,149.33v33.12H543.4V149.33h5.07m1-1H542.4v35.12h7.07V148.33Z"/><path class="cls-4" d="M575.78,183l-2.27-6.66H561.15L558.88,183h-6.43L565,148.83h4.74L582.21,183Zm-4-11.93-4.32-12.66L563,171Z"/><path class="cls-2" d="M569.35,149.33l12.14,33.12h-5.35l-2.27-6.66H560.79l-2.27,6.66h-5.35l12.14-33.12h4m-7.06,22.19h10.17l-5-14.69-5.15,14.69m7.76-23.19h-5.44l-.24.66L552.23,182.1l-.49,1.35h7.5l.23-.68,2-6h11.64l2,6,.23.68h7.5l-.49-1.35L570.29,149l-.24-.66Zm-6.35,22.19,3.73-10.63,3.63,10.63Z"/><polygon class="cls-6" points="244.69 94.02 264.09 133.31 244.69 83.72 244.69 94.02"/></svg>