<svg id="Camada_1" data-name="Camada 1" xmlns="http://www.w3.org/2000/svg" xmlns:xlink="http://www.w3.org/1999/xlink" viewBox="0 0 366.45 57.77"><defs><style>.cls-1{fill:#24397d;}.cls-2{fill:none;}.cls-3{clip-path:url(#clip-path);}.cls-4{fill:#29235c;}.cls-5{fill:url(#radial-gradient);}.cls-6{clip-path:url(#clip-path-2);}.cls-7{fill:#ffe006;}.cls-8{fill:#e52421;}.cls-9{font-size:24px;fill:#fff;font-family:Arial-BoldMT, Arial;font-weight:700;}</style><clipPath id="clip-path"><rect class="cls-1" y="12.65" width="366.45" height="31.89"/></clipPath><radialGradient id="radial-gradient" cx="52.83" cy="28.89" r="33.53" gradientUnits="userSpaceOnUse"><stop offset="0" stop-color="#fff"/><stop offset="0.15" stop-color="#f8f8f8"/><stop offset="0.39" stop-color="#f2f2f2"/><stop offset="0.5" stop-color="#ededed"/><stop offset="0.63" stop-color="#e0dfde"/><stop offset="0.77" stop-color="#cac7c6"/><stop offset="0.81" stop-color="#c2bfbd"/></radialGradient><clipPath id="clip-path-2"><polygon class="cls-2" points="66.76 4.75 38.9 4.75 24.97 28.89 38.9 53.02 66.76 53.02 80.7 28.89 66.76 4.75"/></clipPath></defs><title>OBJETIVOS</title><rect class="cls-1" y="12.65" width="366.45" height="31.89"/><g class="cls-3"><path class="cls-1" d="M8,12.65S0,12.65,0,21v15.2s0,8.34,8,8.34H358.5s7.95,0,7.95-8.34V21s0-8.34-7.95-8.34Z"/></g><polygon class="cls-4" points="67.98 2.64 37.68 2.64 22.52 28.89 37.68 55.13 67.98 55.13 83.14 28.89 67.98 2.64"/><polygon class="cls-5" points="66.76 4.75 38.9 4.75 24.97 28.89 38.9 53.02 66.76 53.02 80.7 28.89 66.76 4.75"/><g class="cls-6"><polygon class="cls-7" points="19.7 54.58 21.92 53.29 28.22 44.76 26 46.05 19.7 54.58"/><polygon class="cls-7" points="30.82 48.9 30.21 49.73 32.43 48.45 33.05 47.61 40.7 37.25 38.47 38.54 30.82 48.9"/><polygon class="cls-7" points="46.84 42.57 45.36 44.57 47.58 43.28 49.06 41.28 62.8 22.67 60.57 23.96 46.84 42.57"/><polygon class="cls-7" points="27.79 42.69 25.57 43.98 26.21 44.43 29.59 46.78 31.82 45.49 28.43 43.14 27.79 42.69"/><polygon class="cls-7" points="39.52 31.58 37.29 32.87 39.06 34.1 43.88 37.46 46.1 36.17 41.28 32.81 39.52 31.58"/><polygon class="cls-7" points="65.44 9.63 65.05 27.54 67.27 26.25 67.65 10.25 65.44 9.63"/><polygon class="cls-8" points="49.78 15.33 65.44 9.63 65.05 27.54 60.57 23.96 46.84 42.57 45.36 44.57 43.54 42.98 38.47 38.54 30.82 48.9 30.21 49.73 29.45 49.07 26 46.05 19.7 54.58 25.25 44.55 25.57 43.98 26.21 44.43 29.59 46.78 36.43 34.43 37.29 32.87 39.06 34.1 43.88 37.46 54.18 18.85 49.78 15.33"/></g><text class="cls-9" transform="translate(158.38 36.8) scale(0.96 1)">OBJETIVOS</text></svg>