<svg id="Camada_1" data-name="Camada 1" xmlns="http://www.w3.org/2000/svg" xmlns:xlink="http://www.w3.org/1999/xlink" viewBox="0 0 366.45 56.29"><defs><style>.cls-1{fill:#24397d;}.cls-2{clip-path:url(#clip-path);}.cls-3{fill:#29235c;}.cls-4{fill:url(#radial-gradient);}.cls-5{fill:#e7e787;}.cls-6{fill:#c0c54b;}.cls-7{fill:#96a024;}.cls-8{fill:#a8b51a;}.cls-9{fill:#ddcd9e;}.cls-10{fill:#e94e2d;}.cls-11{fill:#f2b715;}.cls-12{font-size:22px;fill:#fff;font-family:Arial-BoldMT, Arial;font-weight:700;}.cls-13{letter-spacing:-0.04em;}</style><clipPath id="clip-path"><rect class="cls-1" y="12.2" width="366.45" height="31.89"/></clipPath><radialGradient id="radial-gradient" cx="-4371.28" cy="28.15" r="33.53" gradientTransform="matrix(-1, 0, 0, 1, -4318.45, 0)" gradientUnits="userSpaceOnUse"><stop offset="0" stop-color="#fff"/><stop offset="0.15" stop-color="#f8f8f8"/><stop offset="0.39" stop-color="#f2f2f2"/><stop offset="0.5" stop-color="#ededed"/><stop offset="0.63" stop-color="#e0dfde"/><stop offset="0.77" stop-color="#cac7c6"/><stop offset="0.81" stop-color="#c2bfbd"/></radialGradient></defs><title>SITUAÇÃO-PROBLEMA</title><rect class="cls-1" y="12.2" width="366.45" height="31.89"/><g class="cls-2"><path class="cls-1" d="M8,12.2S0,12.2,0,20.54V35.75s0,8.34,8,8.34H358.5s7.95,0,7.95-8.34V20.54s0-8.34-7.95-8.34Z"/></g><polygon class="cls-3" points="37.68 1.9 67.98 1.9 83.14 28.15 67.98 54.39 37.68 54.39 22.52 28.15 37.68 1.9"/><polygon class="cls-4" points="38.9 4.01 66.76 4.01 80.7 28.15 66.76 52.28 38.9 52.28 24.97 28.15 38.9 4.01"/><path class="cls-5" d="M50,21.05v4.17a.8.8,0,0,1-.8.8H46.06a.79.79,0,0,1-.79-.8V21.05H50Z"/><path class="cls-6" d="M50,16.88v4.17H45.27V16.88a.79.79,0,0,1,.79-.79h3.17A.79.79,0,0,1,50,16.88Z"/><path class="cls-7" d="M48.3,16.28V21.1H33.12V16.28c0-.43.24-.77.53-.77H47.76C48.06,15.51,48.3,15.85,48.3,16.28Z"/><path class="cls-8" d="M48.3,25.93c0,.43-.24.77-.54.77H33.65c-.29,0-.53-.34-.53-.77V21.1H48.3Z"/><path class="cls-5" d="M46.43,24.32a.77.77,0,1,0,.77.77A.77.77,0,0,0,46.43,24.32Z"/><path class="cls-5" d="M42.24,24.32a.77.77,0,1,0,.77.77A.77.77,0,0,0,42.24,24.32Z"/><path class="cls-5" d="M44.34,24.32a.77.77,0,1,0,.77.77A.76.76,0,0,0,44.34,24.32Z"/><path class="cls-9" d="M66.46,14.68c1.39.17.91,2.7-.42,2.47s-2.92-.59-4.06.44c1.65,0,3.59-.86,5,.36a32.15,32.15,0,0,1,2.74,2.31,1.53,1.53,0,0,1-.72,1.8,1.17,1.17,0,0,1-1.47,0c-.59-.44-1.14-.91-1.7-1.36l-.24-.19-.41-.33-.59.08-.33,0-1,.11c1.14.55,2.7.51,3.53,1.54q0,.49.06,1V23c0,.91,0,1.81-.06,2.72v.55c.1,1.62-2.79,1.5-2.83,0,0-.41,0-.82,0-1.23s0-.92,0-1.39l-1.4-.45c.48.55,1.43,1,1.37,1.83a1,1,0,0,1-.08.31c-.74,1.27-.56,3-1.42,4.2A1.08,1.08,0,0,1,61,29.8a1.38,1.38,0,0,1-.7-1.6,4.23,4.23,0,0,0,.3-2.81,10.63,10.63,0,0,0-3.44-2.2,1.63,1.63,0,0,0-.67.09c-1,.38-2.4,1.74-1.71,2.66a4.09,4.09,0,0,0,2.14,1.5,1.34,1.34,0,0,1,.6.43,1.46,1.46,0,0,1-.47,2,1.25,1.25,0,0,1-1.22.09,13.62,13.62,0,0,1-1.9-.93c-1.49-.81-1.7-2.12-2.71-3.47l-.13-.25-.11-.12L50.65,25a.54.54,0,0,1-.27-.42V18.31a1.63,1.63,0,0,1,.76-1.38,5.71,5.71,0,0,1,1-.24,14.76,14.76,0,0,1,1.59-.16h.43c2.29-.58,4.83-.36,7-1.51C62.76,14,64.68,14.55,66.46,14.68Z"/><rect class="cls-10" x="54.98" y="41.02" width="8.6" height="0.76"/><rect class="cls-11" x="55.18" y="41.98" width="8.2" height="2.36"/><rect class="cls-10" x="54.98" y="44.51" width="8.6" height="0.76"/><path class="cls-11" d="M55.12,32.05a3.74,3.74,0,0,1,3.1-2.56h0a2.8,2.8,0,0,1,2.58.23c1,.86.39,1,.39,1s2.26,1.43,2.65,2.43c0,0,.36.81-.33,1l-.76-.3.54.43s-.26.69-.73.42a2.56,2.56,0,0,0-1.94-.28,3.17,3.17,0,0,1-.55.06H60l-.28,0-.18-.05-.1,0-.09,0-.19-.13A.8.8,0,0,1,59,34a2.33,2.33,0,0,1-.28-.36,3.2,3.2,0,0,1-.19-.36,1.91,1.91,0,0,1-.1-.27.82.82,0,0,1,0-.11.45.45,0,0,0,0,.11,1.67,1.67,0,0,0,.07.29,2.84,2.84,0,0,0,.16.38,1.37,1.37,0,0,0,.13.2,1.39,1.39,0,0,0,.15.19,1,1,0,0,0,.19.16l.21.13.1,0,.1,0,.2,0h0A4.38,4.38,0,0,0,61.34,37a3.71,3.71,0,0,1,1.48,3.81H55.75S54.15,35,55.12,32.05Zm6-.68-1-.59S60.56,31.84,61.16,31.37ZM55.67,33.7l.08-.23s0-.09,0-.15l.06-.15c0-.11.09-.23.13-.35s.12-.25.17-.38,0-.07.05-.1l0-.09.11-.2,0-.1.07-.09.12-.19.14-.18.14-.17.15-.16.07-.08.08-.07.16-.14.16-.12.16-.1.15-.1.28-.14.23-.1.15,0h.05a.92.92,0,0,0-.22,0,1.41,1.41,0,0,0-.25,0l-.15,0-.16.06-.18.07-.18.09-.18.11L57,30.8l-.09.07-.08.08-.18.17-.16.18-.15.19-.13.21-.07.1,0,.11a2,2,0,0,0-.1.21l0,.11,0,.1c0,.14-.1.28-.14.41s-.06.26-.09.38l0,.17c0,.05,0,.11,0,.15s0,.18,0,.25,0,.22,0,.22A2,2,0,0,0,55.67,33.7Z"/><text class="cls-12" transform="translate(106.36 36.49) scale(0.96 1)">SITUAÇÃO-PROBLEM<tspan class="cls-13" x="232.21" y="0">A</tspan></text></svg>