<svg id="Camada_1" data-name="Camada 1" xmlns="http://www.w3.org/2000/svg" xmlns:xlink="http://www.w3.org/1999/xlink" viewBox="0 0 366.45 57.84"><defs><style>.cls-1{fill:#24397d;}.cls-2{clip-path:url(#clip-path);}.cls-3{fill:#fff;}.cls-4{fill:#29235c;}.cls-5{fill:url(#Gradiente_sem_nome_191);}.cls-6{fill:#0e6c92;}.cls-7{fill:#105a79;}.cls-8{fill:#26aade;}.cls-9{fill:#1e8eb9;}.cls-10{fill:#3081a1;}.cls-11{fill:#e94a2c;}.cls-12{fill:#d43a19;}.cls-13{fill:#fcbd24;}.cls-14{fill:#d39e19;}.cls-15{font-size:2.38px;fill:#343844;font-family:OpenSans, Open Sans;}</style><clipPath id="clip-path"><rect class="cls-1" y="12.98" width="366.45" height="31.89"/></clipPath><radialGradient id="Gradiente_sem_nome_191" cx="52.83" cy="28.92" r="33.53" gradientUnits="userSpaceOnUse"><stop offset="0" stop-color="#fff"/><stop offset="0.22" stop-color="#fbfbfb"/><stop offset="0.39" stop-color="#f2f2f2"/><stop offset="0.61" stop-color="#f0f0f0"/><stop offset="0.68" stop-color="#eaeae9"/><stop offset="0.74" stop-color="#dfdede"/><stop offset="0.78" stop-color="#d0cecd"/><stop offset="0.81" stop-color="#c2bfbd"/></radialGradient></defs><title>INFOGRAFICO</title><rect class="cls-1" y="12.98" width="366.45" height="31.89"/><g class="cls-2"><path class="cls-1" d="M8,13S0,13,0,21.32v15.2s0,8.34,8,8.34H358.5s7.95,0,7.95-8.34V21.32s0-8.34-7.95-8.34Z"/></g><path class="cls-3" d="M123.32,37.16V21.42h3.18V37.16Z"/><path class="cls-3" d="M130.72,37.16V21.42h3.1l6.44,10.51V21.42h3V37.16H140l-6.35-10.27V37.16Z"/><path class="cls-3" d="M147.77,37.16V21.42h10.79v2.66H151v3.73h6.57v2.66H151v6.69Z"/><path class="cls-3" d="M161.7,29.39a10,10,0,0,1,.72-4,7.52,7.52,0,0,1,1.47-2.16,6.13,6.13,0,0,1,2-1.42,8.54,8.54,0,0,1,3.39-.62,7.39,7.39,0,0,1,5.57,2.16,8.28,8.28,0,0,1,2.09,6,8.27,8.27,0,0,1-2.07,6,8.29,8.29,0,0,1-11.13,0A8.15,8.15,0,0,1,161.7,29.39Zm3.28-.11a5.86,5.86,0,0,0,1.24,4,4,4,0,0,0,3.13,1.38,4,4,0,0,0,3.12-1.37,6,6,0,0,0,1.22-4.1,5.91,5.91,0,0,0-1.18-4,4.4,4.4,0,0,0-6.33,0A6,6,0,0,0,165,29.28Z"/><path class="cls-3" d="M188,31.37V28.72h6.86V35a8.54,8.54,0,0,1-2.9,1.71,10.51,10.51,0,0,1-3.84.73,8.64,8.64,0,0,1-4.31-1,6.67,6.67,0,0,1-2.76-3,9.63,9.63,0,0,1-.92-4.19,9.08,9.08,0,0,1,1-4.38,7,7,0,0,1,3-2.93,8.19,8.19,0,0,1,3.77-.78,7.53,7.53,0,0,1,4.58,1.23,5.52,5.52,0,0,1,2.12,3.4l-3.16.59a3.23,3.23,0,0,0-1.25-1.83,3.75,3.75,0,0,0-2.29-.68,4.27,4.27,0,0,0-3.31,1.33,5.55,5.55,0,0,0-1.23,3.92,6.14,6.14,0,0,0,1.24,4.2,4.14,4.14,0,0,0,3.27,1.4,5.51,5.51,0,0,0,2-.39,6.69,6.69,0,0,0,1.72-1v-2Z"/><path class="cls-3" d="M198.92,37.16V21.42h6.69a11.62,11.62,0,0,1,3.67.42,3.64,3.64,0,0,1,1.83,1.51,4.51,4.51,0,0,1,.69,2.48,4.19,4.19,0,0,1-1.05,2.93,5,5,0,0,1-3.11,1.45,7.36,7.36,0,0,1,1.7,1.32,18.2,18.2,0,0,1,1.81,2.56l1.92,3.07h-3.8L207,33.74a21.45,21.45,0,0,0-1.67-2.32,2.31,2.31,0,0,0-1-.65,5.18,5.18,0,0,0-1.6-.18h-.64v6.57Zm3.18-9.08h2.35a12,12,0,0,0,2.86-.2,1.75,1.75,0,0,0,.89-.66,2.11,2.11,0,0,0,.32-1.19,1.9,1.9,0,0,0-.42-1.28,2,2,0,0,0-1.2-.62c-.26,0-1-.05-2.32-.05H202.1Z"/><path class="cls-3" d="M230.16,37.16H226.7l-1.37-3.57H219l-1.3,3.57h-3.37l6.13-15.74h3.36Zm-5.85-6.23-2.17-5.84L220,30.93Zm-4-10.42,1.48-3.21h3.39l-3,3.21Z"/><path class="cls-3" d="M233,37.16V21.42h10.8v2.66h-7.62v3.73h6.58v2.66h-6.58v6.69Z"/><path class="cls-3" d="M247.52,37.16V21.42h3.18V37.16Z"/><path class="cls-3" d="M265,31.37l3.08,1a6.87,6.87,0,0,1-2.35,3.83,7.43,7.43,0,0,1-9.34-.89,8.18,8.18,0,0,1-2-5.86,8.59,8.59,0,0,1,2-6.11,7,7,0,0,1,5.34-2.17,6.58,6.58,0,0,1,4.69,1.7A6.22,6.22,0,0,1,268,25.76l-3.15.75a3.24,3.24,0,0,0-3.31-2.65,3.6,3.6,0,0,0-2.85,1.26,6.21,6.21,0,0,0-1.09,4.07,6.61,6.61,0,0,0,1.08,4.26,3.48,3.48,0,0,0,2.79,1.26,3.16,3.16,0,0,0,2.18-.8A4.64,4.64,0,0,0,265,31.37Z"/><path class="cls-3" d="M271.3,29.39a10,10,0,0,1,.72-4,7.52,7.52,0,0,1,1.47-2.16,6.13,6.13,0,0,1,2-1.42,8.54,8.54,0,0,1,3.39-.62,7.39,7.39,0,0,1,5.57,2.16,8.28,8.28,0,0,1,2.09,6,8.27,8.27,0,0,1-2.07,6,8.29,8.29,0,0,1-11.13,0A8.15,8.15,0,0,1,271.3,29.39Zm3.28-.11a5.86,5.86,0,0,0,1.24,4A4,4,0,0,0,279,34.71a4,4,0,0,0,3.12-1.37,6,6,0,0,0,1.22-4.1,5.91,5.91,0,0,0-1.18-4,4.4,4.4,0,0,0-6.33,0A6,6,0,0,0,274.58,29.28Z"/><polygon class="cls-4" points="67.98 2.67 37.68 2.67 22.52 28.92 37.68 55.17 67.98 55.17 83.14 28.92 67.98 2.67"/><polygon class="cls-5" points="66.76 4.79 38.9 4.79 24.97 28.92 38.9 53.05 66.76 53.05 80.7 28.92 66.76 4.79"/><polygon class="cls-6" points="50.91 22.2 40.21 16.02 40.21 23.45 50.91 29.62 50.91 22.2"/><polygon class="cls-7" points="61.6 16.02 50.91 22.2 50.91 29.62 61.6 23.45 61.6 16.02"/><polygon class="cls-8" points="50.91 29.62 40.21 23.45 40.21 26.91 50.91 33.08 50.91 29.62"/><polygon class="cls-9" points="61.6 23.45 50.91 29.62 50.91 33.08 61.6 26.91 61.6 23.45"/><polygon class="cls-10" points="61.6 16.02 50.91 9.85 40.21 16.02 50.91 22.2 61.6 16.02"/><polygon class="cls-11" points="50.91 41.37 40.21 35.19 40.21 41.82 50.91 47.99 50.91 41.37"/><polygon class="cls-12" points="61.6 35.19 50.91 41.37 50.91 47.99 61.6 41.82 61.6 35.19"/><polygon class="cls-13" points="50.91 33.08 40.21 26.91 40.21 35.22 50.91 41.4 50.91 33.08"/><polygon class="cls-14" points="61.6 26.91 50.91 33.08 50.91 41.4 61.6 35.22 61.6 26.91"/><text class="cls-15" transform="matrix(0.87, -0.5, 0, 1, 64.07, 38.44)">70%</text><text class="cls-15" transform="matrix(0.87, -0.5, 0, 1, 64.07, 31.28)">90%</text><text class="cls-15" transform="matrix(0.87, -0.5, 0, 1, 64.07, 24.97)">30%</text><text class="cls-15" transform="matrix(0.87, -0.5, 0, 1, 64.07, 19.42)">80%</text></svg>