<svg id="Camada_1" data-name="Camada 1" xmlns="http://www.w3.org/2000/svg" xmlns:xlink="http://www.w3.org/1999/xlink" viewBox="0 0 366.45 52.49"><defs><style>.cls-1{fill:#24397d;}.cls-2,.cls-9{fill:none;}.cls-3{clip-path:url(#clip-path);}.cls-4{fill:#29235c;}.cls-5{fill:url(#Gradiente_sem_nome_7);}.cls-6{fill:#303031;}.cls-7{clip-path:url(#clip-path-2);}.cls-8{fill:url(#linear-gradient);}.cls-9{stroke:#f8f8f7;stroke-miterlimit:10;stroke-width:0.25px;}.cls-10{fill:url(#linear-gradient-2);}.cls-11{fill:url(#linear-gradient-3);}.cls-12{fill:url(#linear-gradient-4);}.cls-13{fill:url(#linear-gradient-5);}.cls-14{fill:url(#linear-gradient-6);}.cls-15{fill:url(#linear-gradient-7);}.cls-16{fill:url(#linear-gradient-8);}.cls-17{fill:url(#linear-gradient-9);}.cls-18{fill:url(#linear-gradient-10);}.cls-19{fill:url(#linear-gradient-11);}.cls-20{fill:url(#linear-gradient-12);}.cls-21{fill:url(#linear-gradient-13);}.cls-22{fill:url(#linear-gradient-14);}.cls-23{fill:url(#linear-gradient-15);}.cls-24{fill:url(#linear-gradient-16);}.cls-25{fill:url(#linear-gradient-17);}.cls-26{fill:url(#linear-gradient-18);}.cls-27{fill:url(#linear-gradient-19);}.cls-28{fill:#f8f8f7;}.cls-29{fill:url(#linear-gradient-20);}.cls-30{fill:url(#linear-gradient-21);}.cls-31{fill:url(#linear-gradient-22);}.cls-32{fill:url(#linear-gradient-23);}.cls-33{fill:url(#linear-gradient-24);}.cls-34{fill:url(#linear-gradient-25);}.cls-35{fill:url(#linear-gradient-26);}.cls-36{fill:url(#linear-gradient-27);}.cls-37{fill:url(#linear-gradient-28);}.cls-38{fill:url(#linear-gradient-29);}.cls-39{fill:url(#linear-gradient-30);}.cls-40{fill:url(#linear-gradient-31);}.cls-41{fill:url(#linear-gradient-32);}.cls-42{fill:url(#linear-gradient-33);}.cls-43{fill:url(#linear-gradient-34);}.cls-44{fill:url(#linear-gradient-35);}.cls-45{fill:url(#linear-gradient-36);}.cls-46{fill:url(#linear-gradient-37);}.cls-47{fill:url(#linear-gradient-38);}.cls-48{fill:url(#linear-gradient-39);}.cls-49{fill:url(#linear-gradient-40);}.cls-50{fill:#8a8b8b;}.cls-51{fill:#010101;}.cls-52{font-size:21px;fill:#fff;font-family:Arial-BoldMT, Arial;font-weight:700;}.cls-53{letter-spacing:-0.04em;}.cls-54{letter-spacing:-0.07em;}</style><clipPath id="clip-path"><rect class="cls-1" y="10.59" width="366.45" height="31.89"/></clipPath><radialGradient id="Gradiente_sem_nome_7" cx="51.72" cy="26.25" r="33.39" gradientUnits="userSpaceOnUse"><stop offset="0.07" stop-color="#fff"/><stop offset="0.19" stop-color="#f6f6f6"/><stop offset="0.33" stop-color="#f2f2f2"/><stop offset="0.45" stop-color="#ecebeb"/><stop offset="0.63" stop-color="#dad9d8"/><stop offset="0.81" stop-color="#c2bfbd"/></radialGradient><clipPath id="clip-path-2"><path class="cls-2" d="M49.73,38.77a2,2,0,0,1,1.51-.72,2.15,2.15,0,0,1,1.52.69,4.81,4.81,0,0,1,3.58-1.47c2.37,0,5.83,2,12.7,1.5,0,0-.39-16-17.76-16-17.65-.06-17.77,15.73-18.05,16,.23-.22,6.21.22,10.2-1a6.64,6.64,0,0,1,3.49-.4A4.47,4.47,0,0,1,49.73,38.77Z"/></clipPath><linearGradient id="linear-gradient" x1="33.63" y1="37.5" x2="49.96" y2="37.5" gradientUnits="userSpaceOnUse"><stop offset="0" stop-color="#f5f5f5"/><stop offset="1" stop-color="#a3a2a2"/></linearGradient><linearGradient id="linear-gradient-2" x1="92.64" y1="70.71" x2="108.97" y2="70.71" gradientTransform="matrix(1, 0.05, -0.05, 1, -54.87, -39.02)" gradientUnits="userSpaceOnUse"><stop offset="0" stop-color="#fafafa"/><stop offset="1" stop-color="#a3a2a2"/></linearGradient><linearGradient id="linear-gradient-3" x1="130.02" y1="89.57" x2="146.35" y2="89.57" gradientTransform="translate(-87.73 -64.61) rotate(5.05)" gradientUnits="userSpaceOnUse"><stop offset="0" stop-color="#fafafa"/><stop offset="0.88" stop-color="#b9b8b8"/></linearGradient><linearGradient id="linear-gradient-4" x1="196.13" y1="119.13" x2="212.45" y2="119.13" gradientTransform="translate(-142.54 -111.39) rotate(8.39)" gradientUnits="userSpaceOnUse"><stop offset="0" stop-color="#fafafa"/><stop offset="1" stop-color="#b9b8b8"/></linearGradient><linearGradient id="linear-gradient-5" x1="277.45" y1="149.08" x2="293.76" y2="149.08" gradientTransform="translate(-204.86 -170.76) rotate(12.32)" xlink:href="#linear-gradient-4"/><linearGradient id="linear-gradient-6" x1="334.51" y1="166.37" x2="350.82" y2="166.37" gradientTransform="translate(-245.36 -213.97) rotate(15.01)" xlink:href="#linear-gradient-4"/><linearGradient id="linear-gradient-7" x1="422.45" y1="188.77" x2="438.75" y2="188.77" gradientTransform="translate(-302.51 -284.09) rotate(19.06)" xlink:href="#linear-gradient-4"/><linearGradient id="linear-gradient-8" x1="509.45" y1="203.04" x2="525.73" y2="203.04" gradientTransform="translate(-353.69 -355.01) rotate(23.04)" xlink:href="#linear-gradient-4"/><linearGradient id="linear-gradient-9" x1="559.35" y1="213.97" x2="575.61" y2="213.97" gradientTransform="translate(-376.04 -399.91) rotate(25.32)" xlink:href="#linear-gradient-4"/><linearGradient id="linear-gradient-10" x1="611.01" y1="222.58" x2="627.27" y2="222.58" gradientTransform="translate(-398.17 -446.47) rotate(27.61) scale(0.99)" xlink:href="#linear-gradient-4"/><linearGradient id="linear-gradient-11" x1="662.28" y1="226.61" x2="678.53" y2="226.61" gradientTransform="matrix(0.86, 0.49, -0.49, 0.86, -419.58, -492.09)" xlink:href="#linear-gradient-4"/><linearGradient id="linear-gradient-12" x1="714.99" y1="226.9" x2="731.22" y2="226.9" gradientTransform="translate(-441.72 -538.65) rotate(32.21) scale(0.99)" xlink:href="#linear-gradient-4"/><linearGradient id="linear-gradient-13" x1="766.25" y1="222.63" x2="782.48" y2="222.63" gradientTransform="translate(-463.13 -584.28) rotate(34.51) scale(0.99)" xlink:href="#linear-gradient-4"/><linearGradient id="linear-gradient-14" x1="818.28" y1="213.37" x2="834.49" y2="213.37" gradientTransform="translate(-486.2 -630.11) rotate(36.8)" xlink:href="#linear-gradient-4"/><linearGradient id="linear-gradient-15" x1="867.53" y1="201.11" x2="883.73" y2="201.11" gradientTransform="matrix(0.78, 0.63, -0.63, 0.78, -507.61, -675.73)" xlink:href="#linear-gradient-4"/><linearGradient id="linear-gradient-16" x1="974.95" y1="182.19" x2="991.12" y2="182.19" gradientTransform="translate(-537.29 -780.12) rotate(43.8)" xlink:href="#linear-gradient-4"/><linearGradient id="linear-gradient-17" x1="1305.8" y1="62.92" x2="1321.78" y2="62.92" gradientTransform="matrix(0.52, 0.86, -0.86, 0.52, -579.56, -1125.02)" xlink:href="#linear-gradient-4"/><linearGradient id="linear-gradient-18" x1="1353.42" y1="37.22" x2="1369.49" y2="37.22" gradientTransform="translate(-576.44 -1179.46) rotate(61.14)" xlink:href="#linear-gradient-4"/><linearGradient id="linear-gradient-19" x1="1362.34" y1="31.71" x2="1377.68" y2="31.71" gradientTransform="matrix(0.48, 0.88, -0.88, 0.48, -576.4, -1188.56)" xlink:href="#linear-gradient-4"/><linearGradient id="linear-gradient-20" x1="1645.96" y1="37.5" x2="1662.29" y2="37.5" gradientTransform="matrix(-1, 0, 0, 1, 1714.78, 0)" gradientUnits="userSpaceOnUse"><stop offset="0" stop-color="#f5f5f5"/><stop offset="1" stop-color="#afafaf"/></linearGradient><linearGradient id="linear-gradient-21" x1="1702.62" y1="-17.01" x2="1718.95" y2="-17.01" gradientTransform="matrix(-1, 0.05, 0.05, 1, 1769.65, -39.02)" gradientUnits="userSpaceOnUse"><stop offset="0" stop-color="#fafafa"/><stop offset="1" stop-color="#afafaf"/></linearGradient><linearGradient id="linear-gradient-22" x1="1736.13" y1="-52.32" x2="1752.46" y2="-52.32" gradientTransform="matrix(-1, 0.09, 0.09, 1, 1802.51, -64.61)" gradientUnits="userSpaceOnUse"><stop offset="0" stop-color="#fafafa"/><stop offset="0.88" stop-color="#c1c1c1"/></linearGradient><linearGradient id="linear-gradient-23" x1="1791.2" y1="-116.11" x2="1807.53" y2="-116.11" gradientTransform="matrix(-0.99, 0.15, 0.15, 0.99, 1857.32, -111.39)" gradientUnits="userSpaceOnUse"><stop offset="0" stop-color="#fafafa"/><stop offset="1" stop-color="#c1c1c1"/></linearGradient><linearGradient id="linear-gradient-24" x1="1852.59" y1="-194.97" x2="1868.9" y2="-194.97" gradientTransform="matrix(-0.98, 0.21, 0.21, 0.98, 1919.64, -170.76)" xlink:href="#linear-gradient-23"/><linearGradient id="linear-gradient-25" x1="1891.79" y1="-251.21" x2="1908.1" y2="-251.21" gradientTransform="matrix(-0.97, 0.26, 0.26, 0.97, 1960.14, -213.97)" xlink:href="#linear-gradient-23"/><linearGradient id="linear-gradient-26" x1="1946.45" y1="-337.88" x2="1962.74" y2="-337.88" gradientTransform="matrix(-0.95, 0.33, 0.33, 0.95, 2017.29, -284.09)" xlink:href="#linear-gradient-23"/><linearGradient id="linear-gradient-27" x1="1993.18" y1="-428.05" x2="2009.46" y2="-428.05" gradientTransform="matrix(-0.92, 0.39, 0.39, 0.92, 2068.47, -355.01)" xlink:href="#linear-gradient-23"/><linearGradient id="linear-gradient-28" x1="2023.73" y1="-478.76" x2="2040" y2="-478.76" gradientTransform="matrix(-0.9, 0.43, 0.43, 0.9, 2090.82, -399.91)" xlink:href="#linear-gradient-23"/><linearGradient id="linear-gradient-29" x1="2051.25" y1="-530.56" x2="2067.51" y2="-530.56" gradientTransform="matrix(-0.88, 0.46, 0.46, 0.88, 2112.95, -446.47)" xlink:href="#linear-gradient-23"/><linearGradient id="linear-gradient-30" x1="2073.4" y1="-584.96" x2="2089.64" y2="-584.96" gradientTransform="matrix(-0.86, 0.49, 0.49, 0.86, 2134.36, -492.09)" xlink:href="#linear-gradient-23"/><linearGradient id="linear-gradient-31" x1="2092.4" y1="-640.8" x2="2108.64" y2="-640.8" gradientTransform="matrix(-0.84, 0.53, 0.53, 0.84, 2156.5, -538.65)" xlink:href="#linear-gradient-23"/><linearGradient id="linear-gradient-32" x1="2105.56" y1="-698.1" x2="2121.79" y2="-698.1" gradientTransform="matrix(-0.82, 0.56, 0.56, 0.82, 2177.91, -584.28)" xlink:href="#linear-gradient-23"/><linearGradient id="linear-gradient-33" x1="2115.47" y1="-757.11" x2="2131.68" y2="-757.11" gradientTransform="matrix(-0.8, 0.6, 0.6, 0.8, 2200.98, -630.11)" xlink:href="#linear-gradient-23"/><linearGradient id="linear-gradient-34" x1="2119.25" y1="-815" x2="2135.47" y2="-815" gradientTransform="matrix(-0.78, 0.63, 0.63, 0.78, 2222.39, -675.73)" xlink:href="#linear-gradient-23"/><linearGradient id="linear-gradient-35" x1="2138.59" y1="-933.82" x2="2154.75" y2="-933.82" gradientTransform="matrix(-0.72, 0.69, 0.69, 0.72, 2252.07, -780.12)" xlink:href="#linear-gradient-23"/><linearGradient id="linear-gradient-36" x1="2140.67" y1="-1316.37" x2="2156.52" y2="-1316.37" gradientTransform="matrix(-0.52, 0.86, 0.86, 0.52, 2294.34, -1125.02)" xlink:href="#linear-gradient-23"/><linearGradient id="linear-gradient-37" x1="2131.59" y1="-1374.81" x2="2147.53" y2="-1374.81" gradientTransform="matrix(-0.48, 0.88, 0.88, 0.48, 2291.22, -1179.46)" xlink:href="#linear-gradient-23"/><linearGradient id="linear-gradient-38" x1="2130.8" y1="-1385.65" x2="2146.02" y2="-1385.65" gradientTransform="matrix(-0.48, 0.88, 0.88, 0.48, 2291.18, -1188.56)" xlink:href="#linear-gradient-23"/><linearGradient id="linear-gradient-39" x1="1410.8" y1="-56.28" x2="1424.47" y2="-56.28" gradientTransform="matrix(0.48, 0.88, -0.88, 0.48, -674.78, -1188.56)" xlink:href="#linear-gradient-21"/><linearGradient id="linear-gradient-40" x1="2132.39" y1="-1387.19" x2="2146.05" y2="-1387.19" gradientTransform="matrix(-0.48, 0.88, 0.88, 0.48, 2291.18, -1188.56)" xlink:href="#linear-gradient-23"/></defs><title>LEITURA COMPLEMENTAR</title><rect class="cls-1" y="10.59" width="366.45" height="31.89"/><g class="cls-3"><path class="cls-1" d="M8,10.59S0,10.59,0,18.93V34.14s0,8.34,8,8.34H358.5s7.95,0,7.95-8.34V18.93s0-8.34-7.95-8.34Z"/></g><polygon class="cls-4" points="66.87 0 36.57 0 21.41 26.25 36.57 52.49 66.87 52.49 82.03 26.25 66.87 0"/><polygon class="cls-5" points="65.65 2.11 37.79 2.11 23.85 26.25 37.79 50.38 65.65 50.38 79.59 26.25 65.65 2.11"/><path class="cls-6" d="M33.73,38.79l15.93-.1.51.46H52.6l.37-.36,15.83,0A62.52,62.52,0,0,0,33.73,38.79Z"/><g class="cls-7"><path class="cls-8" d="M49.79,38.77a4.58,4.58,0,0,0-3.93-1.55c-2.81.08-3.59,1.24-12.23,1.46l1.19-.87a25.58,25.58,0,0,0,6.42-.74c2.37-.79,6.48-1.81,8.7,1.11l0,0Z"/><path class="cls-9" d="M49.81,38.77a4.58,4.58,0,0,0-3.93-1.55c-2.8.08-3.59,1.24-12.23,1.46"/><path class="cls-9" d="M52.66,38.77a4.59,4.59,0,0,1,3.94-1.55c2.8.08,3.59,1.24,12.22,1.46"/><path class="cls-10" d="M49.86,38.77A4.58,4.58,0,0,0,46,37c-2.81-.07-3.66,1.05-12.29.81L35,37a25.31,25.31,0,0,0,6.46-.4C43.83,36,48,35.15,50,38.19l0,0Z"/><path class="cls-11" d="M49.88,38.73a4.56,4.56,0,0,0-3.78-1.88c-2.8-.16-3.69.93-12.31.41l1.27-.77a25.29,25.29,0,0,0,6.46-.19c2.43-.58,6.62-1.24,8.57,1.86v0Z"/><path class="cls-12" d="M49.9,38.73a4.56,4.56,0,0,0-3.66-2.09c-2.79-.32-3.74.71-12.32-.3l1.63-.91A23.94,23.94,0,0,0,42,35.7c2.46-.43,6.34-.74,8.1,2.47v0Z"/><path class="cls-13" d="M49.9,38.73a4.52,4.52,0,0,0-3.5-2.33c-2.76-.51-3.78.46-12.26-1.13l1.79-.81a41.13,41.13,0,0,0,6,.82c2.51-.06,6.73-.41,8.26,2.91v0Z"/><path class="cls-9" d="M49.9,38.73a4.52,4.52,0,0,0-3.5-2.33c-2.76-.51-3.78.46-12.26-1.13l1.35-.6"/><path class="cls-14" d="M49.92,38.73a4.54,4.54,0,0,0-3.39-2.5c-2.73-.63-3.8.29-12.2-1.68l1.84-.73a40.84,40.84,0,0,0,5.94,1.09c2.51.06,6.74-.1,8.11,3.29v0Z"/><path class="cls-9" d="M49.92,38.73a4.54,4.54,0,0,0-3.39-2.5c-2.73-.63-3.8.29-12.2-1.68L35.71,34"/><path class="cls-15" d="M49.93,38.73A4.52,4.52,0,0,0,46.73,36c-2.68-.82-3.81,0-12-2.53l2-.6a17.58,17.58,0,0,0,5.77,1.51c2.5,0,6.73.36,7.85,3.83v0Z"/><path class="cls-9" d="M49.93,38.73A4.52,4.52,0,0,0,46.73,36c-2.68-.82-3.81,0-12-2.53L36.1,33"/><path class="cls-16" d="M50,38.68a4.47,4.47,0,0,0-3-2.93c-2.61-1-3.8-.24-11.83-3.34l1.44-.35a25.36,25.36,0,0,0,6.21,1.77c2.49.19,6.68.82,7.56,4.36v0Z"/><path class="cls-9" d="M50,38.68a4.47,4.47,0,0,0-3-2.93c-2.61-1-3.8-.24-11.83-3.34l1.44-.35"/><path class="cls-17" d="M50.1,38.62a4.45,4.45,0,0,0-2.87-3c-2.56-1.1-3.77-.38-11.63-3.78l1.45-.29a24.85,24.85,0,0,0,6.1,2c2.47.29,6.63,1.07,7.34,4.63v0Z"/><path class="cls-9" d="M50.1,38.62a4.45,4.45,0,0,0-2.87-3c-2.56-1.1-3.77-.38-11.63-3.78l1.45-.29"/><path class="cls-18" d="M50.22,38.56a4.43,4.43,0,0,0-2.73-3.13c-2.5-1.19-3.74-.53-11.43-4.22L37.51,31a25.15,25.15,0,0,0,6,2.23c2.45.38,6.55,1.33,7.12,4.9v0Z"/><path class="cls-9" d="M50.22,38.56a4.43,4.43,0,0,0-2.73-3.13c-2.5-1.19-3.74-.53-11.43-4.22L37.51,31"/><path class="cls-19" d="M50.35,38.5a4.41,4.41,0,0,0-2.6-3.23C45.3,34,44,34.6,36.52,30.61L38,30.44a24.73,24.73,0,0,0,5.89,2.46c2.43.48,6.5,1.58,6.91,5.17v0Z"/><path class="cls-9" d="M50.35,38.5a4.41,4.41,0,0,0-2.6-3.23C45.3,34,44,34.6,36.52,30.61L38,30.44"/><path class="cls-20" d="M50.47,38.44A4.4,4.4,0,0,0,48,35.11c-2.39-1.38-3.68-.82-11-5.09l1.47-.12a24.77,24.77,0,0,0,5.78,2.69c2.41.57,6.41,1.84,6.69,5.43v0Z"/><path class="cls-9" d="M50.47,38.44A4.4,4.4,0,0,0,48,35.11c-2.39-1.38-3.68-.82-11-5.09l1.47-.12"/><path class="cls-21" d="M50.6,38.38A4.39,4.39,0,0,0,48.27,35c-2.34-1.48-3.64-1-10.83-5.53l1.47-.06a25,25,0,0,0,5.68,2.92C47,33,51,34.37,51.06,38v0Z"/><path class="cls-9" d="M50.6,38.38A4.39,4.39,0,0,0,48.27,35c-2.34-1.48-3.64-1-10.83-5.53l1.47-.06"/><path class="cls-22" d="M50.72,38.32a4.38,4.38,0,0,0-2.19-3.53c-2.28-1.57-3.61-1.11-10.63-6h1.48A24.67,24.67,0,0,0,45,32c2.37.76,6.28,2.34,6.25,6v0Z"/><path class="cls-9" d="M50.72,38.32a4.38,4.38,0,0,0-2.19-3.53c-2.28-1.57-3.61-1.11-10.63-6h1.48"/><path class="cls-23" d="M50.85,38.26a4.42,4.42,0,0,0-2.06-3.63c-2.23-1.67-3.58-1.25-10.43-6.41l1.49.06a25.07,25.07,0,0,0,5.46,3.38c2.35.86,6.2,2.6,6,6.23v0Z"/><path class="cls-9" d="M50.85,38.26a4.42,4.42,0,0,0-2.06-3.63c-2.23-1.67-3.58-1.25-10.43-6.41l1.49.06"/><path class="cls-24" d="M50.9,38.2a4.39,4.39,0,0,0-1.74-3.78c-2.08-1.84-3.47-1.54-9.86-7.23l2.53.09s2.48,2.08,4.54,3.61,5.52,3.38,5.06,7v0Z"/><path class="cls-9" d="M50.9,38.2a4.39,4.39,0,0,0-1.74-3.78c-2.08-1.84-3.47-1.54-9.86-7.23l2.53.09"/><path class="cls-25" d="M50.94,38.2a6.29,6.29,0,0,0-1.22-4.13c-1.53-2.3-6.48-5.5-8.56-8.43l2.08.13s2.06,2.2,5.11,5.37C50.07,32.92,52.2,36,51.53,38v0Z"/><path class="cls-26" d="M51,38.21a6.69,6.69,0,0,0-1-4.42,92.28,92.28,0,0,0-6.7-9.47l1.16.33s8.7,10.1,7.16,13.41v0Z"/><path class="cls-27" d="M51,38.18s1-5-5.84-14.09l1,.23s6.36,8,5.45,13.71l0,0Z"/><path class="cls-9" d="M51,38.18s1-5-5.84-14.09"/><path class="cls-28" d="M49.9,38.73a4.82,4.82,0,0,0-3.49-2,20.64,20.64,0,0,0-4.15.12,32.4,32.4,0,0,1-4.18,0c-1.39-.1-2.78-.23-4.16-.43l-.12,0,.1-.06,1.65-.87-1.61.94V36.3c1.39.11,2.77.26,4.16.32a41.24,41.24,0,0,0,4.16,0,20.22,20.22,0,0,1,4.19,0A4.63,4.63,0,0,1,49.9,38.73Z"/><path class="cls-9" d="M49.88,38.74a4.56,4.56,0,0,0-3.78-1.88c-2.8-.16-3.69.93-12.31.41l1.26-.77"/><path class="cls-29" d="M52.66,38.77a4.58,4.58,0,0,1,3.93-1.55c2.8.08,3.59,1.24,12.23,1.46l-1.19-.87a25.68,25.68,0,0,1-6.43-.74c-2.37-.79-6.48-1.81-8.7,1.11v0Z"/><path class="cls-30" d="M52.59,38.77A4.58,4.58,0,0,1,56.43,37c2.8-.07,3.65,1.05,12.29.81L67.48,37a25.24,25.24,0,0,1-6.45-.4c-2.41-.66-6.57-1.46-8.63,1.58v0Z"/><path class="cls-31" d="M52.56,38.73a4.56,4.56,0,0,1,3.78-1.88c2.8-.16,3.69.93,12.31.41l-1.26-.77a25.29,25.29,0,0,1-6.46-.19c-2.44-.58-6.62-1.24-8.57,1.86l0,0Z"/><path class="cls-32" d="M52.55,38.73a4.56,4.56,0,0,1,3.66-2.09c2.78-.32,3.74.71,12.31-.3l-1.62-.91a24,24,0,0,1-6.49.27c-2.47-.43-6.34-.74-8.1,2.47v0Z"/><path class="cls-33" d="M52.54,38.73a4.52,4.52,0,0,1,3.51-2.33c2.75-.51,3.78.46,12.26-1.13l-1.8-.81a40.91,40.91,0,0,1-6,.82c-2.5-.06-6.72-.41-8.25,2.91l0,0Z"/><path class="cls-9" d="M52.54,38.73a4.52,4.52,0,0,1,3.51-2.33c2.75-.51,3.78.46,12.26-1.13L67,34.67"/><path class="cls-34" d="M52.53,38.73a4.54,4.54,0,0,1,3.39-2.5c2.73-.63,3.79.29,12.19-1.68l-1.83-.73a40.78,40.78,0,0,1-6,1.09c-2.5.06-6.73-.1-8.1,3.29l0,0Z"/><path class="cls-9" d="M52.53,38.73a4.54,4.54,0,0,1,3.39-2.5c2.73-.63,3.79.29,12.19-1.68L66.73,34"/><path class="cls-35" d="M52.52,38.73A4.49,4.49,0,0,1,55.72,36c2.67-.82,3.8,0,12-2.53l-2-.6A17.58,17.58,0,0,1,60,34.39c-2.51,0-6.73.36-7.85,3.83v0Z"/><path class="cls-9" d="M52.52,38.73A4.49,4.49,0,0,1,55.72,36c2.67-.82,3.8,0,12-2.53L66.34,33"/><path class="cls-36" d="M52.47,38.68a4.47,4.47,0,0,1,3-2.93c2.62-1,3.81-.24,11.84-3.34l-1.44-.35a25.52,25.52,0,0,1-6.21,1.77c-2.5.19-6.69.82-7.56,4.36v0Z"/><path class="cls-9" d="M52.47,38.68a4.47,4.47,0,0,1,3-2.93c2.62-1,3.81-.24,11.84-3.34l-1.44-.35"/><path class="cls-37" d="M52.35,38.62a4.45,4.45,0,0,1,2.86-3c2.56-1.1,3.77-.38,11.64-3.78l-1.45-.29a25,25,0,0,1-6.1,2c-2.48.29-6.64,1.07-7.34,4.63v0Z"/><path class="cls-9" d="M52.35,38.62a4.45,4.45,0,0,1,2.86-3c2.56-1.1,3.77-.38,11.64-3.78l-1.45-.29"/><path class="cls-38" d="M52.22,38.56A4.43,4.43,0,0,1,55,35.43c2.51-1.19,3.74-.53,11.44-4.22L64.93,31a25,25,0,0,1-6,2.23c-2.46.38-6.56,1.33-7.13,4.9v0Z"/><path class="cls-9" d="M52.22,38.56A4.43,4.43,0,0,1,55,35.43c2.51-1.19,3.74-.53,11.44-4.22L64.93,31"/><path class="cls-39" d="M52.1,38.5a4.41,4.41,0,0,1,2.59-3.23c2.45-1.29,3.71-.67,11.24-4.66l-1.46-.17a24.73,24.73,0,0,1-5.89,2.46c-2.44.48-6.5,1.58-6.91,5.17v0Z"/><path class="cls-9" d="M52.1,38.5a4.41,4.41,0,0,1,2.59-3.23c2.45-1.29,3.71-.67,11.24-4.66l-1.46-.17"/><path class="cls-40" d="M52,38.44a4.4,4.4,0,0,1,2.46-3.33c2.4-1.38,3.68-.82,11-5.09L64,29.9a24.77,24.77,0,0,1-5.78,2.69c-2.41.57-6.41,1.84-6.69,5.43v0Z"/><path class="cls-9" d="M52,38.44a4.4,4.4,0,0,1,2.46-3.33c2.4-1.38,3.68-.82,11-5.09L64,29.9"/><path class="cls-41" d="M51.85,38.38A4.4,4.4,0,0,1,54.17,35c2.34-1.48,3.65-1,10.84-5.53l-1.48-.06a25.08,25.08,0,0,1-5.67,2.92c-2.39.67-6.36,2.09-6.48,5.7v0Z"/><path class="cls-9" d="M51.85,38.38A4.4,4.4,0,0,1,54.17,35c2.34-1.48,3.65-1,10.84-5.53l-1.48-.06"/><path class="cls-42" d="M51.72,38.32a4.41,4.41,0,0,1,2.19-3.53c2.29-1.57,3.62-1.11,10.64-6H63.07A24.93,24.93,0,0,1,57.5,32c-2.37.76-6.29,2.34-6.26,6v0Z"/><path class="cls-9" d="M51.72,38.32a4.41,4.41,0,0,1,2.19-3.53c2.29-1.57,3.62-1.11,10.64-6H63.07"/><path class="cls-43" d="M51.6,38.26a4.43,4.43,0,0,1,2-3.63c2.23-1.67,3.59-1.25,10.44-6.41l-1.49.06a25.07,25.07,0,0,1-5.46,3.38c-2.35.86-6.06,2.83-5.9,6.47h0Z"/><path class="cls-9" d="M51.6,38.26a4.43,4.43,0,0,1,2-3.63c2.23-1.67,3.59-1.25,10.44-6.41l-1.49.06"/><path class="cls-44" d="M51.55,38.2a4.39,4.39,0,0,1,1.74-3.78c2.08-1.84,3.47-1.54,9.86-7.23l-2.54.09s-2.48,2.08-4.54,3.61-5.3,3.62-4.83,7.23h0Z"/><path class="cls-9" d="M51.55,38.2a4.39,4.39,0,0,1,1.74-3.78c2.08-1.84,3.47-1.54,9.86-7.23l-2.54.09"/><path class="cls-45" d="M51.51,38.2a6.29,6.29,0,0,1,1.22-4.13c1.52-2.3,6.48-5.5,8.55-8.43l-2.07.13s-2.06,2.2-5.12,5.37c-1.72,1.78-3.43,5-2.76,7Z"/><path class="cls-28" d="M51.47,38.26a6.21,6.21,0,0,1,1-3.94,15.17,15.17,0,0,1,2.78-3c1-.89,2.1-1.76,3.12-2.66a24.07,24.07,0,0,0,2.87-2.93,17,17,0,0,1-2.76,3c-1,.93-2,1.82-3.06,2.73a14.75,14.75,0,0,0-2.81,2.94A6.74,6.74,0,0,0,51.47,38.26Z"/><path class="cls-46" d="M51.49,38.21a6.72,6.72,0,0,1,1-4.42,93.06,93.06,0,0,1,6.71-9.47l-1.16.33s-8.27,10.21-6.72,13.52h0Z"/><path class="cls-28" d="M51.49,38.23a6.46,6.46,0,0,1,.67-4c.65-1.2,1.37-2.34,2.12-3.47,1.59-2.2,3.21-4.36,4.93-6.46-.78,1.11-1.57,2.21-2.38,3.29s-1.58,2.2-2.34,3.31S53,33.17,52.3,34.34A7.07,7.07,0,0,0,51.49,38.23Z"/><path class="cls-47" d="M51.43,38.18s-1-5,5.84-14.09l-1,.23s-6,8.11-5,13.81h0Z"/><path class="cls-9" d="M51.43,38.18s-1-5,5.84-14.09"/><path class="cls-28" d="M52.55,38.73A4.63,4.63,0,0,1,56,36.59a20.12,20.12,0,0,1,4.18,0,41.43,41.43,0,0,0,4.17,0c1.39-.06,2.77-.21,4.16-.32l0,.07-1.6-.94,1.64.87.11.06-.12,0c-1.38.2-2.77.33-4.16.43a32.53,32.53,0,0,1-4.19,0A20.62,20.62,0,0,0,56,36.74,4.82,4.82,0,0,0,52.55,38.73Z"/><path class="cls-9" d="M52.57,38.74a4.56,4.56,0,0,1,3.78-1.88c2.8-.16,3.69.93,12.31.41l-1.27-.77"/><path class="cls-48" d="M51.2,38.14s1-4.42-1.53-14.24L49,23.81s2.42,10,2.2,14.33l.1,0Z"/><path class="cls-9" d="M49,23.81s2.42,10,2.2,14.33h0"/><path class="cls-49" d="M51.29,38.18a55.09,55.09,0,0,1,1.53-14.24l.67-.1s-2.42,10-2.2,14.34l-.1,0Z"/><path class="cls-9" d="M53.49,23.84s-2.42,10-2.2,14.34h0"/><path class="cls-28" d="M51,38.26a6.81,6.81,0,0,0-1.14-3.85A14.75,14.75,0,0,0,47,31.47c-1-.91-2.06-1.8-3.07-2.73a17.33,17.33,0,0,1-2.75-3,24,24,0,0,0,2.86,2.93c1,.9,2.09,1.77,3.12,2.66a14.92,14.92,0,0,1,2.79,3A6.27,6.27,0,0,1,51,38.26Z"/><path class="cls-28" d="M51,38.23a7.17,7.17,0,0,0-.82-3.89c-.66-1.17-1.41-2.3-2.18-3.41s-1.55-2.21-2.35-3.31-1.6-2.18-2.37-3.29c1.71,2.1,3.34,4.26,4.92,6.46.76,1.13,1.48,2.27,2.13,3.47A6.53,6.53,0,0,1,51,38.23Z"/></g><path class="cls-50" d="M69.15,38.69H52.86l0,0-.12.11a.85.85,0,0,1-.46.18h-2a.85.85,0,0,1-.46-.18l-.12-.11,0,0H33.36c-.14,0-.25.07-.25.16s.11.16.25.16H49.63l.2.2,0,0a1.33,1.33,0,0,0,.29,0h2.23a1.26,1.26,0,0,0,.29,0l0,0,.2-.2H69.15c.14,0,.25-.07.25-.16S69.29,38.69,69.15,38.69Z"/><path class="cls-51" d="M50.77,19.5l-.06-.32a.41.41,0,0,0-.12-.28.42.42,0,0,0-.31,0A.66.66,0,0,0,50,19a.34.34,0,0,0-.14.22h0a.2.2,0,0,1,.18.05.3.3,0,0,1,.1.17.26.26,0,0,1,0,.21.25.25,0,0,1-.17.11.22.22,0,0,1-.14,0,.31.31,0,0,1-.2-.23.54.54,0,0,1,0-.18.53.53,0,0,1,.32-.38,1.69,1.69,0,0,1,.43-.15,1,1,0,0,1,.63,0,.43.43,0,0,1,.25.31l.21,1.19a2.85,2.85,0,0,0,.09.4c0,.12.12.17.23.15a.19.19,0,0,0,.16-.18,1.32,1.32,0,0,0,0-.43l0-.15a.83.83,0,0,1,0-.15v0h.06l0,.23c0,.08,0,.15,0,.22a.79.79,0,0,1,0,.44.47.47,0,0,1-.37.2.64.64,0,0,1-.37,0,.54.54,0,0,1-.24-.3.63.63,0,0,1-.27.42,1,1,0,0,1-.36.11.7.7,0,0,1-.41,0,.51.51,0,0,1-.32-.41.68.68,0,0,1,.14-.53,1,1,0,0,1,.51-.32,1.08,1.08,0,0,0,.42-.17A.28.28,0,0,0,50.77,19.5Zm.16,1-.13-.72a.3.3,0,0,1-.17.14l-.24.08a.37.37,0,0,0-.22.22.88.88,0,0,0,0,.47,1.17,1.17,0,0,0,.14.42.21.21,0,0,0,.22.07.49.49,0,0,0,.34-.23A.6.6,0,0,0,50.93,20.48Z"/><path class="cls-51" d="M49.91,8.06l0-.22a.34.34,0,0,0-.09-.2.29.29,0,0,0-.22,0,.5.5,0,0,0-.22.1.25.25,0,0,0-.11.16h0a.15.15,0,0,1,.13,0,.24.24,0,0,1,.07.13.21.21,0,0,1,0,.15.24.24,0,0,1-.13.07.12.12,0,0,1-.1,0,.2.2,0,0,1-.14-.16.28.28,0,0,1,0-.13.38.38,0,0,1,.23-.27,1.21,1.21,0,0,1,.3-.11.85.85,0,0,1,.46,0,.34.34,0,0,1,.17.22l.15.86a1.51,1.51,0,0,0,.07.28.13.13,0,0,0,.16.1.13.13,0,0,0,.12-.12,1.19,1.19,0,0,0,0-.31.43.43,0,0,1,0-.11l0-.11v0h0l0,.17c0,.05,0,.1,0,.15a.76.76,0,0,1,0,.31.33.33,0,0,1-.27.15.44.44,0,0,1-.26,0,.34.34,0,0,1-.17-.21.49.49,0,0,1-.2.3.92.92,0,0,1-.25.08.46.46,0,0,1-.29,0A.35.35,0,0,1,49.1,9a.47.47,0,0,1,.1-.38.63.63,0,0,1,.36-.23.74.74,0,0,0,.3-.12A.2.2,0,0,0,49.91,8.06Zm.12.7-.1-.51a.18.18,0,0,1-.12.1l-.17.06a.29.29,0,0,0-.16.15.62.62,0,0,0,0,.34.78.78,0,0,0,.1.3.15.15,0,0,0,.16.05A.32.32,0,0,0,50,9.08.4.4,0,0,0,50,8.76Z"/><path class="cls-51" d="M48.71,26.47l0-.14a.23.23,0,0,0,0-.12s-.07,0-.14,0a.35.35,0,0,0-.14.06.11.11,0,0,0-.06.1h0a.08.08,0,0,1,.08,0,.12.12,0,0,1,0,.08.1.1,0,0,1,0,.09.11.11,0,0,1-.08.05h0a.13.13,0,0,1-.1-.1.25.25,0,0,1,0-.08.25.25,0,0,1,.14-.17.6.6,0,0,1,.19-.06.42.42,0,0,1,.28,0,.18.18,0,0,1,.11.13l.09.53A1.34,1.34,0,0,0,49,27a.11.11,0,0,0,.11.07.1.1,0,0,0,.07-.08,1.42,1.42,0,0,0,0-.19.64.64,0,0,0,0-.07s0-.05,0-.07v0h0l0,.11a.29.29,0,0,1,0,.09.32.32,0,0,1,0,.2s-.07.07-.16.09a.26.26,0,0,1-.16,0,.18.18,0,0,1-.11-.13.29.29,0,0,1-.12.19.5.5,0,0,1-.16.05.31.31,0,0,1-.19,0,.21.21,0,0,1-.13-.18.25.25,0,0,1,.06-.23.44.44,0,0,1,.22-.15.54.54,0,0,0,.19-.07S48.72,26.53,48.71,26.47Zm.07.44-.06-.32a.11.11,0,0,1-.07.06l-.11,0a.18.18,0,0,0-.1.09.48.48,0,0,0,0,.21.59.59,0,0,0,.06.19.1.1,0,0,0,.1,0,.22.22,0,0,0,.15-.1A.28.28,0,0,0,48.78,26.91Z"/><path class="cls-51" d="M52.85,21.64V19.09a.23.23,0,0,0,0-.13l0,0a2,2,0,0,0-.33,0v0l.81-.07v1.52a.58.58,0,0,1,.13-.37.35.35,0,0,1,.3-.18.7.7,0,0,1,.61.35,1.12,1.12,0,0,1,.17.58,1.08,1.08,0,0,1-.22.67.64.64,0,0,1-.51.28.77.77,0,0,1-.39-.07.72.72,0,0,1-.27-.26l-.19.33Zm.4-.69a.82.82,0,0,0,.15.56.41.41,0,0,0,.28.09c.12,0,.2-.08.25-.25A2.25,2.25,0,0,0,54,20.7a1.83,1.83,0,0,0-.09-.69q-.08-.21-.24-.21a.34.34,0,0,0-.29.21,1.35,1.35,0,0,0-.14.66Z"/><path class="cls-51" d="M56.92,14.25A.3.3,0,0,0,56.8,14a.49.49,0,0,0-.25-.07.35.35,0,0,0-.34.22,1.87,1.87,0,0,0-.09.68,1.42,1.42,0,0,0,.12.65.36.36,0,0,0,.32.22.58.58,0,0,0,.42-.16.77.77,0,0,0,.21-.59h0a.84.84,0,0,1-.2.6.67.67,0,0,1-.54.22.74.74,0,0,1-.52-.22.91.91,0,0,1-.29-.68,1,1,0,0,1,.29-.73.75.75,0,0,1,.53-.25.81.81,0,0,1,.35.07.45.45,0,0,1,.3.3.78.78,0,0,1,0,.14.24.24,0,0,1-.13.21.24.24,0,0,1-.12,0,.2.2,0,0,1-.14-.06.21.21,0,0,1-.06-.16.18.18,0,0,1,.06-.14A.2.2,0,0,1,56.92,14.25Z"/><path class="cls-51" d="M51.43,25a.3.3,0,0,0-.18-.17.36.36,0,0,0-.27,0,.31.31,0,0,0-.25.3,1.8,1.8,0,0,0,.11.68,1.4,1.4,0,0,0,.31.59.37.37,0,0,0,.37.11.6.6,0,0,0,.35-.27.79.79,0,0,0,0-.63h0a.9.9,0,0,1,0,.63.73.73,0,0,1-.46.37.7.7,0,0,1-.56-.06.87.87,0,0,1-.48-.56,1,1,0,0,1,.06-.78.8.8,0,0,1,.44-.4,1,1,0,0,1,.35,0,.48.48,0,0,1,.37.21.34.34,0,0,1,.06.12.22.22,0,0,1-.06.24.21.21,0,0,1-.1.06.2.2,0,0,1-.15,0,.24.24,0,0,1-.11-.13.22.22,0,0,1,0-.16A.22.22,0,0,1,51.43,25Z"/><path class="cls-51" d="M44.84,24.16a.14.14,0,0,0-.05-.11.21.21,0,0,0-.11,0,.16.16,0,0,0-.17.08,1,1,0,0,0-.07.31.69.69,0,0,0,0,.31.16.16,0,0,0,.14.11.29.29,0,0,0,.2-.05.36.36,0,0,0,.12-.26h0a.42.42,0,0,1-.11.26.31.31,0,0,1-.26.08.31.31,0,0,1-.23-.12.43.43,0,0,1-.11-.33.48.48,0,0,1,.17-.32.33.33,0,0,1,.25-.09.42.42,0,0,1,.16,0,.21.21,0,0,1,.12.16.11.11,0,0,1-.06.15h0a.09.09,0,0,1-.07,0,.11.11,0,0,1,0-.08.06.06,0,0,1,0-.06A.08.08,0,0,1,44.84,24.16Z"/><path class="cls-51" d="M50.49,16.38a.19.19,0,0,0-.05-.11.21.21,0,0,0-.12,0,.15.15,0,0,0-.16.09.82.82,0,0,0-.07.3.69.69,0,0,0,0,.31.17.17,0,0,0,.14.12.26.26,0,0,0,.19-.06.38.38,0,0,0,.13-.26h0a.42.42,0,0,1-.11.27.38.38,0,0,1-.26.08A.36.36,0,0,1,50,17a.42.42,0,0,1-.1-.33.44.44,0,0,1,.17-.32.33.33,0,0,1,.25-.09l.16,0a.21.21,0,0,1,.12.16.11.11,0,0,1-.06.15h-.06a.09.09,0,0,1-.06,0,.08.08,0,0,1,0-.08.09.09,0,0,1,0-.06A.11.11,0,0,1,50.49,16.38Z"/><path class="cls-51" d="M47.24,18a.83.83,0,0,1-.11.4.4.4,0,0,1-.37.24.65.65,0,0,1-.51-.24A1.09,1.09,0,0,1,46,17.7a1,1,0,0,1,.2-.59.71.71,0,0,1,.6-.34.35.35,0,0,1,.31.21,1.22,1.22,0,0,1,.1.34V16.09a.21.21,0,0,0,0-.12l-.07,0a4.06,4.06,0,0,0-.48,0v0l1-.07v2.56a.23.23,0,0,0,0,.11s0,0,0,0a1.37,1.37,0,0,0,.36,0v0l-.81.08Zm0-.31a1.83,1.83,0,0,0-.1-.66c-.07-.15-.16-.23-.27-.23a.29.29,0,0,0-.29.2,2.09,2.09,0,0,0-.08.69,3.11,3.11,0,0,0,.05.65c0,.17.14.26.28.26s.19-.07.26-.22A1.41,1.41,0,0,0,47.22,17.7Z"/><path class="cls-51" d="M52.85,29a.13.13,0,0,1,0,.06.05.05,0,0,1-.05,0,.11.11,0,0,1-.08,0,.17.17,0,0,1,0-.1.16.16,0,0,1,0-.09.11.11,0,0,1,.09-.05.05.05,0,0,1,0,0,.09.09,0,0,1,0,.05v-.18h0a0,0,0,0,0,0,0h.07v.39h-.06Zm0,0a.25.25,0,0,0,0-.1.05.05,0,0,0,0,0s0,0,0,0a.19.19,0,0,0,0,.1s0,.07,0,.09,0,0,0,0,0,0,0,0A.3.3,0,0,0,52.85,29Z"/><path class="cls-51" d="M47,27.66a.07.07,0,0,1,0,.05.07.07,0,0,1-.06,0,.09.09,0,0,1-.07,0,.18.18,0,0,1,0-.11.19.19,0,0,1,0-.08.11.11,0,0,1,.09-.05.05.05,0,0,1,0,0,.43.43,0,0,1,0,0v-.2h.06v.37H47Zm0-.05a.2.2,0,0,0,0-.09s0,0,0,0,0,0,0,0a.5.5,0,0,0,0,.2s0,0,0,0a.05.05,0,0,0,0,0A.25.25,0,0,0,47,27.61Z"/><path class="cls-51" d="M52.69,23a.34.34,0,0,1-.08.09.13.13,0,0,1-.13,0,.18.18,0,0,1-.11-.14.31.31,0,0,1,.17-.35.21.21,0,0,1,.2,0,.1.1,0,0,1,.06.1.43.43,0,0,1,0,.11l.16-.34a0,0,0,0,0,0,0,0,0,0,0,0,0,0l-.13-.06v0l.28.11-.34.7s0,0,0,0h0l.09.05h0l-.23-.08Zm0-.09a1.36,1.36,0,0,0,.06-.2c0-.05,0-.08,0-.09a.08.08,0,0,0-.1,0,.9.9,0,0,0-.12.18,1.87,1.87,0,0,0-.07.18.1.1,0,0,0,0,.11s.06,0,.11,0A.63.63,0,0,0,52.73,22.88Z"/><path class="cls-51" d="M54.51,15.16a.79.79,0,0,1-.1.4.41.41,0,0,1-.37.24.63.63,0,0,1-.51-.24,1,1,0,0,1-.22-.71,1,1,0,0,1,.2-.59.71.71,0,0,1,.6-.34.32.32,0,0,1,.3.22.75.75,0,0,1,.1.33V13.25a.29.29,0,0,0,0-.12.11.11,0,0,0-.08-.05,4.06,4.06,0,0,0-.48,0v0l1-.07v2.56a.25.25,0,0,0,0,.11l0,0a1.33,1.33,0,0,0,.35,0v0l-.81.08Zm0-.31a1.63,1.63,0,0,0-.1-.66c-.06-.15-.15-.22-.27-.22a.29.29,0,0,0-.29.19,2.16,2.16,0,0,0-.08.7,3,3,0,0,0,0,.64c.05.17.14.26.29.26s.18-.07.26-.22A1.54,1.54,0,0,0,54.49,14.85Z"/><path class="cls-51" d="M47.15,24.66a1.37,1.37,0,0,0,.09.58.32.32,0,0,0,.29.18.48.48,0,0,0,.36-.14.56.56,0,0,0,.19-.46h0a.65.65,0,0,1-1.11.45.75.75,0,0,1-.24-.58.88.88,0,0,1,.24-.64.64.64,0,0,1,.47-.21.56.56,0,0,1,.4.14.85.85,0,0,1,.24.68Zm.64,0a1.62,1.62,0,0,0-.07-.56c0-.12-.11-.19-.2-.19a.3.3,0,0,0-.29.18,1.57,1.57,0,0,0-.08.57Z"/><path class="cls-51" d="M57.27,24.18a.88.88,0,0,0-.14.31.18.18,0,0,0,.08.18.34.34,0,0,0,.22,0,.33.33,0,0,0,.24-.16h0a.36.36,0,0,1-.23.16.35.35,0,0,1-.29-.07.34.34,0,0,1-.15-.23.42.42,0,0,1,.07-.36.51.51,0,0,1,.32-.23.4.4,0,0,1,.29.05.33.33,0,0,1,.15.2.5.5,0,0,1-.11.4Zm.33.19a1.23,1.23,0,0,0,.14-.29c0-.07,0-.12,0-.15a.15.15,0,0,0-.19,0,.75.75,0,0,0-.22.24Z"/><path class="cls-51" d="M51,28a.86.86,0,0,0,.06.37.2.2,0,0,0,.19.12.33.33,0,0,0,.23-.09.38.38,0,0,0,.12-.3h0a.4.4,0,0,1-.11.3.41.41,0,0,1-.31.12.45.45,0,0,1-.3-.13.49.49,0,0,1-.15-.38.56.56,0,0,1,.15-.41.43.43,0,0,1,.31-.14.39.39,0,0,1,.26.09.58.58,0,0,1,.15.45Zm.41,0a1.11,1.11,0,0,0,0-.36c0-.08-.07-.13-.13-.13a.2.2,0,0,0-.19.12A1.09,1.09,0,0,0,51,28Z"/><path class="cls-51" d="M43,22.08a.54.54,0,0,1-.28,0,.45.45,0,0,1-.24-.15.59.59,0,0,1-.14-.52.81.81,0,0,1,.4-.57l.16-.07-.07-.08q-.13-.15-.12-.24a.27.27,0,0,1,.11-.19.14.14,0,0,1,.12,0,.13.13,0,0,1,.11.05.13.13,0,0,1,0,.21.14.14,0,0,1-.21,0,.08.08,0,0,1,0,0s0,0,0-.05a.18.18,0,0,0,0,.14.46.46,0,0,0,.09.14.46.46,0,0,1,.1.1.57.57,0,0,1,.34,0,.5.5,0,0,1,.28.16.49.49,0,0,1,.1.49.88.88,0,0,1-.27.45,1,1,0,0,1-.32.2.65.65,0,0,0-.15.2.24.24,0,0,0,.05.24s.08,0,.15,0a1.21,1.21,0,0,0,.32-.25l.19-.16a1.21,1.21,0,0,1,.5-.32.44.44,0,0,1,.47.15.58.58,0,0,1,.16.52.92.92,0,0,1-.32.52,1.27,1.27,0,0,1-.61.36.39.39,0,0,1-.41-.06.27.27,0,0,1,0-.25,1.36,1.36,0,0,1,.15-.3.94.94,0,0,1-.31.09.35.35,0,0,1-.28-.13.42.42,0,0,1-.12-.29A.38.38,0,0,1,43,22.08Zm.28-.92A1.07,1.07,0,0,0,43,20.9a.32.32,0,0,0-.33.08.3.3,0,0,0-.1.3.77.77,0,0,0,.22.37.89.89,0,0,0,.34.27.31.31,0,0,0,.31-.1.32.32,0,0,0,.11-.29A.78.78,0,0,0,43.32,21.16Zm1.18,1.75a.77.77,0,0,0,.25-.4.35.35,0,0,0-.08-.32.31.31,0,0,0-.29-.12,1.06,1.06,0,0,0-.41.27,1.19,1.19,0,0,0-.34.44.27.27,0,0,0,.09.28.34.34,0,0,0,.26.14A1,1,0,0,0,44.5,22.91Z"/><path class="cls-51" d="M57.18,22.06a.31.31,0,0,1-.1-.13.43.43,0,0,1,0-.16.35.35,0,0,1,.2-.23.44.44,0,0,1,.3,0l.1,0,.08.05v-.05a.22.22,0,0,1,.08-.14.19.19,0,0,1,.13,0,.07.07,0,0,1,.05,0,.06.06,0,0,1,0,.07.07.07,0,0,1-.09.06.08.08,0,0,1-.07-.1l0,0v0a.06.06,0,0,0-.07,0,.19.19,0,0,0,0,.09.28.28,0,0,0,0,.08.33.33,0,0,1,.11.15.28.28,0,0,1,0,.18.29.29,0,0,1-.19.21.51.51,0,0,1-.3,0,.61.61,0,0,1-.2-.09h-.14a.17.17,0,0,0-.1.1s0,.05.05.07a.64.64,0,0,0,.22.08l.13,0a.75.75,0,0,1,.31.14.27.27,0,0,1,.08.27.33.33,0,0,1-.2.24.51.51,0,0,1-.35,0,.76.76,0,0,1-.36-.17c-.08-.08-.11-.15-.09-.22a.13.13,0,0,1,.1-.09l.19,0a.58.58,0,0,1-.14-.12.25.25,0,0,1,0-.17.24.24,0,0,1,.1-.15A.24.24,0,0,1,57.18,22.06Zm.06,1a.48.48,0,0,0,.27,0,.2.2,0,0,0,.13-.14.15.15,0,0,0,0-.17.53.53,0,0,0-.25-.11.75.75,0,0,0-.32,0,.16.16,0,0,0-.1.13.18.18,0,0,0,0,.16A.46.46,0,0,0,57.24,23Zm.46-1.11a.49.49,0,0,0,0-.23.19.19,0,0,0-.14-.13.17.17,0,0,0-.18,0,.5.5,0,0,0-.1.22.45.45,0,0,0,0,.25.18.18,0,0,0,.14.11.17.17,0,0,0,.18,0A.41.41,0,0,0,57.7,21.9Z"/><path class="cls-51" d="M44.62,19.26l.24.51a.25.25,0,0,0,.07.09s0,0,0,0l.12,0,.12-.05,0,0-1,.49,0,0a.87.87,0,0,0,.3-.18l0,0s0-.06,0-.13l-1-2.07a.21.21,0,0,0-.07-.1l-.06,0a1.58,1.58,0,0,0-.31.13l0,0,.7-.42.85,1.77.25-.73a.31.31,0,0,0,0-.26c0-.05-.07-.07-.14-.07a.53.53,0,0,0-.26.07l0,0,.89-.43v0a.72.72,0,0,0-.21.16,1.76,1.76,0,0,0-.14.28l-.12.36,1,.75a.29.29,0,0,0,.16.06.9.9,0,0,0,.23-.08v0l-.94.46,0,0,.2-.1s.06-.06,0-.09l-.07-.08L44.72,19Z"/><path class="cls-51" d="M55,11.06l-.15.31,0,.07,0,0,.06,0,.07,0v0l-.62-.29v0a.63.63,0,0,0,.21.08h0s0,0,0-.06L55.21,10a.25.25,0,0,0,0-.07l0,0L55,9.79v0l.46.17L55,11l.44-.16a.19.19,0,0,0,.13-.09.08.08,0,0,0,0-.09.27.27,0,0,0-.14-.1v0l.55.26v0a.34.34,0,0,0-.16,0,.63.63,0,0,0-.19,0l-.21.07v.76a.12.12,0,0,0,0,.09.49.49,0,0,0,.13.08v0L55,11.59v0l.12,0s0,0,.06,0V11Z"/><path class="cls-51" d="M52.41,11.41a1,1,0,0,1,.17-.29.4.4,0,0,1,.33-.13H53a.59.59,0,0,1,.38.26.48.48,0,0,1,.05.35l-.26,1.11a.31.31,0,0,0,0,.11l0,0,.1,0,.14,0v0l-1-.24v0l.16,0a.3.3,0,0,0,.13,0s0-.05,0-.11l.26-1.07a1.38,1.38,0,0,0,0-.31.21.21,0,0,0-.16-.22.28.28,0,0,0-.28.08,1.3,1.3,0,0,0-.3.52l-.2.84a.35.35,0,0,0,0,.12l0,0,.11,0,.14,0v0l-1-.24v0a.65.65,0,0,0,.26,0h0s0,0,0-.12L52,11.32a1.38,1.38,0,0,0,0-.31.22.22,0,0,0-.16-.22.33.33,0,0,0-.35.17,1.85,1.85,0,0,0-.23.45l-.2.83a.23.23,0,0,0,0,.11s0,0,0,0a.38.38,0,0,0,.11,0l.13,0v0l-1.06-.25v0l.18,0a.51.51,0,0,0,.17,0s0,0,.06-.12l.3-1.27s0,0,0-.08a.13.13,0,0,0,0-.06.09.09,0,0,0,0-.06,1.48,1.48,0,0,0-.28-.09v0l.77.11-.13.53a1.11,1.11,0,0,1,.17-.29.37.37,0,0,1,.33-.15H52a.57.57,0,0,1,.37.25A.58.58,0,0,1,52.41,11.41Z"/><path class="cls-51" d="M53.31,8.58l-.06.26c0,.09,0,.18,0,.26a1.2,1.2,0,0,1-.23.53.56.56,0,0,1-.53.09A.71.71,0,0,1,52,9.43a.67.67,0,0,1,0-.51l.38-1.63-.45-.11v0a1.1,1.1,0,0,0,.84-.38A1.63,1.63,0,0,0,53.08,6l.1,0-.29,1.21.66.16,0,.16-.66-.15L52.48,9a2.09,2.09,0,0,0-.07.41.25.25,0,0,0,.2.27A.3.3,0,0,0,53,9.48a2.58,2.58,0,0,0,.21-.64l.07-.28Z"/><path class="cls-51" d="M51.23,22.56a.6.6,0,0,1,.05-.16.23.23,0,0,1,.15-.11h.06a.34.34,0,0,1,.23.08.27.27,0,0,1,.06.17v.6a.12.12,0,0,0,0,.05,0,0,0,0,0,0,0H52v0h-.53v0h.08l.06,0s0,0,0-.06v-.57a.71.71,0,0,0,0-.16c0-.07-.06-.1-.11-.1a.16.16,0,0,0-.13.08.66.66,0,0,0-.09.3v.45s0,.05,0,.06h.15v0h-.53v0l.13,0h0a.22.22,0,0,0,0-.06v-.57a.57.57,0,0,0,0-.16c0-.07,0-.1-.11-.1a.18.18,0,0,0-.15.13.77.77,0,0,0-.06.26v.5h.16v0h-.57v0h.1l.08,0s0,0,0-.06v-.72s0,0,0,0,0,0,0,0h-.16v0l.41,0v.29a.61.61,0,0,1,0-.17.21.21,0,0,1,.16-.12h.06a.26.26,0,0,1,.29.27Z"/><path class="cls-51" d="M53.48,27.49a.23.23,0,0,1,0-.11.13.13,0,0,1,.1-.08h.05a.2.2,0,0,1,.15.06.17.17,0,0,1,0,.12v.45H54v0h-.37v0h.06l0,0s0,0,0,0v-.4a.34.34,0,0,0,0-.11.07.07,0,0,0-.07-.06.11.11,0,0,0-.1.05.93.93,0,0,0-.06.21v.31s0,0,0,0a0,0,0,0,0,0,0h.09v0h-.37v0h.11v-.45a.34.34,0,0,0,0-.11.07.07,0,0,0-.07-.06.12.12,0,0,0-.11.08.8.8,0,0,0,0,.18v.35h.11v0h-.4v0h.13s0,0,0-.05v-.5s0,0,0,0l0,0h-.1l.28,0v.2a.21.21,0,0,1,0-.12.13.13,0,0,1,.11-.08h0a.21.21,0,0,1,.15.05A.22.22,0,0,1,53.48,27.49Z"/><path class="cls-51" d="M44.89,13.86a1.11,1.11,0,0,1,0-.4.4.4,0,0,1,.25-.34.64.64,0,0,1,.57.05,1.09,1.09,0,0,1,.45.59.94.94,0,0,1,0,.62.71.71,0,0,1-.44.53.34.34,0,0,1-.35-.09.82.82,0,0,1-.21-.27l.41,1.11a.15.15,0,0,0,0,.1h0a1.16,1.16,0,0,0,.36-.1l0,0-1.18.43,0,0L45,16l.15-.09s0-.06,0-.13l-.78-2.1a.21.21,0,0,0-.06-.1.11.11,0,0,0-.07,0,1.13,1.13,0,0,0-.33.1v0l.75-.36Zm.14.31a1.78,1.78,0,0,0,.32.58q.18.18.33.12a.28.28,0,0,0,.2-.28,2,2,0,0,0-.16-.68,3.49,3.49,0,0,0-.27-.59.29.29,0,0,0-.36-.15c-.09,0-.14.14-.16.3A1.41,1.41,0,0,0,45,14.17Z"/><path class="cls-51" d="M49.22,13.52a1.15,1.15,0,0,1,.12-.18l.22.6h0a.89.89,0,0,0-.34-.33.5.5,0,0,0-.41,0,.44.44,0,0,0-.22.14.29.29,0,0,0,0,.3.26.26,0,0,0,.22.18,1.73,1.73,0,0,0,.43,0,1.38,1.38,0,0,1,.47,0,.52.52,0,0,1,.31.35.46.46,0,0,1,0,.46.65.65,0,0,1-.32.23,1.13,1.13,0,0,1-.26.07.83.83,0,0,1-.31-.08l-.1.26-.26-.72h0a2.11,2.11,0,0,0,.24.31.8.8,0,0,0,.2.15.47.47,0,0,0,.22,0,1,1,0,0,0,.26-.07.32.32,0,0,0,.18-.14.31.31,0,0,0,0-.25.37.37,0,0,0-.23-.23,1.21,1.21,0,0,0-.41,0,1,1,0,0,1-.46,0,.48.48,0,0,1-.31-.31.53.53,0,0,1,0-.41.52.52,0,0,1,.3-.28.77.77,0,0,1,.29-.05A.85.85,0,0,0,49.22,13.52Z"/><path class="cls-51" d="M51,15.19a3.39,3.39,0,0,0,.62-.35,1,1,0,0,0,.23-.33l0,0L53,16.76a.51.51,0,0,0,.08.14.16.16,0,0,0,.07,0,.58.58,0,0,0,.17,0,1.12,1.12,0,0,0,.26-.11l0,0-1.48.72,0,0a1.77,1.77,0,0,0,.28-.15l.16-.11a.11.11,0,0,0,0-.07.33.33,0,0,0,0-.14l-.88-1.8a.42.42,0,0,0-.08-.13h-.09a.56.56,0,0,0-.15,0l-.31.14Z"/><path class="cls-51" d="M55.41,20.42a1.81,1.81,0,0,0,.34,0,.36.36,0,0,0,.17-.07h0l-.16,1.18s0,.06,0,.07,0,0,0,0l.08,0,.13,0h0l-.77-.1v0l.15,0h.09s0,0,0,0,0,0,0-.06l.13-.94v-.07l0,0-.08,0-.15,0Z"/><path class="cls-51" d="M48.76,28a1,1,0,0,0,.18-.11.23.23,0,0,0,.07-.1h0l.34.7,0,0h.07a.2.2,0,0,0,.08,0h0l-.45.22h0l.09-.05s0,0,0,0,0,0,0,0l0,0L49,28l0,0s0,0,0,0h0l-.09,0Z"/><path class="cls-51" d="M45.4,21.26a1,1,0,0,0,.29,0,.4.4,0,0,0,.15-.09h0l0,1.26a.17.17,0,0,0,0,.08h0l.07,0h.12v0h-.68v0h.13l.08,0,0,0V22.4l0-1s0-.06,0-.07l0,0h-.2Z"/><path class="cls-51" d="M48.29,21.82V22a2.69,2.69,0,0,1,0,.31.52.52,0,0,1-.07.22.41.41,0,0,1-.62.18.55.55,0,0,1-.2-.2,1,1,0,0,0-.17-.22.3.3,0,0,0-.18-.05c-.05,0-.09,0-.13.1a.74.74,0,0,0-.08.36h-.07a1.23,1.23,0,0,1,.24-.83,1.16,1.16,0,0,1,.45-.29.63.63,0,0,0,.33-.31,1.15,1.15,0,0,0,.11-.5,1.41,1.41,0,0,0-.09-.49.55.55,0,0,0-.17-.26.37.37,0,0,0-.2,0,.51.51,0,0,0-.44.27,1,1,0,0,0-.15.51s0,.06,0,.07a.15.15,0,0,1,.06-.09.11.11,0,0,1,.08,0,.21.21,0,0,1,.12.05.26.26,0,0,1,.07.15.17.17,0,0,1,0,.08.29.29,0,0,1-.07.2.19.19,0,0,1-.15.08.15.15,0,0,1-.08,0,.19.19,0,0,1-.12-.14.62.62,0,0,1,0-.25,1.09,1.09,0,0,1,.18-.61.69.69,0,0,1,.58-.32.76.76,0,0,1,.7.37,1.13,1.13,0,0,1,.17.62.61.61,0,0,1-.13.43.74.74,0,0,1-.44.24,1.69,1.69,0,0,0-.65.24.69.69,0,0,0-.24.37.15.15,0,0,1,.1,0l.47.11a1.18,1.18,0,0,0,.35.05H48a.3.3,0,0,0,.21-.14.71.71,0,0,0,0-.23v-.13Z"/><path class="cls-51" d="M51.62,29.53v.15s0,.05,0,.07l-.05.06-.06,0a.13.13,0,0,1-.08,0,.17.17,0,0,1-.06-.06s0-.06-.05-.06l0,0s0,0,0,0a.18.18,0,0,0,0,.11h0a.36.36,0,0,1,.08-.25s.07-.06.13-.09a.17.17,0,0,0,.1-.1.24.24,0,0,0,0-.15.4.4,0,0,0,0-.15.28.28,0,0,0,0-.08h-.06a.17.17,0,0,0-.14.08.32.32,0,0,0,0,.16v0s0,0,0,0h0a.07.07,0,0,1,.06.06v0a.07.07,0,0,1,0,.06s0,0,0,0h0a.08.08,0,0,1,0,0s0-.05,0-.08a.33.33,0,0,1,.06-.19.2.2,0,0,1,.18-.09.23.23,0,0,1,.21.11.36.36,0,0,1,0,.19.18.18,0,0,1,0,.13.23.23,0,0,1-.14.07.63.63,0,0,0-.19.07.25.25,0,0,0-.08.12h0l.14,0,.11,0h.05a.07.07,0,0,0,.06,0,.15.15,0,0,0,0-.07v0Z"/><path class="cls-51" d="M46.09,26v.15s0,.06,0,.08l-.06.06-.07,0-.08,0-.06-.06,0-.07-.06,0s0,0,0,0a.27.27,0,0,0,0,.11h0a.36.36,0,0,1,.08-.27.33.33,0,0,1,.14-.09.21.21,0,0,0,.11-.1.41.41,0,0,0,0-.16.45.45,0,0,0,0-.16.12.12,0,0,0,0-.08l-.07,0a.17.17,0,0,0-.14.09.33.33,0,0,0-.05.16v0a0,0,0,0,1,0,0h.07s0,0,0,.05v0a.07.07,0,0,1,0,.06.05.05,0,0,1-.05,0h0s0,0,0,0a.19.19,0,0,1,0-.08.34.34,0,0,1,.06-.2.2.2,0,0,1,.18-.1.26.26,0,0,1,.23.12.39.39,0,0,1,0,.2.21.21,0,0,1,0,.14.23.23,0,0,1-.14.07.56.56,0,0,0-.21.08.25.25,0,0,0-.08.12h0l.14,0H46s.06,0,.07,0,0,0,0-.07v0Z"/><path class="cls-51" d="M53.9,26.05l0,0-.05.08,0,0a.13.13,0,0,1-.08,0,.07.07,0,0,1-.06,0s0,0-.06-.05a.24.24,0,0,1,0-.08.55.55,0,0,0,0-.09s0,0,0,0,0,0,0,0-.05,0-.08.08h0a.36.36,0,0,1,.19-.18.28.28,0,0,1,.16,0,.23.23,0,0,0,.14,0,.36.36,0,0,0,.1-.11.88.88,0,0,0,0-.15.13.13,0,0,0,0-.09.07.07,0,0,0-.05,0,.12.12,0,0,0-.15,0,.25.25,0,0,0-.12.11v0l0,0h0s0,0,0,0a0,0,0,0,1,0,.05v0a.07.07,0,0,1,0,0,0,0,0,0,1,0,0h0a.13.13,0,0,1,0-.06.11.11,0,0,1,0-.07.32.32,0,0,1,.14-.14.23.23,0,0,1,.2,0,.27.27,0,0,1,.13.2.32.32,0,0,1-.05.19.22.22,0,0,1-.09.1.22.22,0,0,1-.16,0,.44.44,0,0,0-.21,0,.14.14,0,0,0-.11.06h0l.1.09.09.07h0a.08.08,0,0,0,.07,0s0,0,0-.06l0,0Z"/><path class="cls-51" d="M55.89,18.33l0,0A.29.29,0,0,0,56,18a.69.69,0,0,0-.21-.32,1,1,0,0,0-.48-.3.31.31,0,0,0-.29.11.54.54,0,0,0-.15.29.44.44,0,0,0,.08.31s0,0,0,0l0,0a.2.2,0,0,1,.14-.05.24.24,0,0,1,.16.09.3.3,0,0,1,.05.16.33.33,0,0,1-.07.16.18.18,0,0,1-.24,0,.24.24,0,0,1-.09-.06.56.56,0,0,1-.15-.41.85.85,0,0,1,.23-.51.91.91,0,0,1,.61-.3.6.6,0,0,1,.5.16.43.43,0,0,1,.13.42,1.42,1.42,0,0,1-.23.49.87.87,0,0,1,.53-.32.7.7,0,0,1,.55.21.79.79,0,0,1,.22.77,1.17,1.17,0,0,1-.28.58.8.8,0,0,1-.54.25.63.63,0,0,1-.52-.17.33.33,0,0,1-.12-.23.29.29,0,0,1,.09-.21.21.21,0,0,1,.11-.08.21.21,0,0,1,.21.06.23.23,0,0,1,.09.18.24.24,0,0,1-.07.19l0,0,0,0a.4.4,0,0,0,.33.14.57.57,0,0,0,.43-.18.42.42,0,0,0,.12-.35.75.75,0,0,0-.27-.55,1.31,1.31,0,0,0-.51-.35.3.3,0,0,0-.32.06.39.39,0,0,0-.06.11.83.83,0,0,1-.07.13.36.36,0,0,1-.07.1.12.12,0,0,1-.14,0,.12.12,0,0,1,0-.08.35.35,0,0,1,0-.08l.1-.08Z"/><path class="cls-51" d="M48.39,11.46l.35.32a.58.58,0,0,0,.12.1s0,0,.07,0a.51.51,0,0,0,.14-.09l.14-.14,0,0-1,1.06,0,0c.07-.08.14-.15.19-.22a.93.93,0,0,0,.1-.15s0-.06,0-.08a.58.58,0,0,0-.1-.12l-.34-.32-.6.64-.59-2.32,0,0,1.35,1.28.31-.31.11.1ZM48,11.7l-.84-.8.34,1.32Z"/><path class="cls-51" d="M58.85,21.44l-.18.44a.54.54,0,0,0,0,.15s0,0,0,.06l.13.09.19.09,0,0-1.35-.55,0,0a1.71,1.71,0,0,0,.27.09.54.54,0,0,0,.18,0,.11.11,0,0,0,.08,0,.41.41,0,0,0,.07-.13l.18-.44-.82-.33,1.95-1.39.06,0-.7,1.73.4.17-.05.14Zm-.38-.32.44-1.07-1.11.8Z"/><path class="cls-51" d="M54.4,24.2l-.27.39a.8.8,0,0,0-.08.14.11.11,0,0,0,0,.06l.11.12a1.53,1.53,0,0,0,.16.13l0,0-1.2-.84,0,0,.25.15a.59.59,0,0,0,.17.08h.08a.35.35,0,0,0,.09-.12l.27-.39-.72-.5,2.2-.93.06,0-1.07,1.54.37.25-.09.12Zm-.3-.39.66-.95-1.26.54Z"/><text class="cls-52" transform="translate(93.2 33.43) scale(0.96 1)">LEITUR<tspan class="cls-53" x="75.84" y="0">A</tspan><tspan x="90.23" y="0" xml:space="preserve"> COMPLEMEN</tspan><tspan class="cls-54" x="232.59" y="0">T</tspan><tspan x="243.86" y="0">AR</tspan></text></svg>