<svg id="Camada_1" data-name="Camada 1" xmlns="http://www.w3.org/2000/svg" xmlns:xlink="http://www.w3.org/1999/xlink" viewBox="0 0 366.45 61.45"><defs><style>.cls-1{fill:#24397d;}.cls-2{clip-path:url(#clip-path);}.cls-3{fill:#29235c;}.cls-4{fill:url(#radial-gradient);}.cls-5{fill:#e52421;}.cls-6{font-size:24px;fill:#fff;font-family:Arial-BoldMT, Arial;font-weight:700;}.cls-7{letter-spacing:-0.04em;}</style><clipPath id="clip-path"><rect class="cls-1" y="15.08" width="366.45" height="31.89"/></clipPath><radialGradient id="radial-gradient" cx="51.66" cy="31.29" r="33.53" gradientUnits="userSpaceOnUse"><stop offset="0" stop-color="#fff"/><stop offset="0.15" stop-color="#f8f8f8"/><stop offset="0.39" stop-color="#f2f2f2"/><stop offset="0.5" stop-color="#ededed"/><stop offset="0.63" stop-color="#e0dfde"/><stop offset="0.77" stop-color="#cac7c6"/><stop offset="0.81" stop-color="#c2bfbd"/></radialGradient></defs><title>TIRA-TEIMA</title><rect class="cls-1" y="15.08" width="366.45" height="31.89"/><g class="cls-2"><path class="cls-1" d="M8,15.07S0,15.07,0,23.41V38.62S0,47,8,47H358.5s7.95,0,7.95-8.34V23.41s0-8.34-7.95-8.34Z"/></g><polygon class="cls-3" points="66.81 5.05 36.51 5.05 21.36 31.29 36.51 57.54 66.81 57.54 81.97 31.29 66.81 5.05"/><polygon class="cls-4" points="65.59 7.16 37.73 7.16 23.8 31.29 37.73 55.43 65.59 55.43 79.53 31.29 65.59 7.16"/><path class="cls-5" d="M43,21.75a.42.42,0,0,1,.42-.42H58.38a.43.43,0,0,1,0,.85H43.44A.42.42,0,0,1,43,21.75Zm.42-1.3H58.38a.43.43,0,0,0,0-.86H43.44a.43.43,0,0,0,0,.86ZM62.72,24V45a.85.85,0,0,1-.85.86H43.28a4,4,0,0,1-3.94-3.95v-21h0A4,4,0,0,1,43.28,17H61.87a.86.86,0,0,1,0,1.71h-.5v4.47h.5A.85.85,0,0,1,62.72,24ZM41.05,20.92a2.23,2.23,0,0,0,2.23,2.24H60.51V18.69H43.28A2.23,2.23,0,0,0,41.05,20.92Zm20,3.95H43.28a3.88,3.88,0,0,1-2.23-.7V41.88a2.23,2.23,0,0,0,2.23,2.24H61Z"/><path class="cls-5" d="M49.75,35.55a3.07,3.07,0,0,1-2.07,1.2,1,1,0,0,1-.83-.37,1.79,1.79,0,0,1-.34-1.05,6.28,6.28,0,0,1-1,1.07,1.55,1.55,0,0,1-1,.35,1.25,1.25,0,0,1-1.07-.57A2.65,2.65,0,0,1,43,34.64a6,6,0,0,1,.53-2.37,4.23,4.23,0,0,1,4.1-2.64,6.33,6.33,0,0,1,2,.3v.33a6.83,6.83,0,0,0-1.23,2.39A8.29,8.29,0,0,0,47.92,35a1,1,0,0,0,.16.61.51.51,0,0,0,.44.21c.34,0,.75-.27,1.23-.83Zm-1.43-5.29a2,2,0,0,0-1-.25,2,2,0,0,0-1.48.68,4.79,4.79,0,0,0-1,1.82,6.39,6.39,0,0,0-.38,2,1.71,1.71,0,0,0,.21.9.65.65,0,0,0,.55.35c.39,0,.83-.36,1.33-1.06A7.67,7.67,0,0,1,48.32,30.26Z"/><path class="cls-5" d="M52.71,34l-.23.54a1.43,1.43,0,0,1-.28.49.78.78,0,0,1-.42.08l-1.09,0a.65.65,0,0,0-.39.13.28.28,0,0,1-.12.05c-.1,0-.13,0-.1-.11l.27-.63a.73.73,0,0,1,.21-.32,1.1,1.1,0,0,1,.51-.08h.81a1,1,0,0,0,.56-.1.38.38,0,0,1,.16-.1C52.7,33.9,52.74,33.93,52.71,34Z"/><path class="cls-5" d="M58.7,35.54a5.42,5.42,0,0,1-1.2.91,2.53,2.53,0,0,1-1.2.29,2.75,2.75,0,0,1-1-.26,2.79,2.79,0,0,0-1-.26.65.65,0,0,0-.38.08.46.46,0,0,0-.19.28c0,.11-.09.16-.16.16a1,1,0,0,1-.29,0s-.06,0-.06-.1a2.61,2.61,0,0,1,.25-.63,8.21,8.21,0,0,1,.85-1.29c.39-.5,1-1.22,1.9-2.14l.33-.35a12.51,12.51,0,0,0,1.22-1.44,1.74,1.74,0,0,1-.77.17,4.67,4.67,0,0,1-1-.14,4.26,4.26,0,0,0-.85-.13,1,1,0,0,0-.63.18.57.57,0,0,0-.25.47.63.63,0,0,0,.25.47c.16.14.24.24.24.32s-.08.21-.24.36-.27.21-.33.21-.22-.09-.33-.25a.93.93,0,0,1-.16-.52,2.17,2.17,0,0,1,.73-1.55,2.14,2.14,0,0,1,1.53-.74,5.85,5.85,0,0,1,.87.14,5.46,5.46,0,0,0,.92.13.79.79,0,0,0,.5-.13c.11-.08.18-.13.22-.13s.18,0,.18.08a1.64,1.64,0,0,1-.23.67,5.51,5.51,0,0,1-.55.84c-.22.27-.73.85-1.54,1.74s-1.33,1.44-1.53,1.69a5.32,5.32,0,0,0-.55.79l.64-.17a2.77,2.77,0,0,1,.46,0,3.57,3.57,0,0,1,1.2.25,3.79,3.79,0,0,0,1,.25,1,1,0,0,0,.58-.19,3.51,3.51,0,0,0,.6-.58Z"/><text class="cls-6" transform="translate(157.82 40.36) scale(0.96 1)">TIRA-TEIM<tspan class="cls-7" x="121.31" y="0">A</tspan></text></svg>