<svg id="Camada_1" data-name="Camada 1" xmlns="http://www.w3.org/2000/svg" xmlns:xlink="http://www.w3.org/1999/xlink" viewBox="0 0 366.45 55.78"><defs><style>.cls-1{fill:#24397d;}.cls-2{clip-path:url(#clip-path);}.cls-3{fill:#29235c;}.cls-4{fill:url(#radial-gradient);}.cls-5{fill:#fbbb3e;}.cls-10,.cls-11,.cls-5,.cls-6,.cls-7,.cls-8,.cls-9{fill-rule:evenodd;}.cls-6{fill:#c8c4c3;}.cls-7{fill:#55627c;}.cls-8{fill:#c0d230;}.cls-9{fill:#fcd19b;}.cls-10,.cls-12{fill:#fff;}.cls-11{fill:#3e4e67;}.cls-12{font-size:24px;font-family:Arial-BoldMT, Arial;font-weight:700;}</style><clipPath id="clip-path"><rect class="cls-1" y="12.24" width="366.45" height="31.89"/></clipPath><radialGradient id="radial-gradient" cx="64.96" cy="11.88" r="33.54" gradientTransform="matrix(1, 0.02, -0.02, 1, -11.89, 14.78)" gradientUnits="userSpaceOnUse"><stop offset="0" stop-color="#fff"/><stop offset="0.15" stop-color="#f8f8f8"/><stop offset="0.39" stop-color="#f2f2f2"/><stop offset="0.5" stop-color="#ededed"/><stop offset="0.63" stop-color="#e0dfde"/><stop offset="0.77" stop-color="#cac7c6"/><stop offset="0.81" stop-color="#c2bfbd"/></radialGradient></defs><title>REFERENCIAS</title><rect class="cls-1" y="12.24" width="366.45" height="31.89"/><g class="cls-2"><path class="cls-1" d="M8,12.24S0,12.24,0,20.58v15.2s0,8.34,8,8.34H358.5s7.95,0,7.95-8.34V20.58s0-8.34-7.95-8.34Z"/></g><polygon class="cls-3" points="68.48 1.93 38.18 1.35 22.52 27.31 37.18 53.85 67.49 54.42 83.14 28.46 68.48 1.93"/><polygon class="cls-4" points="67.22 4.02 39.36 3.49 24.97 27.36 38.44 51.76 66.31 52.28 80.7 28.42 67.22 4.02"/><polygon class="cls-5" points="45.17 19.05 44.51 19.11 42.5 17.67 42.93 17.63 43.15 17.61 56.55 16.41 56.06 15.7 41.17 16.99 41.17 17.21 41.16 17.78 40.8 36.71 43.45 38.66 43.45 38.67 45.29 38.52 45.64 20 46.42 19.94 57.9 19.04 57.92 18 45.17 19.05 45.17 19.05"/><polygon class="cls-6" points="61.65 20.59 61.64 20.45 48.75 21.63 48.93 21.76 61.65 20.59 61.65 20.59"/><polygon class="cls-6" points="62.41 21.58 62.4 21.44 50.04 22.54 50.22 22.67 62.41 21.58 62.41 21.58"/><polygon class="cls-6" points="62.16 21.27 62.14 21.13 49.63 22.25 49.81 22.38 62.16 21.27 62.16 21.27"/><polygon class="cls-6" points="61.94 20.93 61.92 20.79 49.2 21.95 49.38 22.08 61.94 20.93 61.94 20.93"/><polygon class="cls-6" points="56.49 17.13 56.48 16.99 43.89 18.14 44.07 18.27 56.49 17.13 56.49 17.13"/><polygon class="cls-6" points="56.21 16.79 56.2 16.65 43.44 17.82 43.62 17.95 56.21 16.79 56.21 16.79"/><polygon class="cls-6" points="56.7 17.33 44.32 18.44 44.49 18.57 56.71 17.47 56.7 17.33 56.7 17.33"/><polygon class="cls-6" points="56.96 17.78 56.95 17.64 44.72 18.73 44.9 18.86 56.96 17.78 56.96 17.78"/><polygon class="cls-7" points="55.65 26.92 55.38 26.73 55.21 26.6 54.98 26.45 54.81 26.32 54.56 26.14 54.38 26.02 54.11 25.82 53.94 25.69 53.64 25.48 54.07 25.45 67.76 24.21 67.2 23.52 52.31 24.81 52.31 25.02 52.3 25.6 51.94 44.52 54.59 46.47 54.59 46.49 68.69 45.33 69.06 25.82 55.65 26.92 55.65 26.92"/><polygon class="cls-6" points="50.99 13.02 50.98 12.87 38.39 14.02 38.57 14.15 50.99 13.02 50.99 13.02"/><polygon class="cls-6" points="50.71 12.67 50.7 12.53 37.94 13.7 38.12 13.83 50.71 12.67 50.71 12.67"/><polygon class="cls-6" points="51.2 13.21 38.82 14.33 39 14.45 51.21 13.35 51.2 13.21 51.2 13.21"/><polygon class="cls-6" points="51.47 13.66 51.45 13.52 39.22 14.61 39.4 14.74 51.47 13.66 51.47 13.66"/><polygon class="cls-8" points="39.76 14.9 39.1 14.96 37.09 13.52 37.52 13.48 37.74 13.46 51.14 12.26 50.65 11.55 35.76 12.84 35.76 13.06 35.75 13.63 35.39 32.56 38.04 34.51 38.04 34.52 39.88 34.37 40.23 15.85 41.01 15.79 52.49 14.89 52.51 13.85 39.76 14.9 39.76 14.9"/><polygon class="cls-9" points="50.49 22.86 49.95 22.91 47.95 21.47 48.37 21.43 48.45 21.43 61.99 20.21 61.5 19.5 47.46 20.72 46.62 20.79 46.61 21.01 46.6 21.58 46.24 40.51 48.9 42.46 48.9 42.47 50.74 42.32 51.09 23.8 51.75 23.75 63.34 22.84 63.36 21.8 50.49 22.86 50.49 22.86"/><polygon class="cls-10" points="67.34 24.46 54.39 25.65 54.57 25.78 67.35 24.6 67.34 24.46 67.34 24.46"/><polygon class="cls-10" points="67.62 24.81 54.85 25.97 55.03 26.1 67.63 24.95 67.62 24.81 67.62 24.81"/><polygon class="cls-10" points="67.84 25.14 55.28 26.28 55.46 26.4 67.85 25.29 67.84 25.14 67.84 25.14"/><polygon class="cls-10" points="68.09 25.45 55.68 26.56 55.86 26.69 68.1 25.59 68.09 25.45 68.09 25.45"/><polygon class="cls-6" points="67.27 24.98 67.25 24.84 54.67 25.99 54.84 26.12 67.27 24.98 67.27 24.98"/><polygon class="cls-6" points="66.99 24.64 66.97 24.5 54.22 25.67 54.39 25.8 66.99 24.64 66.99 24.64"/><polygon class="cls-6" points="67.47 25.18 55.09 26.29 55.27 26.42 67.49 25.32 67.47 25.18 67.47 25.18"/><polygon class="cls-6" points="67.74 25.63 67.73 25.49 55.49 26.58 55.67 26.71 67.74 25.63 67.74 25.63"/><polygon class="cls-11" points="57.42 35.61 57.47 29.87 66.17 29.31 57.42 35.61 57.42 35.61"/><text class="cls-12" transform="translate(142.77 37.67) scale(0.96 1)">REFERÊNCIAS</text></svg>