<svg xmlns="http://www.w3.org/2000/svg" xmlns:xlink="http://www.w3.org/1999/xlink" viewBox="0 0 366.45 56.29"><defs><style>.cls-1{fill:#24397d;}.cls-2{isolation:isolate;}.cls-3{clip-path:url(#clip-path);}.cls-118,.cls-119,.cls-120,.cls-121,.cls-122,.cls-123,.cls-124,.cls-125,.cls-126,.cls-127,.cls-128,.cls-129,.cls-130,.cls-131,.cls-132,.cls-133,.cls-134,.cls-135,.cls-136,.cls-137,.cls-25,.cls-4,.cls-47{fill:#fff;}.cls-5{fill:#29235c;}.cls-6{fill:url(#radial-gradient);}.cls-7{fill:url(#linear-gradient);}.cls-8{fill:url(#linear-gradient-2);}.cls-9{fill:url(#linear-gradient-3);}.cls-10{fill:url(#linear-gradient-4);}.cls-11{fill:url(#linear-gradient-5);}.cls-12{fill:url(#linear-gradient-6);}.cls-13{fill:url(#linear-gradient-7);}.cls-14{fill:url(#linear-gradient-8);}.cls-15{fill:url(#linear-gradient-9);}.cls-16{fill:url(#linear-gradient-10);}.cls-17,.cls-23,.cls-24,.cls-25,.cls-26,.cls-27,.cls-28,.cls-29,.cls-30,.cls-31,.cls-32,.cls-33,.cls-34,.cls-35,.cls-36,.cls-37,.cls-38,.cls-39,.cls-40,.cls-41,.cls-42,.cls-43,.cls-44,.cls-45,.cls-46,.cls-69{mix-blend-mode:multiply;}.cls-18{fill:#7d7d7d;}.cls-19{fill:#911913;}.cls-20{fill:url(#linear-gradient-11);}.cls-21{fill:url(#linear-gradient-12);}.cls-22{fill:url(#linear-gradient-13);}.cls-23,.cls-24{opacity:0.67;}.cls-23{fill:url(#linear-gradient-14);}.cls-24{fill:url(#linear-gradient-15);}.cls-25,.cls-47,.cls-71,.cls-93{opacity:0;}.cls-26{fill:#faf5f4;}.cls-118,.cls-26,.cls-48,.cls-72,.cls-94{opacity:0.05;}.cls-27{fill:#f5ebe9;}.cls-119,.cls-27,.cls-49,.cls-73,.cls-95{opacity:0.1;}.cls-28{fill:#f0e1dd;}.cls-120,.cls-28,.cls-50,.cls-74,.cls-96{opacity:0.14;}.cls-29{fill:#ebd7d2;}.cls-121,.cls-29,.cls-51,.cls-75,.cls-97{opacity:0.19;}.cls-30{fill:#e7cdc7;}.cls-122,.cls-30,.cls-52,.cls-76,.cls-98{opacity:0.24;}.cls-31{fill:#e2c3bc;}.cls-123,.cls-31,.cls-53,.cls-77,.cls-99{opacity:0.29;}.cls-32{fill:#ddb9b1;}.cls-100,.cls-124,.cls-32,.cls-54,.cls-78{opacity:0.33;}.cls-33{fill:#d8afa7;}.cls-101,.cls-125,.cls-33,.cls-55,.cls-79{opacity:0.38;}.cls-34{fill:#d4a69d;}.cls-102,.cls-126,.cls-34,.cls-56,.cls-80{opacity:0.43;}.cls-35{fill:#cf9c93;}.cls-103,.cls-127,.cls-35,.cls-57,.cls-81{opacity:0.48;}.cls-36{fill:#cb9389;}.cls-104,.cls-128,.cls-36,.cls-58,.cls-82{opacity:0.52;}.cls-37{fill:#c6897f;}.cls-105,.cls-129,.cls-37,.cls-59,.cls-83{opacity:0.57;}.cls-38{fill:#c28076;}.cls-106,.cls-130,.cls-38,.cls-60,.cls-84{opacity:0.62;}.cls-39{fill:#be766d;}.cls-107,.cls-131,.cls-39,.cls-61,.cls-85{opacity:0.67;}.cls-40{fill:#b96d64;}.cls-108,.cls-132,.cls-40,.cls-62,.cls-86{opacity:0.71;}.cls-41{fill:#b5645c;}.cls-109,.cls-133,.cls-41,.cls-63,.cls-87{opacity:0.76;}.cls-42{fill:#b15b54;}.cls-110,.cls-134,.cls-42,.cls-64,.cls-88{opacity:0.81;}.cls-43{fill:#ad524d;}.cls-111,.cls-135,.cls-43,.cls-65,.cls-89{opacity:0.86;}.cls-44{fill:#a94945;}.cls-112,.cls-136,.cls-44,.cls-66,.cls-90{opacity:0.9;}.cls-45{fill:#a5413e;}.cls-113,.cls-137,.cls-45,.cls-67,.cls-91{opacity:0.95;}.cls-46{fill:#a13838;}.cls-48{fill:#fdf5f2;}.cls-49{fill:#faebe5;}.cls-50{fill:#f8e2d8;}.cls-51{fill:#f5d8cb;}.cls-52{fill:#f2cebe;}.cls-53{fill:#f0c3b1;}.cls-54{fill:#edb9a4;}.cls-55{fill:#eaae98;}.cls-56{fill:#e7a38b;}.cls-57{fill:#e5997f;}.cls-58{fill:#e28e73;}.cls-59{fill:#df8367;}.cls-60{fill:#dc785c;}.cls-61{fill:#da6d51;}.cls-62{fill:#d76147;}.cls-63{fill:#d4563d;}.cls-64{fill:#d14a34;}.cls-65{fill:#ce3e2b;}.cls-66{fill:#cc3324;}.cls-67{fill:#c9271e;}.cls-68{fill:#c71617;}.cls-69{opacity:0.64;}.cls-115,.cls-70{mix-blend-mode:screen;}.cls-71{fill:#d11317;}.cls-72{fill:#d21c1b;}.cls-73{fill:#d3231f;}.cls-74{fill:#d52923;}.cls-75{fill:#d62e27;}.cls-76{fill:#d8342c;}.cls-77{fill:#d93931;}.cls-78{fill:#db3e35;}.cls-79{fill:#dc433b;}.cls-80{fill:#de4840;}.cls-81{fill:#e04e46;}.cls-82{fill:#e1534b;}.cls-83{fill:#e35951;}.cls-84{fill:#e45e57;}.cls-85{fill:#e6635d;}.cls-86{fill:#e76863;}.cls-87{fill:#e96d69;}.cls-88{fill:#ea726f;}.cls-89{fill:#ec7876;}.cls-90{fill:#ed7d7c;}.cls-91{fill:#ef8283;}.cls-92{fill:#f08789;}.cls-93{fill:#e52621;}.cls-94{fill:#e52a24;}.cls-95{fill:#e62e27;}.cls-96{fill:#e6312a;}.cls-97{fill:#e7342e;}.cls-98{fill:#e73831;}.cls-99{fill:#e73b35;}.cls-100{fill:#e83e38;}.cls-101{fill:#e8413c;}.cls-102{fill:#e9453f;}.cls-103{fill:#e94843;}.cls-104{fill:#e94b47;}.cls-105{fill:#ea4f4a;}.cls-106{fill:#ea524e;}.cls-107{fill:#ea5552;}.cls-108{fill:#eb5856;}.cls-109{fill:#eb5c5a;}.cls-110{fill:#ec5f5e;}.cls-111{fill:#ec6261;}.cls-112{fill:#ec6565;}.cls-113{fill:#ed6869;}.cls-114{fill:#ed6b6d;}.cls-115{opacity:0.69;fill:url(#radial-gradient-2);}.cls-116{fill:url(#radial-gradient-3);}.cls-117{opacity:0.73;}.cls-117,.cls-138,.cls-139,.cls-140{mix-blend-mode:color-dodge;}.cls-138{opacity:0.75;}.cls-140{opacity:0.31;}.cls-141{fill:url(#radial-gradient-4);}.cls-142{fill:url(#radial-gradient-5);}.cls-143{fill:#f9f9f9;opacity:0.03;}.cls-144{fill:#f2f2f2;opacity:0.06;}.cls-145{fill:#ececec;opacity:0.09;}.cls-146{fill:#e6e6e6;opacity:0.13;}.cls-147{fill:#dfdfdf;opacity:0.16;}.cls-148{fill:#d9d9d9;opacity:0.19;}.cls-149{fill:#d3d3d3;opacity:0.22;}.cls-150{fill:#ccc;opacity:0.25;}.cls-151{fill:#c6c6c6;opacity:0.28;}.cls-152{fill:silver;opacity:0.31;}.cls-153{fill:#bababa;opacity:0.35;}.cls-154{fill:#b3b3b3;opacity:0.38;}.cls-155{fill:#adadad;opacity:0.41;}.cls-156{fill:#a7a7a7;opacity:0.44;}.cls-157{fill:#a0a0a0;opacity:0.47;}.cls-158{fill:#9a9a9a;opacity:0.5;}.cls-159{fill:#949494;opacity:0.53;}.cls-160{fill:#8d8d8d;opacity:0.57;}.cls-161{fill:#878787;opacity:0.6;}.cls-162{fill:#818181;opacity:0.63;}.cls-163{fill:#7a7a7a;opacity:0.66;}</style><clipPath id="clip-path"><rect class="cls-1" y="13.49" width="366.45" height="31.89"/></clipPath><radialGradient id="radial-gradient" cx="52.83" cy="28.15" r="37.67" gradientUnits="userSpaceOnUse"><stop offset="0" stop-color="#fff"/><stop offset="0.15" stop-color="#f8f8f8"/><stop offset="0.39" stop-color="#f2f2f2"/><stop offset="0.5" stop-color="#ededed"/><stop offset="0.63" stop-color="#e0dfde"/><stop offset="0.77" stop-color="#cac7c6"/><stop offset="0.81" stop-color="#c2bfbd"/></radialGradient><linearGradient id="linear-gradient" x1="51.37" y1="29.34" x2="52.4" y2="29.34" gradientUnits="userSpaceOnUse"><stop offset="0"/><stop offset="0.45" stop-color="#303030"/><stop offset="0.64" stop-color="#222"/><stop offset="0.72" stop-color="#1b1b1b"/><stop offset="0.76" stop-color="#222"/><stop offset="0.81" stop-color="#353535"/><stop offset="0.87" stop-color="#545454"/><stop offset="0.94" stop-color="#7f7f7f"/><stop offset="0.98" stop-color="#999"/></linearGradient><linearGradient id="linear-gradient-2" x1="11.82" y1="118.9" x2="14.8" y2="120.25" gradientTransform="matrix(0.98, 0.05, 0.05, 0.88, 29.26, -71.99)" gradientUnits="userSpaceOnUse"><stop offset="0" stop-color="#525252"/><stop offset="0.02" stop-color="#575757"/><stop offset="0.1" stop-color="#626262"/><stop offset="0.21" stop-color="#696969"/><stop offset="0.52" stop-color="#6b6b6b"/><stop offset="0.57" stop-color="#5d5d5d"/><stop offset="0.66" stop-color="#393939"/><stop offset="0.72" stop-color="#1b1b1b"/><stop offset="0.76" stop-color="#222"/><stop offset="0.81" stop-color="#353535"/><stop offset="0.87" stop-color="#545454"/><stop offset="0.94" stop-color="#7f7f7f"/><stop offset="0.98" stop-color="#999"/></linearGradient><linearGradient id="linear-gradient-3" x1="2536.7" y1="-23.45" x2="2539.68" y2="-22.11" gradientTransform="matrix(-0.98, 0.05, -0.05, 0.88, 2541.99, -71.99)" xlink:href="#linear-gradient-2"/><linearGradient id="linear-gradient-4" x1="51.54" y1="32.74" x2="51.54" y2="12.67" gradientUnits="userSpaceOnUse"><stop offset="0.02" stop-color="#d9d9d9"/><stop offset="0.09" stop-color="#f0f0f0"/><stop offset="0.32" stop-color="#fafafa"/><stop offset="0.58" stop-color="#fff"/><stop offset="0.92" stop-color="#fff"/><stop offset="0.98" stop-color="#fff"/></linearGradient><linearGradient id="linear-gradient-5" x1="51.54" y1="11.95" x2="51.54" y2="13.38" gradientUnits="userSpaceOnUse"><stop offset="0" stop-color="#292929"/><stop offset="0.01" stop-color="#363636"/><stop offset="0.02" stop-color="#515151"/><stop offset="0.04" stop-color="#676767"/><stop offset="0.06" stop-color="#787878"/><stop offset="0.08" stop-color="#838383"/><stop offset="0.12" stop-color="#8a8a8a"/><stop offset="0.22" stop-color="#8c8c8c"/><stop offset="0.29" stop-color="#7e7e7e"/><stop offset="0.43" stop-color="#5a5a5a"/><stop offset="0.62" stop-color="#202020"/><stop offset="0.72"/><stop offset="0.75" stop-color="#070707"/><stop offset="0.8" stop-color="#1a1a1a"/><stop offset="0.86" stop-color="#393939"/><stop offset="0.92" stop-color="#656565"/><stop offset="0.98" stop-color="#999"/></linearGradient><linearGradient id="linear-gradient-6" x1="66.11" y1="11.78" x2="66.11" y2="13.49" gradientUnits="userSpaceOnUse"><stop offset="0"/><stop offset="0.01" stop-color="#0b0b0b"/><stop offset="0.09" stop-color="#3c3c3c"/><stop offset="0.15" stop-color="#5f5f60"/><stop offset="0.2" stop-color="#757576"/><stop offset="0.24" stop-color="#7d7d7e"/><stop offset="0.28" stop-color="#707070"/><stop offset="0.37" stop-color="#4c4c4c"/><stop offset="0.41" stop-color="#3b3b3b"/><stop offset="0.5" stop-color="#2d2d2d"/><stop offset="0.68" stop-color="#090909"/><stop offset="0.72" stop-color="#010101"/><stop offset="0.83" stop-color="#080808"/><stop offset="0.98" stop-color="#1a1a1a"/></linearGradient><linearGradient id="linear-gradient-7" x1="37.05" y1="11.78" x2="37.05" y2="13.49" xlink:href="#linear-gradient-6"/><linearGradient id="linear-gradient-8" x1="51.54" y1="32.49" x2="51.54" y2="33.92" gradientUnits="userSpaceOnUse"><stop offset="0" stop-color="#292929"/><stop offset="0.01" stop-color="#363636"/><stop offset="0.02" stop-color="#515151"/><stop offset="0.04" stop-color="#676767"/><stop offset="0.06" stop-color="#787878"/><stop offset="0.08" stop-color="#838383"/><stop offset="0.12" stop-color="#8a8a8a"/><stop offset="0.22" stop-color="#8c8c8c"/><stop offset="0.29" stop-color="#7e7e7e"/><stop offset="0.43" stop-color="#5a5a5a"/><stop offset="0.62" stop-color="#202020"/><stop offset="0.72"/><stop offset="0.78" stop-color="#070707"/><stop offset="0.87" stop-color="#1a1a1a"/><stop offset="0.98" stop-color="#393939"/><stop offset="1" stop-color="#404040"/></linearGradient><linearGradient id="linear-gradient-9" x1="66.11" y1="32.32" x2="66.11" y2="34.03" xlink:href="#linear-gradient-6"/><linearGradient id="linear-gradient-10" x1="37.05" y1="32.32" x2="37.05" y2="34.03" xlink:href="#linear-gradient-6"/><linearGradient id="linear-gradient-11" x1="56.73" y1="19.4" x2="62.01" y2="18.03" gradientUnits="userSpaceOnUse"><stop offset="0" stop-color="#eb5b5d"/><stop offset="0.23" stop-color="#e74d50"/><stop offset="0.65" stop-color="#dc2a2e"/><stop offset="0.9" stop-color="#d51116"/></linearGradient><linearGradient id="linear-gradient-12" x1="58.52" y1="19.53" x2="60.06" y2="23.36" gradientUnits="userSpaceOnUse"><stop offset="0" stop-color="#ca1517"/><stop offset="0.36" stop-color="#ac1715"/><stop offset="0.69" stop-color="#971814"/><stop offset="0.9" stop-color="#8f1913"/></linearGradient><linearGradient id="linear-gradient-13" x1="50.32" y1="23.14" x2="52.13" y2="27.65" gradientUnits="userSpaceOnUse"><stop offset="0" stop-color="#eb585b"/><stop offset="0.31" stop-color="#e95558"/><stop offset="0.53" stop-color="#e34c4f"/><stop offset="0.72" stop-color="#d83d3f"/><stop offset="0.9" stop-color="#c92829"/><stop offset="1" stop-color="#bd1818"/></linearGradient><linearGradient id="linear-gradient-14" x1="53.02" y1="24.05" x2="53.05" y2="22.32" gradientUnits="userSpaceOnUse"><stop offset="0" stop-color="#ef7c7e"/><stop offset="0.17" stop-color="#ea6e71"/><stop offset="0.5" stop-color="#de4a4d"/><stop offset="0.92" stop-color="#cc1417"/></linearGradient><linearGradient id="linear-gradient-15" x1="47.24" y1="27.85" x2="47.27" y2="25.84" gradientUnits="userSpaceOnUse"><stop offset="0" stop-color="#ef7c7e"/><stop offset="0.19" stop-color="#e96f70"/><stop offset="0.55" stop-color="#d84b4c"/><stop offset="1" stop-color="#bf1818"/></linearGradient><radialGradient id="radial-gradient-2" cx="59.41" cy="18.69" r="2.54" gradientUnits="userSpaceOnUse"><stop offset="0" stop-color="#fff"/><stop offset="0.06" stop-color="#f6f6f6"/><stop offset="0.16" stop-color="#dfdfdf"/><stop offset="0.28" stop-color="#b9b9b9"/><stop offset="0.43" stop-color="#848484"/><stop offset="0.58" stop-color="#414141"/><stop offset="0.72" stop-color="#010101"/></radialGradient><radialGradient id="radial-gradient-3" cx="50.11" cy="15.01" r="14.36" gradientUnits="userSpaceOnUse"><stop offset="0.2" stop-color="#e52521"/><stop offset="0.44" stop-color="#e22420"/><stop offset="0.61" stop-color="#d9221f"/><stop offset="0.77" stop-color="#c91f1c"/><stop offset="0.91" stop-color="#b31a18"/><stop offset="0.94" stop-color="#ad1917"/></radialGradient><radialGradient id="radial-gradient-4" cx="-3.53" cy="19.24" r="6.5" gradientTransform="translate(50.39) scale(0.96 1)" gradientUnits="userSpaceOnUse"><stop offset="0.2" stop-color="#d1db64"/><stop offset="0.41" stop-color="#c6d457"/><stop offset="0.8" stop-color="#a8c335"/><stop offset="1" stop-color="#97b921"/></radialGradient><radialGradient id="radial-gradient-5" cx="48.17" cy="14.92" r="8.14" gradientUnits="userSpaceOnUse"><stop offset="0" stop-color="#adc312"/><stop offset="0.28" stop-color="#aac113"/><stop offset="0.48" stop-color="#a1ba16"/><stop offset="0.66" stop-color="#91af1c"/><stop offset="0.83" stop-color="#7b9f24"/><stop offset="0.98" stop-color="#5e8b2e"/><stop offset="1" stop-color="#5a882f"/></radialGradient></defs><title>APRESENTACAO</title><g class="cls-2"><g id="Camada_1" data-name="Camada 1"><rect class="cls-1" y="13.49" width="366.45" height="31.89"/><g class="cls-3"><path class="cls-1" d="M8,13.49S0,13.49,0,21.83V37s0,8.34,8,8.34H358.5s7.95,0,7.95-8.34V21.83s0-8.34-7.95-8.34Z"/></g><path class="cls-4" d="M139.77,36.89h-3.62l-1.44-3.74h-6.59l-1.36,3.74h-3.53l6.42-16.48h3.52Zm-6.13-6.52-2.27-6.12-2.23,6.12Z"/><path class="cls-4" d="M142.75,36.89V20.41h5.34a19,19,0,0,1,4,.25,4.29,4.29,0,0,1,2.37,1.61,5.11,5.11,0,0,1,1,3.21,5.34,5.34,0,0,1-.56,2.55,4.37,4.37,0,0,1-1.4,1.62,4.75,4.75,0,0,1-1.72.79,19.89,19.89,0,0,1-3.45.23h-2.17v6.22Zm3.33-13.69v4.67h1.82a8.34,8.34,0,0,0,2.63-.26,2.16,2.16,0,0,0,1-.81,2.2,2.2,0,0,0,.38-1.28,2.13,2.13,0,0,0-.53-1.48,2.31,2.31,0,0,0-1.34-.73,15.44,15.44,0,0,0-2.39-.11Z"/><path class="cls-4" d="M159.34,36.89V20.41h7a12.21,12.21,0,0,1,3.84.44,3.79,3.79,0,0,1,1.92,1.58,4.75,4.75,0,0,1,.72,2.6,4.42,4.42,0,0,1-1.09,3.06,5.24,5.24,0,0,1-3.26,1.53A7.84,7.84,0,0,1,170.25,31a18.2,18.2,0,0,1,1.89,2.67l2,3.22h-4l-2.41-3.59A23.13,23.13,0,0,0,166,30.88a2.73,2.73,0,0,0-1-.69,5.69,5.69,0,0,0-1.68-.18h-.67v6.88Zm3.33-9.51h2.46a13.05,13.05,0,0,0,3-.2,1.78,1.78,0,0,0,.93-.7,2.11,2.11,0,0,0,.34-1.24A2,2,0,0,0,169,23.9a2.07,2.07,0,0,0-1.26-.65c-.27,0-1.08-.05-2.43-.05h-2.59Z"/><path class="cls-4" d="M177.18,36.89V20.41H189.4V23.2h-8.9v3.65h8.28v2.78H180.5v4.48h9.21v2.78Z"/><path class="cls-4" d="M192.91,31.53l3.24-.32a4,4,0,0,0,1.18,2.4,3.59,3.59,0,0,0,2.41.76,3.75,3.75,0,0,0,2.43-.68A2,2,0,0,0,203,32.1a1.52,1.52,0,0,0-.34-1,2.77,2.77,0,0,0-1.2-.71c-.39-.13-1.28-.37-2.66-.72A8.93,8.93,0,0,1,195,28a4.3,4.3,0,0,1-1.52-3.32,4.22,4.22,0,0,1,.72-2.35,4.42,4.42,0,0,1,2.06-1.67,8.24,8.24,0,0,1,3.24-.57,6.92,6.92,0,0,1,4.67,1.36,4.76,4.76,0,0,1,1.65,3.63l-3.33.14a2.81,2.81,0,0,0-.92-1.82,3.33,3.33,0,0,0-2.1-.56,3.81,3.81,0,0,0-2.28.6,1.18,1.18,0,0,0-.52,1,1.26,1.26,0,0,0,.49,1,8.77,8.77,0,0,0,3.06,1.1,15.77,15.77,0,0,1,3.59,1.19,4.59,4.59,0,0,1,1.82,1.67,4.91,4.91,0,0,1,.66,2.63,4.8,4.8,0,0,1-.79,2.65,4.64,4.64,0,0,1-2.22,1.84,9.38,9.38,0,0,1-3.59.6,7.17,7.17,0,0,1-4.8-1.44A6.3,6.3,0,0,1,192.91,31.53Z"/><path class="cls-4" d="M210.33,36.89V20.41h12.22V23.2h-8.89v3.65h8.27v2.78h-8.27v4.48h9.2v2.78Z"/><path class="cls-4" d="M226.94,36.89V20.41h3.24l6.74,11v-11H240V36.89h-3.33L230,26.14V36.89Z"/><path class="cls-4" d="M248.46,36.89V23.2h-4.89V20.41h13.1V23.2h-4.88V36.89Z"/><path class="cls-4" d="M273.19,36.89h-3.62l-1.44-3.74h-6.59l-1.36,3.74h-3.53l6.42-16.48h3.52Zm-6.13-6.52-2.27-6.12-2.22,6.12Z"/><path class="cls-4" d="M286.72,30.83l3.23,1a7.26,7.26,0,0,1-2.47,4,7.76,7.76,0,0,1-9.77-.93,8.6,8.6,0,0,1-2.12-6.14,9,9,0,0,1,2.13-6.39,7.29,7.29,0,0,1,5.58-2.27,6.87,6.87,0,0,1,4.92,1.78,6.49,6.49,0,0,1,1.68,3l-3.29.79A3.4,3.4,0,0,0,283.14,23a3.74,3.74,0,0,0-3,1.32A6.43,6.43,0,0,0,279,28.55c0,2.08.38,3.56,1.13,4.45a3.65,3.65,0,0,0,2.92,1.33,3.36,3.36,0,0,0,2.28-.85A4.86,4.86,0,0,0,286.72,30.83Zm-7,10.59V40.09a20.88,20.88,0,0,0,2.12.13,2.5,2.5,0,0,0,1.49-.36.83.83,0,0,0,.37-.7.82.82,0,0,0-.35-.66,1.68,1.68,0,0,0-1.08-.28,5.09,5.09,0,0,0-1.47.22l.29-1.11A5.59,5.59,0,0,1,283,37a3.25,3.25,0,0,1,2.14.62,2,2,0,0,1-.08,3.12,5,5,0,0,1-3.13.84A9.9,9.9,0,0,1,279.73,41.42Z"/><path class="cls-4" d="M308.89,36.89h-3.62l-1.44-3.74h-6.59l-1.36,3.74h-3.53l6.42-16.48h3.52Zm-11-17.39h-1.43c0-.18,0-.31,0-.41a2.62,2.62,0,0,1,.58-1.81,1.87,1.87,0,0,1,1.47-.64,2.81,2.81,0,0,1,.73.09,7.42,7.42,0,0,1,1.23.48,3.69,3.69,0,0,0,1.4.4.85.85,0,0,0,.6-.23,1.19,1.19,0,0,0,.31-.75h1.46a3.34,3.34,0,0,1-.56,2.17,1.83,1.83,0,0,1-1.44.65,3.19,3.19,0,0,1-.75-.08,13.47,13.47,0,0,1-1.29-.46,5,5,0,0,0-1.51-.39.7.7,0,0,0-.56.22A1.13,1.13,0,0,0,297.91,19.5Zm4.85,10.87-2.27-6.12-2.23,6.12Z"/><path class="cls-4" d="M311.2,28.75a10.54,10.54,0,0,1,.75-4.23,7.88,7.88,0,0,1,1.54-2.26,6.31,6.31,0,0,1,2.13-1.48,8.92,8.92,0,0,1,3.55-.65A7.73,7.73,0,0,1,325,22.39a8.67,8.67,0,0,1,2.18,6.28A8.64,8.64,0,0,1,325,34.92a7.67,7.67,0,0,1-5.8,2.25,7.75,7.75,0,0,1-5.84-2.24A8.52,8.52,0,0,1,311.2,28.75Zm3.43-.11a6.18,6.18,0,0,0,1.29,4.24,4.23,4.23,0,0,0,3.28,1.45,4.17,4.17,0,0,0,3.27-1.44,6.29,6.29,0,0,0,1.27-4.3,6.15,6.15,0,0,0-1.24-4.22,4.59,4.59,0,0,0-6.61,0A6.23,6.23,0,0,0,314.63,28.64Z"/><polygon class="cls-5" points="67.98 1.9 37.68 1.9 22.52 28.15 37.68 54.39 67.98 54.39 83.14 28.15 67.98 1.9"/><polygon class="cls-6" points="66.76 4.01 38.9 4.01 24.97 28.15 38.9 52.28 66.76 52.28 80.7 28.15 66.76 4.01"/><path class="cls-7" d="M52.18,41.59a.29.29,0,0,1-.3.27h0a.28.28,0,0,1-.29-.27l-.22-24.5c0-.15.23-.26.51-.26h0c.29,0,.52.11.52.26Z"/><path class="cls-8" d="M44.89,43.59a.33.33,0,0,1-.37.12h0a.27.27,0,0,1-.1-.34L52,23.81c0-.11.33-.11.63,0h0c.3.12.51.32.46.43Z"/><path class="cls-9" d="M59.28,43.88c0,.11.21.15.37.13h0a.28.28,0,0,0,.1-.35L52.21,24.1c-.05-.11-.33-.11-.63,0h0c-.3.13-.51.32-.46.43Z"/><rect class="cls-10" x="37.27" y="12.67" width="28.54" height="20.08"/><rect class="cls-11" x="37.02" y="11.95" width="29.04" height="1.43"/><path class="cls-12" d="M66.49,13.22c0,.15-.17.27-.38.27h0c-.22,0-.39-.12-.39-.27V12.05c0-.15.17-.27.39-.27h0c.21,0,.38.12.38.27Z"/><path class="cls-13" d="M37.44,13.22c0,.15-.17.27-.39.27h0c-.21,0-.38-.12-.38-.27V12.05c0-.15.17-.27.38-.27h0c.22,0,.39.12.39.27Z"/><rect class="cls-14" x="37.02" y="32.49" width="29.04" height="1.43"/><path class="cls-15" d="M66.49,33.76c0,.15-.17.27-.38.27h0c-.22,0-.39-.12-.39-.27V32.59c0-.15.17-.27.39-.27h0c.21,0,.38.12.38.27Z"/><path class="cls-16" d="M37.44,33.76c0,.15-.17.27-.39.27h0c-.21,0-.38-.12-.38-.27V32.59c0-.15.17-.27.38-.27h0c.22,0,.39.12.39.27Z"/><g class="cls-17"><path class="cls-18" d="M41.1,30.63V30h0v.65Zm0-.84v-.65h0v.65Zm0-.85v-.65h0v.65Zm0-.85v-.65h0v.65Zm0-.84V26.6h0v.65Zm0-.85v-.65h0v.65Zm0-.85V24.9h0v.65Zm0-.84v-.65h0v.65Zm0-.85v-.65h0v.65Zm0-.85v-.65h0V23Zm0-.84v-.65h0v.65Zm0-.85v-.65h0v.65Zm0-.85v-.65h0v.65Zm0-.84V19h0v.65Zm0-.85v-.65h0v.65Zm0-.85v-.65h0v.65Zm0-.84v-.65h0v.65Zm0-.85v-.65h0v.65Z"/><path class="cls-18" d="M44.11,30.63V30h0v.65Zm0-.84v-.65h0v.65Zm0-.85v-.65h0v.65Zm0-.85v-.65h0v.65Zm0-.84V26.6h0v.65Zm0-.85v-.65h0v.65Zm0-.85V24.9h0v.65Zm0-.84v-.65h0v.65Zm0-.85v-.65h0v.65Zm0-.85v-.65h0V23Zm0-.84v-.65h0v.65Zm0-.85v-.65h0v.65Zm0-.85v-.65h0v.65Zm0-.84V19h0v.65Zm0-.85v-.65h0v.65Zm0-.85v-.65h0v.65Zm0-.84v-.65h0v.65Zm0-.85v-.65h0v.65Z"/><path class="cls-18" d="M47.12,30.63V30h.06v.65Zm0-.84v-.65h.06v.65Zm0-.85v-.65h.06v.65Zm0-.85v-.65h.06v.65Zm0-.84V26.6h.06v.65Zm0-.85v-.65h.06v.65Zm0-.85V24.9h.06v.65Zm0-.84v-.65h.06v.65Zm0-.85v-.65h.06v.65Zm0-.85v-.65h.06V23Zm0-.84v-.65h.06v.65Zm0-.85v-.65h.06v.65Zm0-.85v-.65h.06v.65Zm0-.84V19h.06v.65Zm0-.85v-.65h.06v.65Zm0-.85v-.65h.06v.65Zm0-.84v-.65h.06v.65Zm0-.85v-.65h.06v.65Z"/><path class="cls-18" d="M50.13,30.63V30h.06v.65Zm0-.84v-.65h.06v.65Zm0-.85v-.65h.06v.65Zm0-.85v-.65h.06v.65Zm0-.84V26.6h.06v.65Zm0-.85v-.65h.06v.65Zm0-.85V24.9h.06v.65Zm0-.84v-.65h.06v.65Zm0-.85v-.65h.06v.65Zm0-.85v-.65h.06V23Zm0-.84v-.65h.06v.65Zm0-.85v-.65h.06v.65Zm0-.85v-.65h.06v.65Zm0-.84V19h.06v.65Zm0-.85v-.65h.06v.65Zm0-.85v-.65h.06v.65Zm0-.84v-.65h.06v.65Zm0-.85v-.65h.06v.65Z"/><path class="cls-18" d="M53.15,30.63V30h.05v.65Zm0-.84v-.65h.05v.65Zm0-.85v-.65h.05v.65Zm0-.85v-.65h.05v.65Zm0-.84V26.6h.05v.65Zm0-.85v-.65h.05v.65Zm0-.85V24.9h.05v.65Zm0-.84v-.65h.05v.65Zm0-.85v-.65h.05v.65Zm0-.85v-.65h.05V23Zm0-.84v-.65h.05v.65Zm0-.85v-.65h.05v.65Zm0-.85v-.65h.05v.65Zm0-.84V19h.05v.65Zm0-.85v-.65h.05v.65Zm0-.85v-.65h.05v.65Zm0-.84v-.65h.05v.65Zm0-.85v-.65h.05v.65Z"/><path class="cls-18" d="M56.16,30.63V30h.05v.65Zm0-.84v-.65h.05v.65Zm0-.85v-.65h.05v.65Zm0-.85v-.65h.05v.65Zm0-.84V26.6h.05v.65Zm0-.85v-.65h.05v.65Zm0-.85V24.9h.05v.65Zm0-.84v-.65h.05v.65Zm0-.85v-.65h.05v.65Zm0-.85v-.65h.05V23Zm0-.84v-.65h.05v.65Zm0-.85v-.65h.05v.65Zm0-.85v-.65h.05v.65Zm0-.84V19h.05v.65Zm0-.85v-.65h.05v.65Zm0-.85v-.65h.05v.65Zm0-.84v-.65h.05v.65Zm0-.85v-.65h.05v.65Z"/><path class="cls-18" d="M59.17,30.63V30h0v.65Zm0-.84v-.65h0v.65Zm0-.85v-.65h0v.65Zm0-.85v-.65h0v.65Zm0-.84V26.6h0v.65Zm0-.85v-.65h0v.65Zm0-.85V24.9h0v.65Zm0-.84v-.65h0v.65Zm0-.85v-.65h0v.65Zm0-.85v-.65h0V23Zm0-.84v-.65h0v.65Zm0-.85v-.65h0v.65Zm0-.85v-.65h0v.65Zm0-.84V19h0v.65Zm0-.85v-.65h0v.65Zm0-.85v-.65h0v.65Zm0-.84v-.65h0v.65Zm0-.85v-.65h0v.65Z"/><path class="cls-18" d="M62.18,30.63V30h.06v.65Zm0-.84v-.65h.06v.65Zm0-.85v-.65h.06v.65Zm0-.85v-.65h.06v.65Zm0-.84V26.6h.06v.65Zm0-.85v-.65h.06v.65Zm0-.85V24.9h.06v.65Zm0-.84v-.65h.06v.65Zm0-.85v-.65h.06v.65Zm0-.85v-.65h.06V23Zm0-.84v-.65h.06v.65Zm0-.85v-.65h.06v.65Zm0-.85v-.65h.06v.65Zm0-.84V19h.06v.65Zm0-.85v-.65h.06v.65Zm0-.85v-.65h.06v.65Zm0-.84v-.65h.06v.65Zm0-.85v-.65h.06v.65Z"/><path class="cls-18" d="M61.48,30.62v-.07h.78v.07Zm-1,0v-.07h.78v.07Zm-1,0v-.07h.78v.07Zm-1,0v-.07h.78v.07Zm-1,0v-.07h.78v.07Zm-1,0v-.07h.78v.07Zm-1,0v-.07h.78v.07Zm-1,0v-.07h.77v.07Zm-1,0v-.07h.77v.07Zm-1,0v-.07h.77v.07Zm-1,0v-.07h.78v.07Zm-1,0v-.07h.78v.07Zm-1,0v-.07h.78v.07Zm-1,0v-.07h.78v.07Zm-1,0v-.07h.78v.07Zm-1,0v-.07h.78v.07Zm-1,0v-.07h.77v.07Zm-1,0v-.07h.77v.07Zm-1,0v-.07h.77v.07Zm-1,0v-.07h.77v.07Zm-1,0v-.07h.78v.07Z"/><path class="cls-18" d="M61.48,27.6v-.06h.78v.06Zm-1,0v-.06h.78v.06Zm-1,0v-.06h.78v.06Zm-1,0v-.06h.78v.06Zm-1,0v-.06h.78v.06Zm-1,0v-.06h.78v.06Zm-1,0v-.06h.78v.06Zm-1,0v-.06h.77v.06Zm-1,0v-.06h.77v.06Zm-1,0v-.06h.77v.06Zm-1,0v-.06h.78v.06Zm-1,0v-.06h.78v.06Zm-1,0v-.06h.78v.06Zm-1,0v-.06h.78v.06Zm-1,0v-.06h.78v.06Zm-1,0v-.06h.78v.06Zm-1,0v-.06h.77v.06Zm-1,0v-.06h.77v.06Zm-1,0v-.06h.77v.06Zm-1,0v-.06h.77v.06Zm-1,0v-.06h.78v.06Z"/><path class="cls-18" d="M61.48,24.59v-.06h.78v.06Zm-1,0v-.06h.78v.06Zm-1,0v-.06h.78v.06Zm-1,0v-.06h.78v.06Zm-1,0v-.06h.78v.06Zm-1,0v-.06h.78v.06Zm-1,0v-.06h.78v.06Zm-1,0v-.06h.77v.06Zm-1,0v-.06h.77v.06Zm-1,0v-.06h.77v.06Zm-1,0v-.06h.78v.06Zm-1,0v-.06h.78v.06Zm-1,0v-.06h.78v.06Zm-1,0v-.06h.78v.06Zm-1,0v-.06h.78v.06Zm-1,0v-.06h.78v.06Zm-1,0v-.06h.77v.06Zm-1,0v-.06h.77v.06Zm-1,0v-.06h.77v.06Zm-1,0v-.06h.77v.06Zm-1,0v-.06h.78v.06Z"/><path class="cls-18" d="M61.48,21.58v-.06h.78v.06Zm-1,0v-.06h.78v.06Zm-1,0v-.06h.78v.06Zm-1,0v-.06h.78v.06Zm-1,0v-.06h.78v.06Zm-1,0v-.06h.78v.06Zm-1,0v-.06h.78v.06Zm-1,0v-.06h.77v.06Zm-1,0v-.06h.77v.06Zm-1,0v-.06h.77v.06Zm-1,0v-.06h.78v.06Zm-1,0v-.06h.78v.06Zm-1,0v-.06h.78v.06Zm-1,0v-.06h.78v.06Zm-1,0v-.06h.78v.06Zm-1,0v-.06h.78v.06Zm-1,0v-.06h.77v.06Zm-1,0v-.06h.77v.06Zm-1,0v-.06h.77v.06Zm-1,0v-.06h.77v.06Zm-1,0v-.06h.78v.06Z"/><path class="cls-18" d="M61.48,18.57V18.5h.78v.07Zm-1,0V18.5h.78v.07Zm-1,0V18.5h.78v.07Zm-1,0V18.5h.78v.07Zm-1,0V18.5h.78v.07Zm-1,0V18.5h.78v.07Zm-1,0V18.5h.78v.07Zm-1,0V18.5h.77v.07Zm-1,0V18.5h.77v.07Zm-1,0V18.5h.77v.07Zm-1,0V18.5h.78v.07Zm-1,0V18.5h.78v.07Zm-1,0V18.5h.78v.07Zm-1,0V18.5h.78v.07Zm-1,0V18.5h.78v.07Zm-1,0V18.5h.78v.07Zm-1,0V18.5h.77v.07Zm-1,0V18.5h.77v.07Zm-1,0V18.5h.77v.07Zm-1,0V18.5h.77v.07Zm-1,0V18.5h.78v.07Z"/><path class="cls-18" d="M61.48,15.55v-.06h.78v.06Zm-1,0v-.06h.78v.06Zm-1,0v-.06h.78v.06Zm-1,0v-.06h.78v.06Zm-1,0v-.06h.78v.06Zm-1,0v-.06h.78v.06Zm-1,0v-.06h.78v.06Zm-1,0v-.06h.77v.06Zm-1,0v-.06h.77v.06Zm-1,0v-.06h.77v.06Zm-1,0v-.06h.78v.06Zm-1,0v-.06h.78v.06Zm-1,0v-.06h.78v.06Zm-1,0v-.06h.78v.06Zm-1,0v-.06h.78v.06Zm-1,0v-.06h.78v.06Zm-1,0v-.06h.77v.06Zm-1,0v-.06h.77v.06Zm-1,0v-.06h.77v.06Zm-1,0v-.06h.77v.06Zm-1,0v-.06h.78v.06Z"/></g><path class="cls-19" d="M59.74,21.16a.12.12,0,0,0,0,.1l.52.59.09.06.28.11s0,0,0-.06l-.68-1.24s0,0,0,0Z"/><path class="cls-20" d="M61,18.46a.2.2,0,0,1,.11,0l.33.18s0,0-.06,0L58,18.93a.17.17,0,0,1-.1,0l-.3-.19s0,0,0,0Z"/><path class="cls-21" d="M59.8,21.27h0L58.65,20l-.07-.09-.24-.28-.07-.09-.66-.77s0,0,0,0l.55.35,0,0Z"/><path class="cls-22" d="M58.76,19.73a.13.13,0,0,1,0,.1l0,.19a.11.11,0,0,0,0,.09l.88.77a0,0,0,0,1,0,.07l-5.07,3.57s-.08,0,.21.14H52.21c-.35-.11-.39-.09-.41-.06l-2,3a.09.09,0,0,1-.09.05H46l-.11,0-3.72.74s0,0,0,0v-.12s0,0,0-.07l3.12-1.55a.21.21,0,0,1,.1,0h3.24a.09.09,0,0,0,.09,0l2.8-3.54a.12.12,0,0,1,.09-.05H54a.1.1,0,0,0,.08,0l4.3-3.58a.06.06,0,0,1,.08,0Z"/><polygon class="cls-23" points="52 23.45 51.63 23.02 54.04 23.02 54.45 23.4 52 23.45"/><polygon class="cls-24" points="45.69 27.15 45.39 26.66 48.71 26.66 49.11 27.11 45.69 27.15"/><polygon class="cls-25" points="58.57 19.23 57.88 19.82 58.24 20.24 59 19.6 58.57 19.23"/><polygon class="cls-26" points="58.57 19.23 57.9 19.81 58.25 20.22 59 19.6 58.57 19.23"/><polygon class="cls-27" points="58.56 19.24 57.91 19.8 58.26 20.2 59 19.6 58.56 19.24"/><polygon class="cls-28" points="58.56 19.24 57.93 19.78 58.27 20.19 59 19.6 58.56 19.24"/><polygon class="cls-29" points="58.55 19.25 57.94 19.77 58.29 20.17 58.99 19.6 58.55 19.25"/><polygon class="cls-30" points="58.55 19.25 57.96 19.76 58.3 20.16 58.99 19.6 58.55 19.25"/><polygon class="cls-31" points="58.54 19.26 57.98 19.74 58.31 20.14 58.99 19.6 58.54 19.26"/><polygon class="cls-32" points="58.53 19.26 57.99 19.73 58.33 20.12 58.99 19.6 58.53 19.26"/><polygon class="cls-33" points="58.53 19.27 58.01 19.72 58.34 20.11 58.99 19.6 58.53 19.27"/><polygon class="cls-34" points="58.52 19.27 58.03 19.7 58.35 20.09 58.99 19.6 58.52 19.27"/><polygon class="cls-35" points="58.52 19.28 58.04 19.69 58.37 20.07 58.98 19.6 58.52 19.28"/><polygon class="cls-36" points="58.51 19.28 58.06 19.68 58.38 20.06 58.98 19.6 58.51 19.28"/><polygon class="cls-37" points="58.51 19.29 58.07 19.66 58.39 20.04 58.98 19.6 58.51 19.29"/><polygon class="cls-38" points="58.5 19.29 58.09 19.65 58.4 20.02 58.98 19.6 58.5 19.29"/><polygon class="cls-39" points="58.49 19.3 58.11 19.64 58.42 20.01 58.98 19.6 58.49 19.3"/><polygon class="cls-40" points="58.49 19.3 58.12 19.63 58.43 19.99 58.98 19.6 58.49 19.3"/><polygon class="cls-41" points="58.48 19.31 58.14 19.61 58.44 19.98 58.98 19.6 58.48 19.31"/><polygon class="cls-42" points="58.48 19.31 58.16 19.6 58.45 19.96 58.97 19.6 58.48 19.31"/><polygon class="cls-43" points="58.47 19.32 58.17 19.59 58.47 19.94 58.97 19.6 58.47 19.32"/><polygon class="cls-44" points="58.47 19.32 58.19 19.57 58.48 19.93 58.97 19.6 58.47 19.32"/><polygon class="cls-45" points="58.46 19.33 58.2 19.56 58.49 19.91 58.97 19.6 58.46 19.33"/><polygon class="cls-46" points="58.46 19.33 58.22 19.55 58.51 19.89 58.97 19.6 58.46 19.33"/><g class="cls-17"><path class="cls-47" d="M48.6,26.66h.12s.11-.18.11-.17l.36.28-.14.22L49,27h-.16Z"/><path class="cls-48" d="M48.6,26.67s.1,0,.11,0h0s.1-.17.11-.16l.36.28-.14.21L49,27h-.16Z"/><path class="cls-49" d="M48.61,26.67s.09,0,.1,0h0s.1-.16.1-.15l.36.28-.13.2L49,27h-.15Z"/><path class="cls-50" d="M48.62,26.67s.08,0,.09,0h0s.09-.15.1-.14l.35.28a1.57,1.57,0,0,1-.12.19L49,27h-.14Z"/><path class="cls-51" d="M48.62,26.67s.08,0,.09,0h0l.09-.13.35.28a1.18,1.18,0,0,1-.11.19l0,0h-.13Z"/><path class="cls-52" d="M48.63,26.67s.07,0,.08,0h0a1.46,1.46,0,0,1,.09-.13l.34.29a1,1,0,0,1-.1.18l0,0a.28.28,0,0,1-.13,0Z"/><path class="cls-53" d="M48.63,26.67s.07,0,.08,0h0l.08-.12.35.29-.1.17,0,0a.24.24,0,0,1-.12,0Z"/><path class="cls-54" d="M48.64,26.67s.06,0,.07,0h0a.44.44,0,0,1,.08-.11l.34.29L49,27l0,0s-.11,0-.11,0Z"/><path class="cls-55" d="M48.64,26.67s.06,0,.07,0h0a.86.86,0,0,1,.07-.1l.34.3L49,27l0,0a.2.2,0,0,1-.11,0Z"/><path class="cls-56" d="M48.65,26.67s.05,0,.06,0h0s.06-.1.07-.09l.33.3A.91.91,0,0,1,49,27l0,0a.33.33,0,0,1-.1,0Z"/><path class="cls-57" d="M48.65,26.67h.07s.06-.09.06-.08l.34.3L49,27l0,0h-.09Z"/><path class="cls-58" d="M48.66,26.67h.06s.05-.08.06-.07l.33.3A.41.41,0,0,1,49,27l0,0h-.08Z"/><path class="cls-59" d="M48.67,26.67h0s.05-.08.05-.07l.33.3A.33.33,0,0,1,49,27l0,0h-.08Z"/><path class="cls-60" d="M48.67,26.67h0s0-.07.05-.06l.32.3A.73.73,0,0,1,49,27l0,0H49Z"/><path class="cls-61" d="M48.68,26.68s0,0,0,0h0s0-.06.05-.05l.31.3S49,27,49,27v0H49Z"/><path class="cls-62" d="M48.68,26.68s0,0,0,0h0s0-.05,0-.05l.32.31L49,27v0H49Z"/><path class="cls-63" d="M48.69,26.68s0,0,0,0h0l0,0,.31.31S49,27,49,27H49Z"/><path class="cls-64" d="M48.69,26.68s0,0,0,0h0l0,0,.31.31L49,27H49Z"/><path class="cls-65" d="M48.7,26.68s0,0,0,0h0s0,0,0,0l.3.31s0,0,0,.05h0s0,0,0,0Z"/><path class="cls-66" d="M48.7,26.68s0,0,0,0h0l.31.31s0,0,0,0h0a0,0,0,0,1,0,0Z"/><path class="cls-67" d="M48.71,26.68s0,0,0,0h0s0,0,0,0L49,27v0h0s0,0,0,0Z"/><path class="cls-68" d="M48.72,26.68s0,0,0,0h0s0,0,0,0L49,27s0,0,0,0h0a0,0,0,0,1,0,0Z"/></g><g class="cls-69"><path class="cls-47" d="M53.92,23S54,23,54,23h0s.15-.14.16-.13l.34.25-.18.19,0,.05h-.16Z"/><path class="cls-48" d="M53.92,23S54,23,54,23h0a1.31,1.31,0,0,1,.15-.12l.34.25-.17.18,0,.05h-.15Z"/><path class="cls-49" d="M53.93,23s.1,0,.11,0h0l.15-.12.33.26-.16.17,0,0a.31.31,0,0,1-.14,0Z"/><path class="cls-50" d="M53.94,23s.09,0,.1,0h0s.13-.12.14-.11l.33.26-.15.16,0,0a.32.32,0,0,1-.14,0Z"/><path class="cls-51" d="M53.94,23s.09,0,.1,0h0a.91.91,0,0,1,.13-.1l.33.25a1.07,1.07,0,0,1-.14.16l0,0a.28.28,0,0,1-.13,0Z"/><path class="cls-52" d="M54,23S54,23,54,23h0l.13-.1.32.26a.64.64,0,0,1-.13.15l0,0a.24.24,0,0,1-.12,0Z"/><path class="cls-53" d="M54,23S54,23,54,23h0s.11-.1.12-.09l.32.26a.55.55,0,0,1-.12.14l0,0a.38.38,0,0,1-.11,0Z"/><path class="cls-54" d="M54,23S54,23,54,23h0l.11-.08.32.26s-.11.13-.11.13l0,0h-.11Z"/><path class="cls-55" d="M54,23S54,23,54,23h0l.1-.08.33.27-.11.12,0,0h-.11Z"/><path class="cls-56" d="M54,23S54,23,54,23h0s.09-.08.1-.07l.32.27-.1.12,0,0h-.1Z"/><path class="cls-57" d="M54,23S54,23,54,23h0s.08-.07.09-.06l.32.27-.1.11v0h-.1Z"/><path class="cls-58" d="M54,23s0,0,0,0h0s.08-.06.08-.05l.32.27-.09.1v0h-.09Z"/><path class="cls-59" d="M54,23h.06l.08-.06.31.28a.65.65,0,0,1-.08.09v0h-.08Z"/><path class="cls-60" d="M54,23h0s.06-.06.07-.05l.31.28a.5.5,0,0,1-.07.08v0h-.07Z"/><path class="cls-61" d="M54,23h0s.06-.05.06,0l.31.28a.2.2,0,0,1-.06.07v0h-.07Z"/><path class="cls-62" d="M54,23h0l.06,0,.3.29s0,.06,0,.06h0a.06.06,0,0,1-.06,0Z"/><path class="cls-63" d="M54,23h0s0,0,.05,0l.3.29,0,0h0s-.05,0-.05,0Z"/><path class="cls-64" d="M54,23h0s0,0,0,0l.3.29s0,0,0,0h0a0,0,0,0,1-.05,0Z"/><path class="cls-65" d="M54,23h0l0,0,.29.29a.15.15,0,0,1,0,0h0s0,0,0,0Z"/><path class="cls-66" d="M54,23s0,0,0,0h0s0,0,0,0l.29.29s0,0,0,0h0Z"/><path class="cls-67" d="M54,23s0,0,0,0h0l.29.29s0,0,0,0h0Z"/><path class="cls-68" d="M54.05,23s0,0,0,0h0l.28.3s0,0,0,0h0Z"/></g><g class="cls-70"><path class="cls-71" d="M52.2,23.33s-.28,0-.29,0h0l-.09.09-.29-.36a.21.21,0,0,1,0-.07l0,0h.18Z"/><path class="cls-72" d="M52.18,23.33s-.26,0-.27,0h0s-.08.1-.09.09l-.29-.35a.25.25,0,0,1,0-.07l0,0h.17Z"/><path class="cls-73" d="M52.17,23.33s-.25,0-.26,0h0l-.08.09-.3-.36,0-.06,0,0h.16Z"/><path class="cls-74" d="M52.16,23.33a1.9,1.9,0,0,1-.25,0h0s-.07.09-.08.08l-.29-.35a.15.15,0,0,1,0-.06l0,0h.15Z"/><path class="cls-75" d="M52.14,23.33a1.6,1.6,0,0,1-.23,0h0s-.07.08-.08.07l-.29-.34a.15.15,0,0,1,0-.06l0,0h.14Z"/><path class="cls-76" d="M52.13,23.33s-.22,0-.22,0h0l-.07.07-.3-.35,0-.05,0,0h.13Z"/><path class="cls-77" d="M52.11,23.33s-.2,0-.2,0h0s-.06.07-.07.06l-.29-.34a.11.11,0,0,1,0-.05l0,0h.13Z"/><path class="cls-78" d="M52.1,23.33s-.19,0-.2,0h0l-.07.06-.29-.34s0,0,0-.05l0,0h.13Z"/><path class="cls-79" d="M52.08,23.33s-.17,0-.18,0h0l-.06.06-.3-.34,0,0,0,0h.12Z"/><path class="cls-80" d="M52.07,23.33s-.16,0-.17,0h0s0,.06-.06.05l-.29-.33a.07.07,0,0,1,0,0l0,0h.11Z"/><path class="cls-81" d="M52.05,23.33s-.14,0-.15,0h0l-.06.05-.29-.33s0,0,0,0l0,0h.1Z"/><path class="cls-82" d="M52,23.33s-.13,0-.14,0h0s0,.05,0,0l-.3-.33,0,0h.11Z"/><path class="cls-83" d="M52,23.33s-.11,0-.12,0h0l0,0-.29-.33a.05.05,0,0,1,0,0h.1Z"/><path class="cls-84" d="M52,23.33s-.1,0-.11,0h0s0,0,0,0l-.29-.32a.05.05,0,0,1,0,0h.09Z"/><path class="cls-85" d="M52,23.33s-.1,0-.1,0h0s0,0,0,0l-.3-.32,0,0h.09Z"/><path class="cls-86" d="M52,23.33s-.08,0-.08,0h0l0,0-.29-.32v0h0a.08.08,0,0,1,.07,0Z"/><path class="cls-87" d="M52,23.33s-.07,0-.07,0h0s0,0,0,0l-.29-.31s0,0,0,0h0a.06.06,0,0,1,.06,0Z"/><path class="cls-88" d="M52,23.33s-.05,0-.05,0h0l0,0-.29-.32a0,0,0,0,1,0,0h0a0,0,0,0,1,0,0Z"/><path class="cls-89" d="M51.94,23.33s0,0,0,0h0s0,0,0,0l-.29-.31a0,0,0,0,1,0,0h0s0,0,0,0Z"/><path class="cls-90" d="M51.92,23.33s0,0,0,0h0l-.29-.3a0,0,0,0,1,0,0h0s0,0,0,0Z"/><path class="cls-91" d="M51.91,23.33a0,0,0,0,0,0,0h0L51.58,23h0s0,0,0,0Z"/><path class="cls-92" d="M51.89,23.33s0,0,0,0h0s0,0,0,0l-.29-.3s0,0,0,0h0s0,0,0,0Z"/></g><g class="cls-70"><path class="cls-93" d="M45.79,27H45.6s-.05.05-.06,0l-.25-.38.06-.05h0a.72.72,0,0,1,.15,0Z"/><path class="cls-94" d="M45.78,27H45.6l-.05,0-.25-.38a.15.15,0,0,1,.06-.05h0a.61.61,0,0,1,.14,0Z"/><path class="cls-95" d="M45.77,27H45.6s-.05,0-.05,0l-.25-.37s.05,0,.06-.05h0a.63.63,0,0,1,.14,0Z"/><path class="cls-96" d="M45.76,27s-.14,0-.15,0h0s0,0-.05,0l-.25-.37s.05,0,.06-.05h.13Z"/><path class="cls-97" d="M45.75,27s-.13,0-.14,0h0s0,0-.05,0l-.24-.38,0,0h.12Z"/><path class="cls-98" d="M45.75,27H45.6l0,0-.25-.37,0,0h.12Z"/><path class="cls-99" d="M45.74,27H45.6l0,0-.25-.37s0,0,0,0h.11Z"/><path class="cls-100" d="M45.73,27H45.6s0,0,0,0l-.24-.37s0,0,0,0h.11Z"/><path class="cls-101" d="M45.72,27H45.6l0,0-.24-.37s0,0,0,0h.1Z"/><path class="cls-102" d="M45.71,27s-.09,0-.1,0h0s0,0,0,0l-.24-.36s0,0,0,0h0s.09,0,.09,0Z"/><path class="cls-103" d="M45.7,27s-.08,0-.09,0h0s0,0,0,0l-.24-.37s0,0,0,0h.09Z"/><path class="cls-104" d="M45.69,27s-.07,0-.08,0h0s0,0,0,0l-.24-.37s0,0,0,0h0s.08,0,.08,0Z"/><path class="cls-105" d="M45.69,27H45.6a0,0,0,0,1,0,0l-.24-.36,0,0h.08Z"/><path class="cls-106" d="M45.68,27H45.6a0,0,0,0,1,0,0l-.23-.36s0,0,0,0h0s.07,0,.07,0Z"/><path class="cls-107" d="M45.67,27H45.6s0,0,0,0l-.24-.36s0,0,0,0h.07Z"/><path class="cls-108" d="M45.66,27s0,0,0,0h0l-.24-.36s0,0,0,0h0s.06,0,.06,0Z"/><path class="cls-109" d="M45.65,27s0,0,0,0h0s0,0,0,0l-.23-.36s0,0,0,0h0s0,0,0,0Z"/><path class="cls-110" d="M45.64,27s0,0,0,0h0s0,0,0,0l-.23-.36s0,0,0,0h0Z"/><path class="cls-111" d="M45.63,27s0,0,0,0h0s0,0,0,0l-.23-.36,0,0h0s0,0,0,0Z"/><path class="cls-112" d="M45.63,27s0,0,0,0h0l-.23-.35s0,0,0,0h0Z"/><path class="cls-113" d="M45.62,27s0,0,0,0h0l-.23-.35v0h0s0,0,0,0Z"/><path class="cls-114" d="M45.61,27v0h0l-.23-.35v0h0Z"/></g><polygon class="cls-115" points="57.98 18.91 61.42 18.67 61.33 18.63 57.84 18.82 57.98 18.91"/><path class="cls-116" d="M61.41,18.71s0-.05,0-.05L58,18.87s0,0,0,.05l.68.78a.06.06,0,0,1,0,.08L54.36,23.3a.25.25,0,0,1-.11,0H52a.11.11,0,0,0-.09,0L49.05,27A.13.13,0,0,1,49,27H45.68a.2.2,0,0,0-.11,0L42.2,28.42s0,0,0,.06l.2.15a.06.06,0,0,0,.08,0l3.41-.81a.23.23,0,0,1,.11,0h3.94a.12.12,0,0,0,.1-.05L52.41,25a.12.12,0,0,1,.09,0l2.33-.11a.17.17,0,0,0,.1,0l5-3.52a.07.07,0,0,1,.09,0l.62.72s0,0,0,0Z"/><g class="cls-117"><path class="cls-47" d="M49.05,27a22,22,0,0,1-2.31,0,4.94,4.94,0,0,1-1.22,0c0-.06,0,0,1.17,0A15.1,15.1,0,0,1,49.05,27Z"/><path class="cls-118" d="M49,27a21.78,21.78,0,0,1-2.29,0,5.29,5.29,0,0,1-1.2,0c0-.06.06,0,1.15,0A17.15,17.15,0,0,1,49,27Z"/><path class="cls-119" d="M49,27s-1.21,0-2.28,0a5.23,5.23,0,0,1-1.19,0c0-.06.08,0,1.15,0A17.13,17.13,0,0,1,49,27Z"/><path class="cls-120" d="M49,27s-1.21,0-2.26,0a5,5,0,0,1-1.17,0c0-.05.08,0,1.13,0A16.9,16.9,0,0,1,49,27Z"/><path class="cls-121" d="M49,27s-1.22,0-2.24,0a5.66,5.66,0,0,1-1.16,0c0-.05.1,0,1.12,0A18.61,18.61,0,0,1,49,27Z"/><path class="cls-122" d="M49,27s-1.22,0-2.22,0a5.76,5.76,0,0,1-1.14,0c0-.05.11,0,1.1,0A18.37,18.37,0,0,1,49,27Z"/><path class="cls-123" d="M48.94,27s-1.23,0-2.2,0a5.63,5.63,0,0,1-1.13,0s.12,0,1.1,0A20.48,20.48,0,0,1,48.94,27Z"/><path class="cls-124" d="M48.92,27s-1.23,0-2.18,0a6.34,6.34,0,0,1-1.11,0s.13,0,1.08,0A20.21,20.21,0,0,1,48.92,27Z"/><path class="cls-125" d="M48.91,27s-1.24,0-2.17,0a6.19,6.19,0,0,1-1.1,0s.15,0,1.07,0A20.25,20.25,0,0,1,48.91,27Z"/><path class="cls-126" d="M48.89,27s-1.25,0-2.15,0a7.18,7.18,0,0,1-1.08,0s.15,0,1.05,0S48.87,27,48.89,27Z"/><path class="cls-127" d="M48.87,27s-1.25,0-2.13,0a7,7,0,0,1-1.07,0s.17,0,1,0S48.86,27,48.87,27Z"/><path class="cls-128" d="M48.85,27s-1.26,0-2.11,0a6.65,6.65,0,0,1-1.05,0s.18,0,1,0S48.84,27,48.85,27Z"/><path class="cls-129" d="M48.83,27s-1.26,0-2.09,0a9.82,9.82,0,0,1-1,0,4.38,4.38,0,0,1,1,0C47.54,27,48.82,27,48.83,27Z"/><path class="cls-130" d="M48.82,27s-1.28,0-2.08,0a9.7,9.7,0,0,1-1,0,5.58,5.58,0,0,1,1,0C47.52,27,48.81,27,48.82,27Z"/><path class="cls-131" d="M48.8,27s-1.28,0-2.06,0a8.94,8.94,0,0,1-1,0,5.4,5.4,0,0,1,1,0C47.5,27,48.79,27,48.8,27Z"/><path class="cls-132" d="M48.78,27s-1.29,0-2,0c-.59,0-1,0-1,0a4.42,4.42,0,0,1,1,0C47.48,27,48.77,27,48.78,27Z"/><path class="cls-133" d="M48.76,27l-2,0c-.59,0-1,0-1,0a5.33,5.33,0,0,1,1,0C47.46,27,48.76,27,48.76,27Z"/><path class="cls-134" d="M48.74,27s-1.3,0-2,0-.93,0-1,0a5.46,5.46,0,0,1,1,0C47.43,27,48.74,27,48.74,27Z"/><path class="cls-135" d="M48.72,27s-1.3,0-2,0-.91,0-1,0h.94C47.41,27,48.72,27,48.72,27Z"/><path class="cls-136" d="M48.71,27h-2c-.6,0-.89,0-.94,0h.94C47.39,27,48.7,27,48.71,27Z"/><path class="cls-137" d="M48.69,27H46.74c-.6,0-.87,0-.92,0h.92C47.37,27,48.69,27,48.69,27Z"/><path class="cls-4" d="M48.67,27H46.74c-.6,0-.86,0-.91,0h.91C47.35,27,48.67,27,48.67,27Z"/></g><g class="cls-138"><path class="cls-47" d="M58.64,19.77c0,.06-1.61,1.38-2.92,2.46a9.37,9.37,0,0,1-1.39,1.07c-.06-.07-.07,0,1.25-1.07A30.52,30.52,0,0,1,58.64,19.77Z"/><path class="cls-118" d="M58.56,19.83c0,.06-1.56,1.34-2.85,2.4a10.44,10.44,0,0,1-1.36,1.06c-.07-.06-.06,0,1.23-1.06A29.82,29.82,0,0,1,58.56,19.83Z"/><path class="cls-119" d="M58.48,19.89c0,.06-1.51,1.3-2.77,2.34a11.23,11.23,0,0,1-1.35,1.05c-.07-.05,0,0,1.23-1.05A30,30,0,0,1,58.48,19.89Z"/><path class="cls-120" d="M58.4,20c0,.06-1.45,1.25-2.69,2.26a9,9,0,0,1-1.34,1c-.07,0,0,0,1.23-1A29.75,29.75,0,0,1,58.4,20Z"/><path class="cls-121" d="M58.32,20a33.63,33.63,0,0,1-2.61,2.2,10.57,10.57,0,0,1-1.32,1c-.07,0,0,0,1.21-1A29.51,29.51,0,0,1,58.32,20Z"/><path class="cls-122" d="M58.25,20.09c0,.05-1.36,1.17-2.54,2.13a11.44,11.44,0,0,1-1.31,1c-.07,0,0-.06,1.21-1A26.57,26.57,0,0,1,58.25,20.09Z"/><path class="cls-123" d="M58.17,20.15c0,.05-1.31,1.13-2.46,2.07a10.22,10.22,0,0,1-1.3,1c-.07,0,.05-.08,1.2-1A29.68,29.68,0,0,1,58.17,20.15Z"/><path class="cls-124" d="M58.09,20.22s-1.26,1.08-2.38,2a14,14,0,0,1-1.28,1c-.08,0,.07-.09,1.19-1A28,28,0,0,1,58.09,20.22Z"/><path class="cls-125" d="M58,20.28s-1.21,1-2.3,1.93a14.71,14.71,0,0,1-1.27,1c-.08,0,.09-.11,1.18-1A29.67,29.67,0,0,1,58,20.28Z"/><path class="cls-126" d="M57.93,20.35s-1.16,1-2.22,1.86a15,15,0,0,1-1.25,1c-.09,0,.11-.12,1.17-1A25.15,25.15,0,0,1,57.93,20.35Z"/><path class="cls-127" d="M57.85,20.41s-1.11.95-2.14,1.8a14.79,14.79,0,0,1-1.24,1c-.09,0,.13-.13,1.16-1S57.81,20.35,57.85,20.41Z"/><path class="cls-128" d="M57.77,20.47s-1.06.92-2.06,1.74a14.83,14.83,0,0,1-1.23,1c-.09,0,.15-.15,1.16-1S57.73,20.42,57.77,20.47Z"/><path class="cls-129" d="M57.69,20.54s-1,.87-2,1.67c-.69.56-1.16.94-1.21.95s.17-.16,1.14-1S57.66,20.49,57.69,20.54Z"/><path class="cls-130" d="M57.62,20.6s-1,.83-1.91,1.6c-.7.57-1.15.93-1.2.95s.19-.18,1.14-1S57.58,20.56,57.62,20.6Z"/><path class="cls-131" d="M57.54,20.67s-.92.78-1.83,1.53c-.7.57-1.13.92-1.19.94a9.27,9.27,0,0,1,1.13-.95C56.57,21.44,57.51,20.63,57.54,20.67Z"/><path class="cls-132" d="M57.46,20.73s-.87.74-1.76,1.47c-.69.57-1.11.9-1.16.93a9,9,0,0,1,1.12-.94C56.54,21.46,57.43,20.7,57.46,20.73Z"/><path class="cls-133" d="M57.38,20.8s-.82.69-1.68,1.4c-.7.57-1.1.89-1.15.91s.25-.22,1.11-.92S57.36,20.77,57.38,20.8Z"/><path class="cls-134" d="M57.3,20.86s-.77.66-1.6,1.34-1.08.87-1.14.9.28-.24,1.11-.92S57.28,20.84,57.3,20.86Z"/><path class="cls-135" d="M57.22,20.93s-.72.61-1.52,1.26-1.07.86-1.12.9.29-.25,1.09-.91S57.21,20.91,57.22,20.93Z"/><path class="cls-136" d="M57.14,21s-.67.57-1.44,1.2-1.05.85-1.11.89.32-.27,1.09-.9S57.13,21,57.14,21Z"/><path class="cls-137" d="M57.06,21.06,55.7,22.19c-.71.58-1,.83-1.1.88l1.08-.9Z"/><path class="cls-4" d="M57,21.12,55.7,22.19l-1.08.87,1.07-.89C56.4,21.59,57,21.11,57,21.12Z"/></g><g class="cls-139"><path class="cls-47" d="M54.33,23.33s-1,0-1.91,0c-.46,0-.6,0-.58,0s-.4,0,.52,0A10.16,10.16,0,0,1,54.33,23.33Z"/><path class="cls-118" d="M54.31,23.33s-1,0-1.89,0c-.46,0-.58,0-.57,0s-.39,0,.51,0A10,10,0,0,1,54.31,23.33Z"/><path class="cls-119" d="M54.3,23.33s-1,0-1.88,0c-.46,0-.56,0-.55,0s-.39,0,.49,0A11.45,11.45,0,0,1,54.3,23.33Z"/><path class="cls-120" d="M54.28,23.33s-1,0-1.86,0c-.46,0-.54,0-.53,0s-.38,0,.48,0A11.14,11.14,0,0,1,54.28,23.33Z"/><path class="cls-121" d="M54.27,23.33s-1,0-1.85,0c-.46,0-.52,0-.52,0s-.37,0,.47,0A11.11,11.11,0,0,1,54.27,23.33Z"/><path class="cls-122" d="M54.25,23.33s-1,0-1.83,0c-.46,0-.51,0-.5,0s-.37,0,.45,0A12.13,12.13,0,0,1,54.25,23.33Z"/><path class="cls-123" d="M54.24,23.33s-1,0-1.82,0c-.47,0-.49,0-.49,0s-.35,0,.45,0A12,12,0,0,1,54.24,23.33Z"/><path class="cls-124" d="M54.22,23.33s-1,0-1.8,0c-.47,0-.47,0-.47,0s-.35,0,.43,0A13.29,13.29,0,0,1,54.22,23.33Z"/><path class="cls-125" d="M54.21,23.33s-1,0-1.79,0c-.47,0-.46,0-.46,0s-.34,0,.42,0A13.26,13.26,0,0,1,54.21,23.33Z"/><path class="cls-126" d="M54.19,23.33s-1,0-1.76,0c-.48,0-.45,0-.45,0s-.33,0,.41,0A12.89,12.89,0,0,1,54.19,23.33Z"/><path class="cls-127" d="M54.18,23.33s-1,0-1.75,0c-.48,0-.43,0-.44,0s-.32,0,.4,0A15.75,15.75,0,0,1,54.18,23.33Z"/><path class="cls-128" d="M54.16,23.33s-1,0-1.73,0c-.48,0-.41,0-.42,0s-.32,0,.38,0A15.5,15.5,0,0,1,54.16,23.33Z"/><path class="cls-129" d="M54.15,23.33s-1,0-1.72,0c-.49,0-.39,0-.41,0s-.3,0,.38,0A15.26,15.26,0,0,1,54.15,23.33Z"/><path class="cls-130" d="M54.13,23.33s-1.05,0-1.7,0c-.49,0-.38,0-.39,0s-.3,0,.36,0S54.13,23.29,54.13,23.33Z"/><path class="cls-131" d="M54.12,23.33s-1.06,0-1.69,0-.36,0-.38,0-.29,0,.35,0S54.11,23.29,54.12,23.33Z"/><path class="cls-132" d="M54.1,23.33s-1.06,0-1.67,0-.34,0-.36,0-.28,0,.34,0S54.1,23.29,54.1,23.33Z"/><path class="cls-133" d="M54.09,23.32s-1.07,0-1.66,0-.32,0-.35,0-.27,0,.33,0S54.08,23.3,54.09,23.32Z"/><path class="cls-134" d="M54.07,23.32s-1.07,0-1.64,0-.3,0-.33,0-.27,0,.31,0S54.07,23.3,54.07,23.32Z"/><path class="cls-135" d="M54.06,23.32s-1.08,0-1.63,0-.29,0-.32,0-.25,0,.31,0S54.06,23.31,54.06,23.32Z"/><path class="cls-136" d="M54,23.32s-1.08,0-1.61,0-.27,0-.3,0-.25,0,.29,0S54,23.31,54,23.32Z"/><path class="cls-137" d="M54,23.32l-1.6,0c-.5,0-.25,0-.29,0s-.24,0,.28,0S54,23.31,54,23.32Z"/><path class="cls-4" d="M54,23.32l-1.58,0c-.5,0-.23,0-.27,0s-.23,0,.27,0Z"/></g><g class="cls-140"><path class="cls-47" d="M49,27s1.08-1.42,2-2.54a7.34,7.34,0,0,1,.95-1.17s0,0-.86,1.13S49,27,49,27Z"/><path class="cls-118" d="M49,26.91s1.05-1.37,1.92-2.47a7.24,7.24,0,0,1,.94-1.16c.05,0,0,0-.85,1.12S49.09,27,49,26.91Z"/><path class="cls-119" d="M49.09,26.85s1-1.33,1.87-2.41a7.8,7.8,0,0,1,.94-1.16c.05,0,0,0-.86,1.13S49.14,26.89,49.09,26.85Z"/><path class="cls-120" d="M49.15,26.78s1-1.29,1.81-2.34a9.26,9.26,0,0,1,.93-1.15s0,.07-.85,1.12S49.19,26.82,49.15,26.78Z"/><path class="cls-121" d="M49.2,26.71s.95-1.24,1.76-2.26a7.79,7.79,0,0,1,.93-1.15s0,.09-.85,1.11S49.24,26.75,49.2,26.71Z"/><path class="cls-122" d="M49.25,26.64s.92-1.19,1.71-2.19a7.79,7.79,0,0,1,.93-1.15s-.07.12-.86,1.12S49.29,26.69,49.25,26.64Z"/><path class="cls-123" d="M49.31,26.58s.88-1.16,1.65-2.13a8.48,8.48,0,0,1,.92-1.14s-.08.13-.85,1.11S49.34,26.62,49.31,26.58Z"/><path class="cls-124" d="M49.36,26.51s.85-1.11,1.6-2.06a10.49,10.49,0,0,1,.92-1.14s-.1.16-.86,1.11S49.39,26.55,49.36,26.51Z"/><path class="cls-125" d="M49.41,26.44s.82-1.06,1.55-2a10.39,10.39,0,0,1,.91-1.13c.06,0-.12.18-.85,1.11S49.45,26.48,49.41,26.44Z"/><path class="cls-126" d="M49.46,26.38s.79-1,1.5-1.93a9.75,9.75,0,0,1,.91-1.12,9.15,9.15,0,0,1-.85,1.1C50.3,25.33,49.5,26.41,49.46,26.38Z"/><path class="cls-127" d="M49.52,26.31s.75-1,1.44-1.86a13.6,13.6,0,0,1,.9-1.12,7.55,7.55,0,0,1-.85,1.1C50.32,25.31,49.55,26.34,49.52,26.31Z"/><path class="cls-128" d="M49.57,26.24s.72-.93,1.39-1.79a12.54,12.54,0,0,1,.9-1.11,11.08,11.08,0,0,1-.85,1.1C50.34,25.29,49.6,26.27,49.57,26.24Z"/><path class="cls-129" d="M49.62,26.17s.69-.89,1.34-1.71c.47-.59.84-1.11.89-1.12a9.06,9.06,0,0,1-.84,1.1C50.35,25.27,49.65,26.2,49.62,26.17Z"/><path class="cls-130" d="M49.68,26.11s.65-.85,1.28-1.65c.47-.59.84-1.1.89-1.11s-.21.29-.85,1.1S49.7,26.13,49.68,26.11Z"/><path class="cls-131" d="M49.73,26s.62-.8,1.23-1.58c.47-.6.83-1.08.88-1.1A12.14,12.14,0,0,1,51,24.45C50.38,25.23,49.75,26.06,49.73,26Z"/><path class="cls-132" d="M49.78,26s.59-.76,1.18-1.51.84-1.07.88-1.1A10.1,10.1,0,0,1,51,24.45C50.4,25.21,49.8,26,49.78,26Z"/><path class="cls-133" d="M49.84,25.91s.55-.72,1.12-1.45.83-1.06.88-1.09-.27.36-.85,1.09S49.85,25.92,49.84,25.91Z"/><path class="cls-134" d="M49.89,25.84s.52-.67,1.07-1.38.83-1.05.87-1.08-.28.37-.84,1.08S49.9,25.85,49.89,25.84Z"/><path class="cls-135" d="M49.94,25.77l1-1.31c.47-.6.82-1,.86-1.08s-.3.4-.84,1.08S50,25.78,49.94,25.77Z"/><path class="cls-136" d="M50,25.7s.45-.58,1-1.24.81-1,.85-1.07-.32.42-.84,1.08S50,25.71,50,25.7Z"/><path class="cls-137" d="M50.05,25.64s.42-.54.92-1.18l.85-1.07c.08-.09-.34.45-.84,1.08Z"/><path class="cls-4" d="M50.1,25.57l.87-1.1.84-1.07c.08-.1-.35.47-.83,1.07Z"/></g><path class="cls-141" d="M40.22,23.39c.28-.06,6.42.57,9.07-4.58a8.4,8.4,0,0,1-1.06-.69l0-.41,3.33-.64.9,3.31-.37.24L51,20a11.73,11.73,0,0,1-4.63,3.35,13,13,0,0,1-5.61.58C40.1,23.79,40.22,23.39,40.22,23.39Z"/><path class="cls-142" d="M40.27,23.28c.3-.06,6.47.39,9.23-4.76a12.34,12.34,0,0,1-1.29-.81l3.63-.93.6,3.6-1.18-.69A12.17,12.17,0,0,1,46.44,23a15.18,15.18,0,0,1-5.93.66C40,23.61,40.27,23.28,40.27,23.28Z"/><g class="cls-17"><path class="cls-47" d="M38.67,44.58c-.65-1.76,9.71-5.87,13.16-6s15.9,4.24,13.81,5.74S39.52,46.86,38.67,44.58Z"/><path class="cls-143" d="M39,44.53c-.59-1.69,9.49-5.66,12.86-5.83s15.53,4.09,13.49,5.54S39.73,46.72,39,44.53Z"/><path class="cls-144" d="M39.27,44.48c-.53-1.62,9.27-5.45,12.56-5.61S67,42.81,65,44.2,40,46.58,39.27,44.48Z"/><path class="cls-145" d="M39.56,44.44c-.46-1.56,9.06-5.25,12.27-5.4s14.79,3.79,12.85,5.13S40.16,46.44,39.56,44.44Z"/><path class="cls-146" d="M39.86,44.39c-.4-1.49,8.84-5,12-5.19s14.43,3.65,12.53,4.94S40.37,46.3,39.86,44.39Z"/><path class="cls-147" d="M40.15,44.34c-.34-1.43,8.63-4.83,11.69-5s14,3.5,12.2,4.73S40.59,46.16,40.15,44.34Z"/><path class="cls-148" d="M40.45,44.3c-.28-1.37,8.42-4.63,11.39-4.76s13.68,3.35,11.88,4.53S40.8,46,40.45,44.3Z"/><path class="cls-149" d="M40.75,44.25c-.22-1.31,8.2-4.42,11.09-4.55S65.15,42.91,63.4,44,41,45.87,40.75,44.25Z"/><path class="cls-150" d="M41,44.2C40.89,43,49,40,51.84,39.87S64.78,42.93,63.08,44,41.23,45.72,41,44.2Z"/><path class="cls-151" d="M41.34,44.15c-.1-1.19,7.77-4,10.5-4.11S64.42,43,62.76,44,41.45,45.58,41.34,44.15Z"/><path class="cls-152" d="M41.64,44.11c0-1.14,7.55-3.8,10.2-3.9S64.05,43,62.44,43.93,41.67,45.42,41.64,44.11Z"/><path class="cls-153" d="M41.93,44.06c0-1.09,7.34-3.58,9.92-3.69S63.68,43,62.12,43.9,41.9,45.27,41.93,44.06Z"/><path class="cls-154" d="M42.23,44c.1-1,7.12-3.37,9.62-3.47S63.31,43,61.8,43.87,42.12,45.11,42.23,44Z"/><path class="cls-155" d="M42.52,44c.36-.94,6.92-3.16,9.33-3.25S62.94,43,61.48,43.83,42.55,45,42.52,44Z"/><path class="cls-156" d="M42.82,43.92c.43-.88,6.7-3,9-3.05s10.72,2.19,9.31,2.93S42.78,44.82,42.82,43.92Z"/><path class="cls-157" d="M43.12,43.87c.5-.82,6.48-2.75,8.73-2.83s10.36,2,9,2.73S43,44.68,43.12,43.87Z"/><path class="cls-158" d="M43.41,43.82c.59-.75,6.27-2.54,8.44-2.61s10,1.89,8.67,2.52S43.25,44.53,43.41,43.82Z"/><path class="cls-159" d="M43.71,43.78c.66-.7,6-2.34,8.15-2.41s9.61,1.75,8.34,2.33S43.48,44.39,43.71,43.78Z"/><path class="cls-160" d="M44,43.73c.62-.75,5.84-2.13,7.86-2.19s9.24,1.6,8,2.13S43.63,44.18,44,43.73Z"/><path class="cls-161" d="M44.3,43.68c.74-.67,5.62-1.92,7.56-2s8.87,1.45,7.7,1.92S43.89,44.05,44.3,43.68Z"/><path class="cls-162" d="M44.6,43.63a25,25,0,0,1,7.26-1.75c1.9-.05,8.5,1.3,7.38,1.72S44.16,43.92,44.6,43.63Z"/><path class="cls-163" d="M44.89,43.59a29.57,29.57,0,0,1,7-1.55c1.82,0,8.14,1.16,7.06,1.52S44.41,43.81,44.89,43.59Z"/></g></g></g></svg>