<svg id="Camada_1" data-name="Camada 1" xmlns="http://www.w3.org/2000/svg" xmlns:xlink="http://www.w3.org/1999/xlink" viewBox="0 0 366.45 61.45"><defs><style>.cls-1{fill:#24397d;}.cls-2{clip-path:url(#clip-path);}.cls-3{fill:#29235c;}.cls-4{fill:url(#radial-gradient);}.cls-5{fill:#ed6953;}.cls-6{fill:#ffd45a;}.cls-7,.cls-9{fill:#fff;}.cls-8{fill:#3d4462;}.cls-9{font-size:24px;font-family:Arial-BoldMT, Arial;font-weight:700;}.cls-10{letter-spacing:-0.02em;}.cls-11{letter-spacing:-0.07em;}</style><clipPath id="clip-path"><rect class="cls-1" y="15.08" width="366.45" height="31.89"/></clipPath><radialGradient id="radial-gradient" cx="52.84" cy="30.73" r="33.53" gradientUnits="userSpaceOnUse"><stop offset="0" stop-color="#fff"/><stop offset="0.15" stop-color="#f8f8f8"/><stop offset="0.39" stop-color="#f2f2f2"/><stop offset="0.5" stop-color="#ededed"/><stop offset="0.63" stop-color="#e0dfde"/><stop offset="0.77" stop-color="#cac7c6"/><stop offset="0.81" stop-color="#c2bfbd"/></radialGradient></defs><title>AUTOAVALIACAO</title><rect class="cls-1" y="15.08" width="366.45" height="31.89"/><g class="cls-2"><path class="cls-1" d="M8,15.07S0,15.07,0,23.41V38.62S0,47,8,47H358.5s7.95,0,7.95-8.34V23.41s0-8.34-7.95-8.34Z"/></g><polygon class="cls-3" points="68 4.48 37.69 4.48 22.54 30.73 37.69 56.97 68 56.97 83.15 30.73 68 4.48"/><polygon class="cls-4" points="66.78 6.59 38.91 6.59 24.98 30.73 38.91 54.86 66.78 54.86 80.71 30.73 66.78 6.59"/><path class="cls-5" d="M46.18,31.68l.7-1.16.77-.23.28-1.43,1.75-.71s1.69.06,1.83,0,1,.6,1,.6,0,.67,1.59.64,1.28,2.4,1.28,2.4L53,36.64l-6.81-.37Z"/><path class="cls-6" d="M48.55,17.5,52.77,14s5.19.22,5.31.28,3.58,3.07,3.58,3.07l1.91,4.94L62.67,27,59,30s-4.2-.08-4.34-.15l-1-.47-1.21-.34-.62-1.21-1.1.34-1.46-.93-.25-2L48,24.66l-.39-.43.31-1.38-.68-2Z"/><path class="cls-7" d="M48.38,26.78v-.13c0-.11,0-.22,0-.32a.76.76,0,0,0-.24-1.5h-.06a4.21,4.21,0,0,0-.35-.81,1.27,1.27,0,0,0,.05-.34,1,1,0,0,0-1-1l-.15,0a4.28,4.28,0,0,0-2.8-1.06,4.83,4.83,0,0,0-4.57,5,4.82,4.82,0,0,0,4.57,5,4.36,4.36,0,0,0,3.08-1.31l.17,0a.79.79,0,0,0,.82-.77.77.77,0,0,0-.13-.42,6.8,6.8,0,0,0,.3-.67.93.93,0,0,0,.79-.6A.91.91,0,0,0,48.38,26.78Z"/><path class="cls-8" d="M56.16,18a4.27,4.27,0,1,0,3.08,5.19A4.27,4.27,0,0,0,56.16,18Z"/><path class="cls-8" d="M44.81,24a2.75,2.75,0,1,0,2,3.34A2.74,2.74,0,0,0,44.81,24Z"/><path class="cls-8" d="M51.18,29.92a2.11,2.11,0,1,0,1.52,2.57A2.12,2.12,0,0,0,51.18,29.92Z"/><path class="cls-8" d="M68.07,34.3s0,1.1-1.66,1.14c0,0-.43.05-.31,1l0,1.37s-.05.41-.8.65c0,0-.14.15.07.41,0,0,.4.44-.28,1.39a1.67,1.67,0,0,0-.41,1.67s.32,1.72-.35,2.13c0,0-.77.91-3.86.53-1.07-.13-3.07-.66-4.26.84a14.56,14.56,0,0,0-1.85,3.69,81.92,81.92,0,0,1-13.27-1.55s2.75-8.68-.18-12.89c0,0-2.9-5.27-3-7.94a16.16,16.16,0,0,1,2.84-9.17c2.2-2.46,5.11-4.74,12.3-4.79A14,14,0,0,1,63.5,16.94a10.87,10.87,0,0,1,3.09,9.23c-.1.95-1.46,2.06-.5,3.9C66.09,30.07,68.15,33.7,68.07,34.3ZM47.56,30a.57.57,0,0,0,.11-.77c-.18-.17-.12-.64-.06-.77s.32-.18.56-.12.52-.16.6-.5a.56.56,0,0,0-.29-.72c-.24-.06-.42-.49-.43-.64s.18-.31.42-.38a.57.57,0,0,0,.27-.73c-.09-.33-.37-.55-.61-.48s-.62-.22-.7-.34,0-.36.18-.54a.58.58,0,0,0-.13-.77.57.57,0,0,0-.77-.11.89.89,0,0,1-.77.06c-.13-.06-.19-.32-.13-.56s-.16-.52-.49-.6a.57.57,0,0,0-.73.29c-.06.24-.49.43-.63.44s-.32-.19-.39-.43a.57.57,0,0,0-.73-.27c-.33.1-.55.37-.48.61s-.21.62-.33.7-.37,0-.55-.17a.66.66,0,0,0-.88.9.85.85,0,0,1,.06.77c-.06.13-.31.18-.56.12s-.51.16-.6.5,0,.66.29.72.43.49.44.64-.18.31-.43.38a.57.57,0,0,0-.27.73c.1.34.37.55.62.48s.61.22.69.34,0,.36-.17.54a.66.66,0,0,0,.9.88.89.89,0,0,1,.77-.06c.13.06.18.32.12.56s.16.52.5.6a.56.56,0,0,0,.72-.29c.06-.24.23-.44.38-.43s.58.18.64.42a.58.58,0,0,0,.74.27c.33-.1.55-.37.48-.61s.21-.62.33-.7.36,0,.55.17A.55.55,0,0,0,47.56,30ZM61.87,22.8c-.39-.09-.67-.77-.68-1s.28-.49.66-.6a.87.87,0,0,0,.41-1.13c-.14-.52-.57-.86-.95-.75s-1-.33-1.08-.52,0-.57.27-.85a.87.87,0,0,0-.2-1.19.89.89,0,0,0-1.2-.17c-.27.28-1,.19-1.19.09s-.29-.49-.2-.87-.25-.8-.77-.93-1,.07-1.12.45-.77.66-1,.68-.49-.28-.59-.66a.88.88,0,0,0-1.14-.42c-.52.14-.85.57-.75,1s-.33,1-.51,1.08-.57,0-.85-.27a.89.89,0,0,0-1.2.21.88.88,0,0,0-.17,1.19,1.36,1.36,0,0,1,.1,1.2.82.82,0,0,1-.88.19c-.38-.1-.8.25-.93.77a.89.89,0,0,0,.45,1.13c.38.09.66.77.68,1s-.28.49-.66.6A.86.86,0,0,0,48,24.11c.15.52.57.86.95.75s1,.33,1.09.52,0,.57-.28.85a1,1,0,0,0,1.41,1.36c.27-.28,1-.19,1.19-.09s.29.49.19.87a.8.8,0,0,0,.5.83.35.35,0,0,0-.37.05c-.13.14-.49.1-.59.05s-.14-.24-.09-.43a.44.44,0,0,0-.38-.46.43.43,0,0,0-.56.22c0,.19-.38.33-.49.34s-.24-.14-.3-.33-.3-.28-.56-.21-.42.29-.37.47a.68.68,0,0,1-.25.54c-.1.06-.28,0-.42-.14a.51.51,0,0,0-.68.7c.14.13.1.49.05.59s-.25.14-.43.09-.4.13-.46.38a.43.43,0,0,0,.22.56c.19.05.33.38.33.49s-.14.24-.32.3-.28.3-.21.56.28.42.47.37.47.16.54.25,0,.28-.14.42a.44.44,0,0,0,.1.59.43.43,0,0,0,.59.09.68.68,0,0,1,.6,0c.1,0,.14.24.09.43s.13.4.38.46a.43.43,0,0,0,.56-.22c0-.19.18-.34.29-.33s.44.13.5.32.3.28.56.21.42-.28.37-.47.16-.48.25-.54.28,0,.42.14a.51.51,0,0,0,.68-.7c-.14-.13-.1-.49-.05-.59s.24-.14.43-.09.4-.13.46-.38a.43.43,0,0,0-.22-.56c-.19,0-.33-.38-.34-.49s.14-.24.33-.3.28-.3.21-.56-.29-.42-.47-.37-.48-.16-.54-.25,0-.28.14-.42a.44.44,0,0,0-.1-.59l-.13-.1a.48.48,0,0,0,.18.06.88.88,0,0,0,1.12-.45c.1-.38.36-.68.59-.67s.89.28,1,.65a.87.87,0,0,0,1.13.42c.52-.14.86-.57.75-.95s.33-1,.52-1.08.57,0,.85.27a1,1,0,0,0,1.37-1.4,1.36,1.36,0,0,1-.1-1.2c.1-.2.49-.29.87-.19s.8-.25.93-.77A.89.89,0,0,0,61.87,22.8Z"/><text class="cls-9" transform="translate(126.18 39.31) scale(0.96 1)">AU<tspan class="cls-10" x="34.66" y="0">T</tspan><tspan x="48.89" y="0">O</tspan><tspan class="cls-11" x="67.56" y="0">AV</tspan><tspan x="97.34" y="0">ALIAÇÃO</tspan></text></svg>