<svg id="Camada_1" data-name="Camada 1" xmlns="http://www.w3.org/2000/svg" xmlns:xlink="http://www.w3.org/1999/xlink" viewBox="0 0 366.45 56.29"><defs><style>.cls-1{fill:#24397d;}.cls-2{clip-path:url(#clip-path);}.cls-3{fill:#fff;}.cls-4{fill:#29235c;}.cls-5{fill:url(#Gradiente_sem_nome_92);}.cls-6{fill:#be1622;}.cls-7{fill:#e30613;}.cls-8{fill:#f2c6a5;}</style><clipPath id="clip-path"><rect class="cls-1" y="12.2" width="366.45" height="31.89"/></clipPath><radialGradient id="Gradiente_sem_nome_92" cx="52.83" cy="28.15" r="33.53" gradientUnits="userSpaceOnUse"><stop offset="0.29" stop-color="#fff"/><stop offset="0.4" stop-color="#f8f8f8"/><stop offset="0.57" stop-color="#f2f2f2"/><stop offset="0.63" stop-color="#ededed"/><stop offset="0.71" stop-color="#e0dfde"/><stop offset="0.79" stop-color="#cac7c6"/><stop offset="0.81" stop-color="#c2bfbd"/></radialGradient></defs><title>CONTEUDO</title><rect class="cls-1" y="12.2" width="366.45" height="31.89"/><g class="cls-2"><path class="cls-1" d="M8,12.2S0,12.2,0,20.54V35.75s0,8.34,8,8.34H358.5s7.95,0,7.95-8.34V20.54s0-8.34-7.95-8.34Z"/></g><path class="cls-3" d="M168.18,31.09l3.17,1A7.11,7.11,0,0,1,168.93,36a7.66,7.66,0,0,1-9.61-.92,8.42,8.42,0,0,1-2.08-6,8.85,8.85,0,0,1,2.09-6.28,7.16,7.16,0,0,1,5.49-2.24,6.75,6.75,0,0,1,4.83,1.76,6.34,6.34,0,0,1,1.66,3l-3.24.77a3.35,3.35,0,0,0-3.41-2.71,3.71,3.71,0,0,0-2.93,1.29,6.39,6.39,0,0,0-1.12,4.19c0,2,.37,3.5,1.11,4.37a3.57,3.57,0,0,0,2.87,1.31,3.27,3.27,0,0,0,2.24-.83A4.76,4.76,0,0,0,168.18,31.09Z"/><path class="cls-3" d="M174.7,29.05a10.22,10.22,0,0,1,.74-4.16A7.73,7.73,0,0,1,177,22.67,6.2,6.2,0,0,1,179,21.21a8.83,8.83,0,0,1,3.49-.64,7.6,7.6,0,0,1,5.73,2.22A8.48,8.48,0,0,1,190.41,29a8.51,8.51,0,0,1-2.13,6.14,7.52,7.52,0,0,1-5.7,2.21,7.62,7.62,0,0,1-5.75-2.2A8.37,8.37,0,0,1,174.7,29.05Zm3.37-.11a6.07,6.07,0,0,0,1.27,4.17,4.16,4.16,0,0,0,3.23,1.42,4.11,4.11,0,0,0,3.21-1.41A6.23,6.23,0,0,0,187,28.89a6.1,6.1,0,0,0-1.22-4.15,4.11,4.11,0,0,0-3.24-1.37,4.16,4.16,0,0,0-3.26,1.38A6.12,6.12,0,0,0,178.07,28.94Z"/><path class="cls-3" d="M194.2,37.05V20.85h3.18L204,31.67V20.85h3v16.2h-3.28l-6.53-10.57V37.05Z"/><path class="cls-3" d="M215.36,37.05V23.59h-4.81V20.85h12.87v2.74h-4.79V37.05Z"/><path class="cls-3" d="M226.73,37.05V20.85h12v2.74H230v3.59h8.13v2.73H230v4.41h9.05v2.73Z"/><path class="cls-3" d="M243,20.85h3.27v8.77a18.48,18.48,0,0,0,.12,2.71,2.65,2.65,0,0,0,1,1.6,3.51,3.51,0,0,0,2.16.6,3.29,3.29,0,0,0,2.1-.57,2.24,2.24,0,0,0,.85-1.4,17.44,17.44,0,0,0,.15-2.75v-9h3.27v8.51a21.47,21.47,0,0,1-.27,4.12,4.54,4.54,0,0,1-1,2,5,5,0,0,1-1.9,1.32,8.3,8.3,0,0,1-3.12.49,9.12,9.12,0,0,1-3.52-.53,5,5,0,0,1-1.89-1.39,4.48,4.48,0,0,1-.92-1.8,19.27,19.27,0,0,1-.32-4.11Zm4.45-.93L249,16.61h3.48l-3,3.31Z"/><path class="cls-3" d="M260.56,20.85h6a11.44,11.44,0,0,1,3.08.31,5.35,5.35,0,0,1,2.45,1.49,7.11,7.11,0,0,1,1.54,2.62,11.8,11.8,0,0,1,.53,3.83,10.71,10.71,0,0,1-.49,3.45,7.21,7.21,0,0,1-1.74,2.86,5.66,5.66,0,0,1-2.3,1.29,9.75,9.75,0,0,1-2.89.35h-6.16Zm3.27,2.74V34.32h2.45a8.35,8.35,0,0,0,2-.16,3,3,0,0,0,1.32-.67,3.45,3.45,0,0,0,.86-1.56,10.67,10.67,0,0,0,.33-3,9.77,9.77,0,0,0-.33-2.89,3.71,3.71,0,0,0-.93-1.57,3.09,3.09,0,0,0-1.51-.76,15.33,15.33,0,0,0-2.69-.15Z"/><path class="cls-3" d="M277.45,29.05a10.21,10.21,0,0,1,.75-4.16,7.7,7.7,0,0,1,1.5-2.22,6.33,6.33,0,0,1,2.1-1.46,8.83,8.83,0,0,1,3.49-.64A7.6,7.6,0,0,1,291,22.79,8.53,8.53,0,0,1,293.17,29,8.51,8.51,0,0,1,291,35.11a8.53,8.53,0,0,1-11.45,0A8.37,8.37,0,0,1,277.45,29.05Zm3.38-.11a6.07,6.07,0,0,0,1.27,4.17,4.14,4.14,0,0,0,3.22,1.42,4.09,4.09,0,0,0,3.21-1.41,6.18,6.18,0,0,0,1.26-4.23,6.1,6.1,0,0,0-1.22-4.15,4.13,4.13,0,0,0-3.25-1.37,4.19,4.19,0,0,0-3.26,1.38A6.17,6.17,0,0,0,280.83,28.94Z"/><polygon class="cls-4" points="67.98 1.9 37.68 1.9 22.52 28.15 37.68 54.39 67.98 54.39 83.14 28.15 67.98 1.9"/><polygon class="cls-5" points="66.76 4.01 38.9 4.01 24.97 28.15 38.9 52.28 66.76 52.28 80.7 28.15 66.76 4.01"/><path class="cls-3" d="M44.38,12.54V37.31l-1.23-.11-1,3.7H65.58a1.25,1.25,0,0,0,1.2-.89h.06V12.54Z"/><path class="cls-6" d="M66.52,12.86V39.78l0,.13a1,1,0,0,1-.9.68h-23l.85-3.06,1,.1.35,0V12.86H66.52m.32-.32H44.38V37.31l-1.23-.11-1,3.7H65.58a1.25,1.25,0,0,0,1.2-.89h.06V12.54Z"/><path class="cls-3" d="M40.48,12.54v27.1a1.25,1.25,0,0,0,1.26,1.26h2A1.25,1.25,0,0,0,45,39.64V12.54Z"/><path class="cls-6" d="M44.7,12.86V39.64a1,1,0,0,1-1,1h-2a1,1,0,0,1-1-1V12.86H44.7m.31-.32H40.48v27.1a1.25,1.25,0,0,0,1.26,1.26h2A1.25,1.25,0,0,0,45,39.64V12.54Z"/><path class="cls-6" d="M43.75,13.77v25a.44.44,0,0,1-.43.44H42.17a.44.44,0,0,1-.43-.44v-25h-.39v25a.83.83,0,0,0,.82.83h1.15a.83.83,0,0,0,.82-.83v-25Z"/><rect class="cls-6" x="42.55" y="13.77" width="0.39" height="24.28"/><path class="cls-7" d="M47,19.35v-4.7h1.24l1,1.73A13.22,13.22,0,0,1,50,18h0a17.44,17.44,0,0,1-.09-2V14.65h1v4.7H49.78l-1-1.81A17,17,0,0,1,48,15.88h0c0,.62,0,1.28,0,2.05v1.41Z"/><path class="cls-7" d="M54.61,17.37H52.88v1.11h1.93v.87h-3v-4.7h2.9v.88H52.88v1h1.73Z"/><path class="cls-7" d="M56.34,19.35l-1.11-4.7h1.13l.36,1.94c.11.56.2,1.17.28,1.64h0c.08-.51.19-1.07.31-1.65l.4-1.93h1.13l.37,2c.11.56.18,1.06.25,1.58h0c.07-.52.17-1.07.27-1.63l.38-1.93h1.08L60,19.35H58.86l-.4-2c-.09-.47-.16-.91-.22-1.45h0c-.09.53-.16,1-.28,1.45l-.44,2Z"/><path class="cls-7" d="M61.75,18.26a2.7,2.7,0,0,0,1.18.29c.49,0,.75-.2.75-.51s-.22-.46-.79-.66c-.78-.27-1.29-.7-1.29-1.39s.67-1.41,1.78-1.41a2.81,2.81,0,0,1,1.2.24l-.24.85a2.24,2.24,0,0,0-1-.22c-.46,0-.69.21-.69.45s.27.43.88.67c.83.3,1.22.73,1.22,1.4s-.61,1.45-1.9,1.45a3.14,3.14,0,0,1-1.33-.28Z"/><rect class="cls-7" x="46.36" y="21.31" width="18.41" height="3.38"/><rect class="cls-7" x="46.36" y="26.17" width="8.87" height="0.98"/><rect class="cls-7" x="55.89" y="26.17" width="8.87" height="0.98"/><rect class="cls-7" x="46.36" y="29.02" width="8.87" height="0.98"/><rect class="cls-7" x="55.89" y="29.02" width="8.87" height="0.98"/><rect class="cls-7" x="46.36" y="31.86" width="8.87" height="0.98"/><rect class="cls-7" x="55.89" y="31.86" width="8.87" height="0.98"/><rect class="cls-7" x="46.36" y="34.71" width="8.87" height="0.98"/><rect class="cls-7" x="55.89" y="34.71" width="8.87" height="0.98"/><rect class="cls-7" x="46.36" y="37.56" width="8.87" height="0.98"/><rect class="cls-7" x="55.89" y="37.56" width="8.87" height="0.98"/><path class="cls-8" d="M45.67,23.39c-1.58-.38-2,1.36-2,1.36L42,31a2.48,2.48,0,0,1-1.65.3c-.14,0-.11-.32,0-.72V26.17C39,27.35,37.07,29,36.78,29.84a14.93,14.93,0,0,0-.37,3.71c0,1.31,0,2.86-.1,4.52a6.12,6.12,0,0,1-.84,2.55L40,44.89a1.74,1.74,0,0,0,1.77.38c2.38-1.73,1.8-2.48,2.49-3.76a16.4,16.4,0,0,0,1.75-8c-.25-3.21,0-2.41.57-6,0-.09,0-.19,0-.29C47.23,23.28,45.67,23.39,45.67,23.39Z"/></svg>