<?xml version="1.0" encoding="UTF-8" standalone="no"?>
<svg
   xmlns:dc="http://purl.org/dc/elements/1.1/"
   xmlns:cc="http://creativecommons.org/ns#"
   xmlns:rdf="http://www.w3.org/1999/02/22-rdf-syntax-ns#"
   xmlns:svg="http://www.w3.org/2000/svg"
   xmlns="http://www.w3.org/2000/svg"
   xmlns:sodipodi="http://sodipodi.sourceforge.net/DTD/sodipodi-0.dtd"
   xmlns:inkscape="http://www.inkscape.org/namespaces/inkscape"
   id="Camada_1"
   data-name="Camada 1"
   viewBox="0 0 366.45 52.49"
   version="1.1"
   sodipodi:docname="tarja-atencao.svg"
   width="366.45001"
   height="52.490002"
   inkscape:version="0.92.3 (2405546, 2018-03-11)">
  <metadata
     id="metadata63">
    <rdf:RDF>
      <cc:Work
         rdf:about="">
        <dc:format>image/svg+xml</dc:format>
        <dc:type
           rdf:resource="http://purl.org/dc/dcmitype/StillImage" />
      </cc:Work>
    </rdf:RDF>
  </metadata>
  <sodipodi:namedview
     pagecolor="#ffffff"
     bordercolor="#666666"
     borderopacity="1"
     objecttolerance="10"
     gridtolerance="10"
     guidetolerance="10"
     inkscape:pageopacity="0"
     inkscape:pageshadow="2"
     inkscape:window-width="1920"
     inkscape:window-height="1006"
     id="namedview61"
     showgrid="false"
     inkscape:zoom="2.3536692"
     inkscape:cx="165.67063"
     inkscape:cy="71.14795"
     inkscape:window-x="0"
     inkscape:window-y="0"
     inkscape:window-maximized="1"
     inkscape:current-layer="Camada_1" />
  <defs
     id="defs22">
    <style
       id="style2">.cls-1{fill:#24397d;}.cls-2{clip-path:url(#clip-path);}.cls-3{fill:#29235c;}.cls-4{fill:url(#radial-gradient);}.cls-5{fill:#e52421;}.cls-6{font-size:24px;fill:#fff;font-family:Arial-BoldMT, Arial;font-weight:700;}.cls-7{letter-spacing:-0.07em;}</style>
    <clipPath
       id="clip-path">
      <rect
         class="cls-1"
         y="10.59"
         width="366.45001"
         height="31.889999"
         id="rect4"
         x="0"
         style="fill:#24397d" />
    </clipPath>
    <radialGradient
       id="radial-gradient"
       cx="450.34"
       cy="91.599998"
       r="93.580002"
       gradientTransform="matrix(0.36,0,0,0.36,-110.66,-6.58)"
       gradientUnits="userSpaceOnUse">
      <stop
         offset="0"
         stop-color="#fff"
         id="stop7" />
      <stop
         offset="0.15"
         stop-color="#f8f8f8"
         id="stop9" />
      <stop
         offset="0.39"
         stop-color="#f2f2f2"
         id="stop11" />
      <stop
         offset="0.5"
         stop-color="#ededed"
         id="stop13" />
      <stop
         offset="0.63"
         stop-color="#e0dfde"
         id="stop15" />
      <stop
         offset="0.77"
         stop-color="#cac7c6"
         id="stop17" />
      <stop
         offset="0.81"
         stop-color="#c2bfbd"
         id="stop19" />
    </radialGradient>
  </defs>
  <title
     id="title24">STENCAO</title>
  <rect
     class="cls-1"
     y="10.59"
     width="366.45001"
     height="31.889999"
     id="rect26"
     x="0"
     style="fill:#24397d" />
  <g
     class="cls-2"
     clip-path="url(#clip-path)"
     id="g30"
     transform="matrix(1.0301448,0,0,1,-5.0984226,0)">
    <path
       class="cls-1"
       d="m 8,10.59 c 0,0 -8,0 -8,8.34 v 15.21 c 0,0 0,8.34 8,8.34 h 350.5 c 0,0 7.95,0 7.95,-8.34 V 18.93 c 0,0 0,-8.34 -7.95,-8.34 z"
       id="path28"
       inkscape:connector-curvature="0"
       style="fill:#24397d" />
  </g>
  <polygon
     class="cls-3"
     points="20.41,26.25 35.56,52.49 65.86,52.49 81.02,26.25 65.86,0 35.56,0 "
     id="polygon32"
     style="fill:#29235c" />
  <polygon
     class="cls-4"
     points="22.85,26.25 36.78,50.38 64.64,50.38 78.58,26.25 64.64,2.11 36.78,2.11 "
     id="polygon34"
     style="fill:url(#radial-gradient)" />
  <path
     class="cls-5"
     d="m 42.67,42.77 v 0 0 A 2.22,2.22 0 0 0 42.52,42.34 L 42.44,42 h -0.06 l -5.3,-13.21 -2.48,1.59 5.19,12.83 v 0 0.08 a 1.71,1.71 0 0 0 0.23,0.56 v 0 0 a 1.31,1.31 0 0 0 1.6,0.41 1.19,1.19 0 0 0 1.05,-1.49 z"
     id="path36"
     inkscape:connector-curvature="0"
     style="fill:#e52421" />
  <path
     class="cls-5"
     d="m 47.33,12 6.79,22.61 c 0,0 -7,-5 -10.93,-4.4 l -2.14,0.64 -2.39,-8 1.69,-0.66 c 0,0 6.35,-4.04 6.98,-10.19 z"
     id="path38"
     inkscape:connector-curvature="0"
     style="fill:#e52421" />
  <rect
     class="cls-5"
     x="42.461658"
     y="25.120161"
     width="1.38"
     height="23.610001"
     transform="rotate(-16.71)"
     id="rect40"
     style="fill:#e52421" />
  <rect
     class="cls-5"
     x="22.790228"
     y="32.653484"
     width="6.4099998"
     height="9.3000002"
     transform="rotate(-16.71)"
     id="rect42"
     style="fill:#e52421" />
  <path
     class="cls-5"
     d="m 30.51,25.62 2.18,7.28 a 4,4 0 0 1 -3.36,-3 4,4 0 0 1 1.18,-4.28 z"
     id="path44"
     inkscape:connector-curvature="0"
     style="fill:#e52421" />
  <path
     class="cls-5"
     d="m 51.72,19.77 c 0,0 3.29,-1 4.18,2 0.89,3 -2.28,4.33 -2.28,4.33 z"
     id="path46"
     inkscape:connector-curvature="0"
     style="fill:#e52421" />
  <path
     class="cls-5"
     d="m 58.81,25.11 a 0.56,0.56 0 0 0 0.32,-0.25 5.07,5.07 0 0 0 0.65,-4.29 5.26,5.26 0 0 0 -2.78,-2.82 0.55,0.55 0 0 0 -0.71,0.31 0.54,0.54 0 0 0 0.31,0.71 4.24,4.24 0 0 1 2.15,2.23 4.07,4.07 0 0 1 -0.58,3.37 0.55,0.55 0 0 0 0.21,0.75 0.54,0.54 0 0 0 0.43,-0.01 z"
     id="path48"
     inkscape:connector-curvature="0"
     style="fill:#e52421" />
  <path
     class="cls-5"
     d="m 62.52,27.5 a 0.48,0.48 0 0 0 0.31,-0.23 10,10 0 0 0 0.85,-7.83 8.55,8.55 0 0 0 -5,-5.68 0.55,0.55 0 1 0 -0.36,1 7.46,7.46 0 0 1 4.25,5 9,9 0 0 1 -0.72,6.94 0.54,0.54 0 0 0 0.17,0.75 0.52,0.52 0 0 0 0.5,0.05 z"
     id="path50"
     inkscape:connector-curvature="0"
     style="fill:#e52421" />
  <path
     class="cls-5"
     d="m 66.23,29.84 a 0.54,0.54 0 0 0 0.31,-0.25 15.34,15.34 0 0 0 1.32,-11.41 12.92,12.92 0 0 0 -7.23,-8.18 0.56,0.56 0 0 0 -0.71,0.33 0.54,0.54 0 0 0 0.32,0.7 12,12 0 0 1 6.57,7.44 14.62,14.62 0 0 1 -1.21,10.53 0.54,0.54 0 0 0 0.19,0.75 0.57,0.57 0 0 0 0.44,0.09 z"
     id="path52"
     inkscape:connector-curvature="0"
     style="fill:#e52421" />
  <text
     class="cls-6"
     transform="scale(0.9797959,1.0206207)"
     id="text58"
     style="font-weight:700;font-size:23.51510239px;font-family:Arial-BoldMT, Arial;fill:#ffffff;stroke-width:0.97979587"
     x="172.68903"
     y="33.930332">
    <tspan
       class="cls-7"
       id="tspan54"
       style="letter-spacing:-0.07em;stroke-width:0.97979587">A</tspan>
    <tspan
       x="187.92485"
       y="33.930332"
       id="tspan56"
       style="stroke-width:0.97979587">TENÇÃO</tspan>
  </text>
</svg>
